<svg width="165" height="35" viewBox="0 0 165 35" fill="none" xmlns="http://www.w3.org/2000/svg">
<rect width="165" height="35" rx="5" fill="#1F718B"/>
<path d="M19.6164 8.76367C20.0266 8.76367 20.3605 8.88086 20.6184 9.11523C20.8879 9.33789 21.0051 9.74805 20.9699 10.3457C20.9582 10.5449 20.9113 10.9199 20.8293 11.4707C20.7473 12.0098 20.6477 12.6484 20.5305 13.3867C20.4133 14.125 20.2785 14.9219 20.1262 15.7773C19.9855 16.6211 19.8508 17.4473 19.7219 18.2559H20.091C20.2082 18.2559 20.3371 18.25 20.4777 18.2383C20.6184 18.2266 20.7648 18.209 20.9172 18.1855C20.8586 18.3262 20.7941 18.4609 20.7238 18.5898C20.6535 18.707 20.5832 18.8125 20.5129 18.9062C20.4309 19.0117 20.3488 19.1055 20.2668 19.1875C20.1613 19.3164 20.0383 19.4336 19.8977 19.5391C19.757 19.6328 19.6223 19.709 19.4934 19.7676C19.4113 20.3418 19.341 20.8574 19.2824 21.3145C19.2355 21.7598 19.2063 22.1289 19.1945 22.4219C19.1711 22.8672 19.1828 23.2832 19.2297 23.6699C19.2648 24.0098 19.3352 24.3555 19.4406 24.707C19.5461 25.0586 19.716 25.3398 19.9504 25.5508L17.9113 26.2188C17.7707 26.0195 17.6652 25.75 17.5949 25.4102C17.5363 25.082 17.4953 24.7539 17.4719 24.4258C17.4367 24.0391 17.4309 23.6406 17.4543 23.2305C17.4777 22.8203 17.5422 22.2871 17.6477 21.6309C17.7531 20.9629 17.8703 20.2363 17.9992 19.4512C17.7648 19.3809 17.507 19.3223 17.2258 19.2754C16.9563 19.2285 16.6516 19.2051 16.3117 19.2051C16.007 19.2051 15.6848 19.2168 15.3449 19.2402C15.0168 19.2637 14.6887 19.293 14.3605 19.3281C14.2199 19.8438 14.0793 20.3887 13.9387 20.9629C13.7863 21.584 13.6457 22.1113 13.5168 22.5449C13.3996 22.9902 13.2824 23.3594 13.1652 23.6523C13.0598 23.9453 12.9484 24.1797 12.8313 24.3555C12.7258 24.5312 12.6086 24.6602 12.4797 24.7422C12.3391 24.8125 12.1633 24.877 11.9523 24.9355C11.7531 24.9941 11.5012 25.0527 11.1965 25.1113C10.8918 25.1699 10.4992 25.2168 10.0188 25.252C10.1945 25.041 10.3469 24.8477 10.4758 24.6719C10.6047 24.4961 10.7336 24.2793 10.8625 24.0215C10.9914 23.7637 11.1379 23.4297 11.302 23.0195C11.4543 22.6211 11.6535 22.0938 11.8996 21.4375C12.0051 21.168 12.1105 20.875 12.216 20.5586C12.3332 20.2305 12.4563 19.8965 12.5852 19.5566C12.1633 19.6152 11.8059 19.668 11.5129 19.7148C11.2199 19.7617 11.0441 19.7969 10.9855 19.8203C10.8918 19.832 10.8156 19.832 10.757 19.8203C10.6047 19.7969 10.5227 19.7207 10.5109 19.5918C10.5227 19.4277 10.5813 19.3164 10.6867 19.2578C10.7805 19.1992 10.927 19.1289 11.1262 19.0469C11.2199 19 11.4367 18.918 11.7766 18.8008C12.1047 18.6719 12.509 18.5371 12.9895 18.3965C13.1652 17.9043 13.3352 17.418 13.4992 16.9375C13.675 16.4453 13.8449 15.9766 14.009 15.5312C14.173 15.0859 14.3313 14.6699 14.4836 14.2832C14.6359 13.8848 14.7766 13.5449 14.9055 13.2637C15.1047 12.8301 15.3566 12.3555 15.6613 11.8398C15.9777 11.3125 16.3352 10.8203 16.7336 10.3633C17.1438 9.90625 17.5891 9.52539 18.0695 9.2207C18.5617 8.91602 19.0773 8.76367 19.6164 8.76367ZM19.423 12.4199C19.552 11.8926 19.6398 11.459 19.6867 11.1191C19.7336 10.7793 19.7512 10.5156 19.7395 10.3281C19.7277 10.1289 19.6867 9.99414 19.6164 9.92383C19.5578 9.8418 19.4816 9.80078 19.3879 9.80078C19.2355 9.80078 19.048 9.85938 18.8254 9.97656C18.6027 10.0938 18.3684 10.2637 18.1223 10.4863C17.8762 10.6973 17.6301 10.9668 17.384 11.2949C17.1496 11.6113 16.9387 11.9746 16.7512 12.3848C16.4816 12.9941 16.177 13.7441 15.8371 14.6348C15.4973 15.5137 15.1281 16.6387 14.7297 18.0098C14.9641 17.9746 15.1926 17.9453 15.4152 17.9219C15.6496 17.8984 15.8781 17.8867 16.1008 17.8867C16.4992 17.8867 16.8801 17.9043 17.2434 17.9395C17.6066 17.9629 17.9406 17.9922 18.2453 18.0273C18.3508 17.4648 18.4563 16.9141 18.5617 16.375C18.6789 15.8242 18.7902 15.3027 18.8957 14.8105C19.0012 14.3184 19.0949 13.8672 19.177 13.457C19.2707 13.0469 19.3527 12.7012 19.423 12.4199ZM27.5441 18.6426C27.4855 19.0059 27.427 19.3516 27.3684 19.6797C27.3215 20.0078 27.2922 20.2715 27.2805 20.4707C27.2688 20.7637 27.3215 20.9746 27.4387 21.1035C27.5559 21.2324 27.6848 21.2969 27.8254 21.2969C27.9895 21.2969 28.1887 21.2148 28.423 21.0508C28.6691 20.8867 28.927 20.6816 29.1965 20.4355C29.466 20.1895 29.7355 19.9199 30.0051 19.627C30.2746 19.334 30.5207 19.0586 30.7434 18.8008C30.9777 18.5312 31.1711 18.2969 31.3234 18.0977C31.4875 17.8984 31.5988 17.7695 31.6574 17.7109C31.7277 17.6406 31.798 17.5996 31.8684 17.5879C31.9504 17.5762 32.0148 17.5879 32.0617 17.623C32.1086 17.6582 32.132 17.7227 32.132 17.8164C32.132 17.9102 32.0852 18.0273 31.9914 18.168C31.8508 18.3906 31.6691 18.6543 31.4465 18.959C31.2238 19.252 30.9777 19.5566 30.7082 19.873C30.4387 20.1895 30.1516 20.5 29.8469 20.8047C29.5539 21.1094 29.2551 21.3789 28.9504 21.6133C28.6574 21.8477 28.3703 22.0352 28.0891 22.1758C27.8195 22.3281 27.5734 22.4043 27.3508 22.4043C27.1867 22.4043 27.0285 22.3574 26.8762 22.2637C26.7355 22.1699 26.6066 22.0469 26.4895 21.8945C26.3723 21.7422 26.2785 21.5723 26.2082 21.3848C26.1496 21.1973 26.1262 21.0098 26.1379 20.8223C26.1496 20.7402 26.1672 20.5996 26.1906 20.4004C25.6984 20.9512 25.2004 21.3906 24.6965 21.7188C24.2043 22.0352 23.7297 22.1934 23.2727 22.1934C23.1086 22.1934 22.9328 22.1523 22.7453 22.0703C22.5578 21.9883 22.3879 21.8535 22.2355 21.666C22.0949 21.4785 21.9777 21.2324 21.884 20.9277C21.7902 20.623 21.7551 20.2539 21.7785 19.8203C21.8137 19.1406 21.9484 18.4961 22.1828 17.8867C22.4172 17.2773 22.7102 16.75 23.0617 16.3047C23.425 15.8477 23.8293 15.4902 24.2746 15.2324C24.7316 14.9629 25.1887 14.8281 25.6457 14.8281C25.8449 14.8281 26.0266 14.8809 26.1906 14.9863C26.3547 15.0801 26.4953 15.209 26.6125 15.373C26.7297 15.5254 26.8234 15.6953 26.8938 15.8828C26.9758 16.0703 27.0344 16.2461 27.0695 16.4102C27.1516 16.0703 27.2277 15.7363 27.298 15.4082C27.3684 15.0801 27.4387 14.7695 27.509 14.4766C27.6262 14.043 27.7492 13.5742 27.8781 13.0703C27.9953 12.6367 28.1301 12.1387 28.2824 11.5762C28.4348 11.0137 28.6047 10.4219 28.7922 9.80078C28.9094 9.70703 29.0207 9.63672 29.1262 9.58984C29.2316 9.54297 29.3313 9.50781 29.425 9.48438C29.5305 9.44922 29.6301 9.43164 29.7238 9.43164C29.841 9.43164 29.9465 9.44922 30.0402 9.48438C30.134 9.50781 30.2102 9.58398 30.2688 9.71289C30.3391 9.83008 30.3859 10.0117 30.4094 10.2578C30.4328 10.5039 30.4328 10.8379 30.4094 11.2598C30.3859 11.7754 30.2922 12.3379 30.1281 12.9473C29.9758 13.5566 29.7707 14.1895 29.5129 14.8457C29.2551 15.4902 28.9563 16.1406 28.6164 16.7969C28.2883 17.4414 27.9309 18.0566 27.5441 18.6426ZM26.507 18.8711C26.5539 18.6484 26.5949 18.4258 26.6301 18.2031C26.677 17.9805 26.7297 17.752 26.7883 17.5176C26.7648 17.5293 26.7414 17.541 26.718 17.5527C26.7063 17.5645 26.6887 17.5762 26.6652 17.5879C26.5363 17.6465 26.4484 17.6465 26.4016 17.5879C26.3547 17.5176 26.3313 17.4121 26.3313 17.2715C26.3313 17.2012 26.3254 17.0781 26.3137 16.9023C26.302 16.7148 26.2668 16.5273 26.2082 16.3398C26.1613 16.1406 26.0852 15.9707 25.9797 15.8301C25.8742 15.6777 25.7277 15.6016 25.5402 15.6016C25.2707 15.6016 24.9953 15.7422 24.7141 16.0234C24.4328 16.293 24.1691 16.627 23.923 17.0254C23.677 17.4121 23.4719 17.8281 23.3078 18.2734C23.1438 18.7188 23.05 19.1172 23.0266 19.4688C23.0031 20.0312 23.0734 20.4355 23.2375 20.6816C23.4016 20.9277 23.6242 21.0508 23.9055 21.0508C24.1164 21.0508 24.3449 20.9688 24.591 20.8047C24.8488 20.6406 25.0949 20.4414 25.3293 20.207C25.5754 19.9727 25.798 19.7324 25.9973 19.4863C26.2082 19.2402 26.3781 19.0352 26.507 18.8711ZM34.5227 11.6465C34.4875 11.7754 34.4172 11.9043 34.3117 12.0332C34.218 12.1504 34.1066 12.25 33.9777 12.332C33.8605 12.4023 33.7375 12.4492 33.6086 12.4727C33.4797 12.4961 33.3742 12.4727 33.2922 12.4023C33.0461 12.2148 32.9172 12.0156 32.9055 11.8047C32.8938 11.582 32.9465 11.377 33.0637 11.1895C33.1809 10.9902 33.3273 10.8262 33.5031 10.6973C33.6789 10.5566 33.8313 10.4746 33.9602 10.4512C34.0891 10.4277 34.1945 10.457 34.2766 10.5391C34.3703 10.6094 34.4406 10.709 34.4875 10.8379C34.5344 10.9551 34.5578 11.0898 34.5578 11.2422C34.5695 11.3945 34.5578 11.5293 34.5227 11.6465ZM32.0969 15.3906C32.1555 15.3203 32.2668 15.2617 32.4309 15.2148C32.5949 15.168 32.7648 15.1328 32.9406 15.1094C33.1164 15.0742 33.2746 15.0566 33.4152 15.0566C33.5676 15.0449 33.6555 15.0449 33.6789 15.0566C33.6906 15.0684 33.6613 15.1914 33.591 15.4258C33.5207 15.6602 33.4328 15.9355 33.3273 16.252C33.2219 16.5684 33.1105 16.8965 32.9934 17.2363C32.8762 17.5645 32.7883 17.834 32.7297 18.0449C32.6711 18.2559 32.6008 18.4961 32.5188 18.7656C32.4367 19.0234 32.3605 19.2812 32.2902 19.5391C32.2316 19.7852 32.1906 20.0195 32.1672 20.2422C32.1438 20.4648 32.1613 20.6348 32.2199 20.752C32.2785 20.8926 32.343 20.9922 32.4133 21.0508C32.4836 21.0977 32.5598 21.1211 32.6418 21.1211C32.8762 21.1211 33.1691 20.9922 33.5207 20.7344C33.884 20.4766 34.2473 20.1719 34.6105 19.8203C34.9855 19.457 35.3313 19.0938 35.6477 18.7305C35.9641 18.3555 36.1984 18.0566 36.3508 17.834C36.4445 17.7168 36.5383 17.6406 36.632 17.6055C36.7375 17.5703 36.8195 17.5762 36.8781 17.623C36.9484 17.6699 36.9836 17.7461 36.9836 17.8516C36.9953 17.957 36.9602 18.0801 36.8781 18.2207C36.6906 18.5488 36.4152 18.9414 36.052 19.3984C35.6887 19.8438 35.302 20.2773 34.8918 20.6992C34.4816 21.1094 34.0773 21.4609 33.6789 21.7539C33.2922 22.0469 32.9758 22.1992 32.7297 22.2109C32.5305 22.2227 32.3313 22.1875 32.132 22.1055C31.9445 22.0352 31.7688 21.9355 31.6047 21.8066C31.4523 21.666 31.3234 21.5078 31.218 21.332C31.1125 21.1445 31.0539 20.9512 31.0422 20.752C31.007 20.459 31.007 20.0605 31.0422 19.5566C31.0773 19.041 31.1418 18.5195 31.2355 17.9922C31.3293 17.4531 31.4465 16.9434 31.5871 16.4629C31.7395 15.9824 31.9094 15.625 32.0969 15.3906ZM38.5832 21.4023C38.9465 21.4023 39.3449 21.2617 39.7785 20.9805C40.2238 20.6875 40.6516 20.3477 41.0617 19.9609C41.4836 19.5742 41.8645 19.1816 42.2043 18.7832C42.5559 18.373 42.8195 18.0449 42.9953 17.7988C43.1008 17.6465 43.2004 17.5586 43.2941 17.5352C43.3879 17.5 43.4582 17.5117 43.5051 17.5703C43.552 17.6289 43.5695 17.7227 43.5578 17.8516C43.5461 17.9688 43.4934 18.1035 43.3996 18.2559C43.3176 18.3965 43.177 18.6016 42.9777 18.8711C42.7902 19.1289 42.5617 19.416 42.2922 19.7324C42.0344 20.0371 41.7355 20.3535 41.3957 20.6816C41.0676 20.998 40.7219 21.291 40.3586 21.5605C39.9953 21.8184 39.6203 22.0293 39.2336 22.1934C38.8469 22.3691 38.466 22.457 38.091 22.457C37.5754 22.457 37.1418 22.3574 36.7902 22.1582C36.4504 21.9707 36.175 21.7246 35.9641 21.4199C35.7648 21.1152 35.6242 20.7812 35.5422 20.418C35.4602 20.043 35.4191 19.6738 35.4191 19.3105C35.4191 18.9473 35.5012 18.4961 35.6652 17.957C35.8293 17.418 36.0695 16.9023 36.3859 16.4102C36.7141 15.9062 37.1242 15.4785 37.6164 15.127C38.1086 14.7637 38.6887 14.582 39.3566 14.582C39.7316 14.582 40.048 14.7109 40.3059 14.9688C40.5754 15.2266 40.7043 15.5781 40.6926 16.0234C40.6926 16.2344 40.6574 16.4453 40.5871 16.6562C40.5168 16.8555 40.423 17.0371 40.3059 17.2012C40.1887 17.3535 40.048 17.4766 39.884 17.5703C39.7316 17.6641 39.5617 17.7109 39.3742 17.7109C39.2219 17.7109 39.1047 17.6582 39.0227 17.5527C38.9523 17.4355 38.9055 17.3066 38.882 17.166C38.8703 17.0137 38.8703 16.8672 38.882 16.7266C38.9055 16.5859 38.9289 16.4922 38.9523 16.4453C39.0109 16.3633 39.0754 16.3047 39.1457 16.2695C39.216 16.2344 39.298 16.1934 39.3918 16.1465C39.4621 16.1113 39.5148 16.0586 39.55 15.9883C39.5969 15.918 39.6203 15.8418 39.6203 15.7598C39.6203 15.6777 39.5969 15.6074 39.55 15.5488C39.5031 15.4902 39.427 15.4609 39.3215 15.4609C39.216 15.4609 39.0227 15.5488 38.7414 15.7246C38.4719 15.8887 38.1906 16.1406 37.8977 16.4805C37.6164 16.8086 37.3645 17.2246 37.1418 17.7285C36.9191 18.2324 36.802 18.8184 36.7902 19.4863C36.7785 19.873 36.8313 20.1895 36.9484 20.4355C37.0656 20.6816 37.2121 20.875 37.3879 21.0156C37.5637 21.1562 37.757 21.2559 37.968 21.3145C38.1789 21.373 38.384 21.4023 38.5832 21.4023ZM46.0012 11.6465C45.966 11.7754 45.8957 11.9043 45.7902 12.0332C45.6965 12.1504 45.5852 12.25 45.4563 12.332C45.3391 12.4023 45.216 12.4492 45.0871 12.4727C44.9582 12.4961 44.8527 12.4727 44.7707 12.4023C44.5246 12.2148 44.3957 12.0156 44.384 11.8047C44.3723 11.582 44.425 11.377 44.5422 11.1895C44.6594 10.9902 44.8059 10.8262 44.9816 10.6973C45.1574 10.5566 45.3098 10.4746 45.4387 10.4512C45.5676 10.4277 45.673 10.457 45.7551 10.5391C45.8488 10.6094 45.9191 10.709 45.966 10.8379C46.0129 10.9551 46.0363 11.0898 46.0363 11.2422C46.048 11.3945 46.0363 11.5293 46.0012 11.6465ZM43.5754 15.3906C43.634 15.3203 43.7453 15.2617 43.9094 15.2148C44.0734 15.168 44.2434 15.1328 44.4191 15.1094C44.5949 15.0742 44.7531 15.0566 44.8938 15.0566C45.0461 15.0449 45.134 15.0449 45.1574 15.0566C45.1691 15.0684 45.1398 15.1914 45.0695 15.4258C44.9992 15.6602 44.9113 15.9355 44.8059 16.252C44.7004 16.5684 44.5891 16.8965 44.4719 17.2363C44.3547 17.5645 44.2668 17.834 44.2082 18.0449C44.1496 18.2559 44.0793 18.4961 43.9973 18.7656C43.9152 19.0234 43.8391 19.2812 43.7688 19.5391C43.7102 19.7852 43.6691 20.0195 43.6457 20.2422C43.6223 20.4648 43.6398 20.6348 43.6984 20.752C43.757 20.8926 43.8215 20.9922 43.8918 21.0508C43.9621 21.0977 44.0383 21.1211 44.1203 21.1211C44.3547 21.1211 44.6477 20.9922 44.9992 20.7344C45.3625 20.4766 45.7258 20.1719 46.0891 19.8203C46.4641 19.457 46.8098 19.0938 47.1262 18.7305C47.4426 18.3555 47.677 18.0566 47.8293 17.834C47.923 17.7168 48.0168 17.6406 48.1105 17.6055C48.216 17.5703 48.298 17.5762 48.3566 17.623C48.427 17.6699 48.4621 17.7461 48.4621 17.8516C48.4738 17.957 48.4387 18.0801 48.3566 18.2207C48.1691 18.5488 47.8938 18.9414 47.5305 19.3984C47.1672 19.8438 46.7805 20.2773 46.3703 20.6992C45.9602 21.1094 45.5559 21.4609 45.1574 21.7539C44.7707 22.0469 44.4543 22.1992 44.2082 22.2109C44.009 22.2227 43.8098 22.1875 43.6105 22.1055C43.423 22.0352 43.2473 21.9355 43.0832 21.8066C42.9309 21.666 42.802 21.5078 42.6965 21.332C42.591 21.1445 42.5324 20.9512 42.5207 20.752C42.4855 20.459 42.4855 20.0605 42.5207 19.5566C42.5559 19.041 42.6203 18.5195 42.7141 17.9922C42.8078 17.4531 42.925 16.9434 43.0656 16.4629C43.218 15.9824 43.3879 15.625 43.5754 15.3906ZM52.2766 19.2051C52.1594 19.6504 52.0012 20.0664 51.802 20.4531C51.6027 20.8398 51.3625 21.1738 51.0813 21.4551C50.8117 21.7363 50.5012 21.9531 50.1496 22.1055C49.8098 22.2695 49.4348 22.3516 49.0246 22.3516C48.5441 22.3516 48.1633 22.2461 47.882 22.0352C47.6125 21.8359 47.4074 21.584 47.2668 21.2793C47.1379 20.9746 47.0617 20.6406 47.0383 20.2773C47.0031 19.9141 46.9855 19.5742 46.9855 19.2578C46.9855 19.0352 47.0148 18.7891 47.0734 18.5195C47.1203 18.25 47.1906 17.9746 47.2844 17.6934C47.3781 17.4121 47.4953 17.1309 47.6359 16.8496C47.7883 16.5684 47.9641 16.3105 48.1633 16.0762C48.2336 15.877 48.3391 15.7012 48.4797 15.5488C48.632 15.3965 48.802 15.2734 48.9895 15.1797C49.1887 15.0742 49.3996 14.998 49.6223 14.9512C49.8449 14.8926 50.0617 14.8633 50.2727 14.8633C50.3078 14.8633 50.3371 14.8691 50.3605 14.8809C50.3957 14.8926 50.4309 14.9043 50.466 14.916C50.6184 14.9277 50.8059 14.9863 51.0285 15.0918C51.2629 15.1973 51.4855 15.3555 51.6965 15.5664C51.9191 15.7773 52.1066 16.0469 52.259 16.375C52.4113 16.6914 52.4875 17.0781 52.4875 17.5352C52.4875 17.6289 52.4816 17.7461 52.4699 17.8867C52.4582 18.0156 52.4465 18.127 52.4348 18.2207C52.7043 18.1152 52.9855 17.9863 53.2785 17.834C53.5715 17.6816 53.8527 17.5234 54.1223 17.3594C54.4035 17.1836 54.6613 17.0078 54.8957 16.832C55.1301 16.6562 55.3176 16.498 55.4582 16.3574C55.5754 16.252 55.675 16.1934 55.757 16.1816C55.8391 16.1699 55.8977 16.1934 55.9328 16.252C55.968 16.3105 55.9738 16.3926 55.9504 16.498C55.927 16.6035 55.8625 16.7207 55.757 16.8496C55.6984 16.9199 55.5461 17.0605 55.3 17.2715C55.0656 17.4824 54.7844 17.7109 54.4563 17.957C54.1281 18.2031 53.7707 18.4434 53.384 18.6777C52.9973 18.9121 52.6281 19.0879 52.2766 19.2051ZM49.3059 16.5332C49.2707 16.6387 49.2531 16.75 49.2531 16.8672C49.2531 17.0547 49.2648 17.2539 49.2883 17.4648C49.3117 17.6641 49.3703 17.8457 49.4641 18.0098C49.5578 18.1738 49.7043 18.3145 49.9035 18.4316C50.1145 18.5371 50.4016 18.5898 50.7648 18.5898C50.8234 18.5898 50.882 18.5898 50.9406 18.5898C50.9992 18.5781 51.0578 18.5664 51.1164 18.5547C51.1516 18.4023 51.1809 18.2676 51.2043 18.1504C51.2395 18.0215 51.257 17.9102 51.257 17.8164C51.2805 17.5938 51.2805 17.3652 51.257 17.1309C51.2336 16.8965 51.1867 16.6855 51.1164 16.498C51.0578 16.2988 50.9758 16.1406 50.8703 16.0234C50.7766 15.8945 50.6594 15.8301 50.5188 15.8301C50.2961 15.8301 50.0793 15.8945 49.8684 16.0234C49.6691 16.1406 49.4816 16.3105 49.3059 16.5332ZM48.1809 19.627C48.1809 19.8379 48.1926 20.0488 48.216 20.2598C48.2395 20.459 48.2863 20.6406 48.3566 20.8047C48.427 20.957 48.5207 21.0859 48.6379 21.1914C48.7551 21.2852 48.9074 21.332 49.0949 21.332C49.3059 21.332 49.4992 21.2852 49.675 21.1914C49.8508 21.0859 50.009 20.957 50.1496 20.8047C50.2902 20.6406 50.4133 20.459 50.5188 20.2598C50.6359 20.0488 50.7355 19.832 50.8176 19.6094C50.7355 19.6211 50.6535 19.6328 50.5715 19.6445C50.5012 19.6445 50.4191 19.6445 50.3254 19.6445C49.8801 19.6445 49.4934 19.5156 49.1652 19.2578C48.8488 18.9883 48.6027 18.6484 48.427 18.2383C48.3566 18.4844 48.298 18.7246 48.2512 18.959C48.2043 19.1934 48.1809 19.416 48.1809 19.627ZM59.3781 22.4395C59.1086 22.4395 58.8742 22.3867 58.675 22.2812C58.4875 22.1875 58.3352 22.0586 58.218 21.8945C58.1008 21.7305 58.0246 21.543 57.9895 21.332C57.9543 21.1094 57.966 20.875 58.0246 20.6289C58.0598 20.4648 58.1184 20.248 58.2004 19.9785C58.2824 19.6973 58.3645 19.3984 58.4465 19.082C58.5402 18.7539 58.6223 18.4316 58.6926 18.1152C58.7746 17.7871 58.8273 17.4941 58.8508 17.2363C58.8742 16.9668 58.8625 16.75 58.8156 16.5859C58.7688 16.4102 58.6691 16.3223 58.5168 16.3223C58.3293 16.3223 58.1359 16.3867 57.9367 16.5156C57.7375 16.6328 57.5324 16.7969 57.3215 17.0078C57.1223 17.2188 56.9172 17.4648 56.7063 17.7461C56.507 18.0156 56.3078 18.2969 56.1086 18.5898C56.0031 18.9883 55.9152 19.3398 55.8449 19.6445C55.7746 19.9375 55.7102 20.207 55.6516 20.4531C55.6047 20.6875 55.5578 20.8984 55.5109 21.0859C55.4641 21.2617 55.423 21.4316 55.3879 21.5957C55.3527 21.7129 55.2473 21.8301 55.0715 21.9473C54.8957 22.0527 54.7082 22.1406 54.509 22.2109C54.3098 22.2812 54.1398 22.3164 53.9992 22.3164C53.8469 22.3164 53.7824 22.2637 53.8059 22.1582C53.8176 22.0879 53.8586 21.9297 53.9289 21.6836C53.9875 21.4375 54.0637 21.1504 54.1574 20.8223C54.2395 20.4824 54.3273 20.125 54.4211 19.75C54.5148 19.375 54.6027 19.0176 54.6848 18.6777C54.7434 18.4082 54.8078 18.1094 54.8781 17.7812C54.9367 17.5 55.007 17.1719 55.0891 16.7969C55.1828 16.4219 55.2883 16.0117 55.4055 15.5664C55.4875 15.4961 55.5695 15.4434 55.6516 15.4082C55.7453 15.3613 55.8391 15.3262 55.9328 15.3027C56.0266 15.2676 56.1262 15.2441 56.2316 15.2324C56.3254 15.2324 56.4191 15.2383 56.5129 15.25C56.5949 15.2617 56.677 15.2852 56.759 15.3203C56.8527 15.3438 56.9348 15.3848 57.0051 15.4434C56.9699 15.5254 56.9289 15.6426 56.882 15.7949C56.8352 15.9355 56.7883 16.0879 56.7414 16.252C56.6945 16.4395 56.6359 16.6328 56.5656 16.832C56.718 16.6211 56.8879 16.4102 57.0754 16.1992C57.2746 15.9766 57.4855 15.7773 57.7082 15.6016C57.9426 15.4258 58.1887 15.2852 58.4465 15.1797C58.7043 15.0625 58.968 15.0039 59.2375 15.0039C59.4602 15.0039 59.6594 15.0684 59.8352 15.1973C60.0109 15.3262 60.1457 15.5078 60.2395 15.7422C60.3449 15.9648 60.4035 16.2344 60.4152 16.5508C60.4387 16.8672 60.3977 17.2129 60.2922 17.5879L60.0988 18.3613C60.0402 18.6074 59.9641 18.9004 59.8703 19.2402C59.7883 19.5684 59.6828 19.9316 59.5539 20.3301C59.4836 20.5879 59.4543 20.8105 59.466 20.998C59.4895 21.1855 59.6066 21.2793 59.8176 21.2793C60.0285 21.2793 60.2922 21.1504 60.6086 20.8926C60.9367 20.6348 61.2648 20.3242 61.593 19.9609C61.9211 19.5977 62.2316 19.2285 62.5246 18.8535C62.8176 18.4668 63.0402 18.1562 63.1926 17.9219C63.298 17.7695 63.3977 17.6699 63.4914 17.623C63.5852 17.5762 63.6555 17.5703 63.7023 17.6055C63.7609 17.6406 63.7902 17.7227 63.7902 17.8516C63.7902 17.9688 63.7434 18.1211 63.6496 18.3086C63.5676 18.4727 63.4387 18.6895 63.2629 18.959C63.0988 19.2285 62.8996 19.5156 62.6652 19.8203C62.4309 20.125 62.1789 20.4355 61.9094 20.752C61.6398 21.0566 61.3586 21.3379 61.0656 21.5957C60.7727 21.8418 60.4797 22.041 60.1867 22.1934C59.9055 22.3574 59.6359 22.4395 59.3781 22.4395ZM71.4895 18.502C71.3254 18.7363 71.1145 19.0293 70.8566 19.3809C70.5988 19.7207 70.3293 20.0664 70.048 20.418C69.7785 20.7578 69.509 21.0742 69.2395 21.3672C68.9816 21.6484 68.7648 21.8477 68.5891 21.9648C68.4719 22.0352 68.3371 22.0938 68.1848 22.1406C68.0324 22.1875 67.8742 22.2168 67.7102 22.2285C67.5578 22.2402 67.4113 22.2285 67.2707 22.1934C67.1301 22.1699 67.007 22.123 66.9016 22.0527C66.7961 21.9707 66.7082 21.8535 66.6379 21.7012C66.5793 21.5723 66.5207 21.4023 66.4621 21.1914C66.4152 20.9805 66.3977 20.7168 66.4094 20.4004C66.1281 20.8691 65.8176 21.2324 65.4777 21.4902C65.1379 21.7363 64.8156 21.918 64.5109 22.0352C64.1594 22.1641 63.8078 22.2402 63.4563 22.2637C63.2922 22.2637 63.1164 22.2051 62.9289 22.0879C62.7414 21.9824 62.5832 21.8125 62.4543 21.5781C62.3254 21.332 62.2434 21.0215 62.2082 20.6465C62.173 20.2598 62.2199 19.8027 62.3488 19.2754C62.5129 18.5605 62.7707 17.9102 63.1223 17.3242C63.4855 16.7383 63.8781 16.2402 64.3 15.8301C64.7219 15.4082 65.1379 15.0918 65.548 14.8809C65.9582 14.6699 66.298 14.5762 66.5676 14.5996C66.884 14.6582 67.1418 14.752 67.341 14.8809C67.5051 14.998 67.6105 15.1738 67.6574 15.4082C67.716 15.6309 67.6223 15.9297 67.3762 16.3047C67.5402 16.2695 67.675 16.2461 67.7805 16.2344C67.8977 16.2227 67.9855 16.2168 68.0441 16.2168C68.1145 16.2168 68.1613 16.2227 68.1848 16.2344C68.1965 16.2578 68.2023 16.3105 68.2023 16.3926C68.2023 16.4629 68.1848 16.5977 68.1496 16.7969C68.1145 16.9961 68.0617 17.2656 67.9914 17.6055C67.9211 17.9453 67.8273 18.3848 67.7102 18.9238C67.6867 19.0293 67.6633 19.1289 67.6398 19.2227C67.6281 19.3047 67.6105 19.3926 67.5871 19.4863C67.5754 19.5684 67.5578 19.668 67.5344 19.7852C67.5109 19.9023 67.4816 20.0488 67.4465 20.2246C67.4348 20.3301 67.4289 20.4473 67.4289 20.5762C67.4406 20.6934 67.4641 20.8047 67.4992 20.9102C67.5344 21.0156 67.5871 21.1035 67.6574 21.1738C67.7395 21.2324 67.8508 21.2617 67.9914 21.2617C68.1086 21.2617 68.2609 21.1914 68.4484 21.0508C68.6359 20.8984 68.8352 20.7109 69.0461 20.4883C69.257 20.2539 69.4738 20.002 69.6965 19.7324C69.9309 19.4512 70.1477 19.1816 70.3469 18.9238C70.5461 18.666 70.7219 18.4375 70.8742 18.2383C71.0383 18.0391 71.1555 17.8926 71.2258 17.7988C71.3195 17.6934 71.4133 17.6348 71.507 17.623C71.6008 17.5996 71.6711 17.623 71.718 17.6934C71.7648 17.7637 71.7707 17.8691 71.7355 18.0098C71.7121 18.1504 71.6301 18.3145 71.4895 18.502ZM66.3391 19.2754C66.3977 19.041 66.468 18.7656 66.55 18.4492C66.632 18.1328 66.7023 17.8281 66.7609 17.5352C66.8195 17.2422 66.8605 17.002 66.884 16.8145C66.9191 16.6152 66.9133 16.5215 66.8664 16.5332C66.8078 16.5449 66.7434 16.5625 66.673 16.5859C66.6145 16.6094 66.5383 16.627 66.4445 16.6387C66.3508 16.6504 66.257 16.668 66.1633 16.6914C66.257 16.5039 66.3098 16.3516 66.3215 16.2344C66.3449 16.1055 66.3508 16.0059 66.3391 15.9355C66.3273 15.8535 66.3039 15.7891 66.2688 15.7422C66.1398 15.6367 65.9113 15.7246 65.5832 16.0059C65.2668 16.2754 64.8977 16.7793 64.4758 17.5176C64.3 17.8223 64.1594 18.1504 64.0539 18.502C63.9484 18.8418 63.8723 19.1641 63.8254 19.4688C63.7902 19.7734 63.7844 20.043 63.8078 20.2773C63.8313 20.5 63.8781 20.6465 63.9484 20.7168C64.0773 20.8457 64.2238 20.9102 64.3879 20.9102C64.552 20.8984 64.716 20.8516 64.8801 20.7695C65.0559 20.6758 65.2258 20.5586 65.3898 20.418C65.5656 20.2773 65.718 20.1309 65.8469 19.9785C65.9875 19.8262 66.0988 19.6855 66.1809 19.5566C66.2746 19.4277 66.3273 19.334 66.3391 19.2754ZM69.6438 21.9121C69.5617 22.041 69.4738 22.123 69.3801 22.1582C69.2746 22.2051 69.1867 22.2109 69.1164 22.1758C69.0344 22.1523 68.9816 22.0938 68.9582 22C68.9348 21.9062 68.9582 21.7891 69.0285 21.6484C69.0637 21.5781 69.1457 21.4199 69.2746 21.1738C69.3918 20.9277 69.5383 20.6348 69.7141 20.2949C69.8781 19.9434 70.0598 19.5684 70.259 19.1699C70.4582 18.7598 70.6457 18.373 70.8215 18.0098C71.009 17.6465 71.1789 17.3242 71.3313 17.043C71.4836 16.75 71.5949 16.5391 71.6652 16.4102C71.5363 16.293 71.4484 16.2109 71.4016 16.1641C71.3547 16.1055 71.3195 15.9883 71.2961 15.8125C71.2727 15.6602 71.3078 15.4609 71.4016 15.2148C71.4953 14.9688 71.6184 14.7344 71.7707 14.5117C71.923 14.2773 72.093 14.0781 72.2805 13.9141C72.468 13.75 72.6496 13.668 72.8254 13.668C73.1535 13.668 73.382 13.7734 73.5109 13.9844C73.6516 14.1953 73.7336 14.4121 73.757 14.6348C73.7805 14.7871 73.7688 14.9805 73.7219 15.2148C73.675 15.4492 73.5871 15.6602 73.4582 15.8477C73.4934 15.8711 73.5402 15.9004 73.5988 15.9355C73.6574 15.959 73.7512 15.9707 73.8801 15.9707C74.0676 15.9707 74.1965 15.959 74.2668 15.9355C74.3488 15.9121 74.4719 15.9004 74.6359 15.9004C74.8352 15.9004 74.9992 15.9531 75.1281 16.0586C75.257 16.1523 75.3625 16.2754 75.4445 16.4277C75.5266 16.5684 75.5852 16.7266 75.6203 16.9023C75.6672 17.0664 75.6965 17.2188 75.7082 17.3594C75.7434 17.6523 75.6672 17.957 75.4797 18.2734C75.2922 18.5898 75.0637 18.9355 74.7941 19.3105C74.6301 19.5449 74.466 19.8086 74.302 20.1016C74.1379 20.3945 74.0676 20.6582 74.091 20.8926C74.1145 21.0449 74.1555 21.168 74.2141 21.2617C74.2727 21.3555 74.4367 21.4023 74.7063 21.4023C74.9055 21.4023 75.1223 21.332 75.3566 21.1914C75.6027 21.0391 75.8488 20.8516 76.0949 20.6289C76.3527 20.3945 76.6047 20.1426 76.8508 19.873C77.0969 19.5918 77.3254 19.3223 77.5363 19.0645C77.7473 18.7949 77.923 18.5547 78.0637 18.3438C78.216 18.1328 78.3273 17.9805 78.3977 17.8867C78.4563 17.793 78.5324 17.7285 78.6262 17.6934C78.7199 17.6582 78.802 17.6582 78.8723 17.6934C78.9426 17.7285 78.9836 17.7988 78.9953 17.9043C79.0188 18.0098 78.9777 18.1504 78.8723 18.3262C78.802 18.4434 78.6789 18.6309 78.5031 18.8887C78.3391 19.1465 78.134 19.4336 77.8879 19.75C77.6535 20.0664 77.3898 20.3945 77.0969 20.7344C76.8039 21.0625 76.4934 21.3672 76.1652 21.6484C75.8488 21.918 75.5266 22.1406 75.1984 22.3164C74.882 22.4922 74.5773 22.5801 74.2844 22.5801C73.9797 22.5801 73.7277 22.5215 73.5285 22.4043C73.3293 22.2871 73.1652 22.1465 73.0363 21.9824C72.9191 21.8066 72.8313 21.6191 72.7727 21.4199C72.7258 21.209 72.7082 21.0156 72.7199 20.8398C72.7316 20.6992 72.7668 20.5527 72.8254 20.4004C72.8957 20.2363 72.9719 20.0723 73.0539 19.9082C73.1477 19.7324 73.2414 19.5625 73.3352 19.3984C73.4406 19.2227 73.5344 19.0527 73.6164 18.8887C73.8156 18.5488 73.9738 18.2617 74.091 18.0273C74.2199 17.7812 74.2844 17.5762 74.2844 17.4121C74.2844 17.3066 74.2609 17.2129 74.2141 17.1309C74.1672 17.0488 74.091 17.0078 73.9855 17.0078C73.9152 17.0078 73.8625 17.0137 73.8273 17.0254C73.8039 17.0254 73.7746 17.0254 73.7395 17.0254C73.716 17.0254 73.675 17.0312 73.6164 17.043C73.5695 17.043 73.4934 17.043 73.3879 17.043C73.2355 17.043 73.1066 17.0195 73.0012 16.9727C72.8957 16.9258 72.7961 16.8906 72.7023 16.8672C72.6555 16.9492 72.55 17.125 72.3859 17.3945C72.2219 17.6641 72.0285 17.9805 71.8059 18.3438C71.5949 18.707 71.3664 19.0879 71.1203 19.4863C70.8859 19.8848 70.6633 20.2598 70.4523 20.6113C70.2414 20.9512 70.0656 21.2441 69.925 21.4902C69.7727 21.7246 69.6789 21.8652 69.6438 21.9121ZM82.0012 21.9121C81.9191 22.041 81.8313 22.123 81.7375 22.1582C81.632 22.2051 81.5441 22.2109 81.4738 22.1758C81.3918 22.1523 81.3391 22.0938 81.3156 22C81.2922 21.9062 81.3156 21.7891 81.3859 21.6484C81.4211 21.5781 81.5031 21.4199 81.632 21.1738C81.7492 20.9277 81.8957 20.6348 82.0715 20.2949C82.2355 19.9434 82.4172 19.5684 82.6164 19.1699C82.8156 18.7598 83.0031 18.373 83.1789 18.0098C83.3664 17.6465 83.5363 17.3242 83.6887 17.043C83.841 16.75 83.9523 16.5391 84.0227 16.4102C83.8938 16.293 83.8059 16.2109 83.759 16.1641C83.7121 16.1055 83.677 15.9883 83.6535 15.8125C83.6301 15.6602 83.6652 15.4609 83.759 15.2148C83.8527 14.9688 83.9758 14.7344 84.1281 14.5117C84.2805 14.2773 84.4504 14.0781 84.6379 13.9141C84.8254 13.75 85.007 13.668 85.1828 13.668C85.5109 13.668 85.7395 13.7734 85.8684 13.9844C86.009 14.1953 86.091 14.4121 86.1145 14.6348C86.1379 14.7871 86.1262 14.9805 86.0793 15.2148C86.0324 15.4492 85.9445 15.6602 85.8156 15.8477C85.8508 15.8711 85.8977 15.9004 85.9563 15.9355C86.0148 15.959 86.1086 15.9707 86.2375 15.9707C86.425 15.9707 86.5539 15.959 86.6242 15.9355C86.7063 15.9121 86.8293 15.9004 86.9934 15.9004C87.1926 15.9004 87.3566 15.9531 87.4855 16.0586C87.6145 16.1523 87.7199 16.2754 87.802 16.4277C87.884 16.5684 87.9426 16.7266 87.9777 16.9023C88.0246 17.0664 88.0539 17.2188 88.0656 17.3594C88.1008 17.6523 88.0246 17.957 87.8371 18.2734C87.6496 18.5898 87.4211 18.9355 87.1516 19.3105C86.9875 19.5449 86.8234 19.8086 86.6594 20.1016C86.4953 20.3945 86.425 20.6582 86.4484 20.8926C86.4719 21.0449 86.5129 21.168 86.5715 21.2617C86.6301 21.3555 86.7941 21.4023 87.0637 21.4023C87.2629 21.4023 87.4797 21.332 87.7141 21.1914C87.9602 21.0391 88.2063 20.8516 88.4523 20.6289C88.7102 20.3945 88.9621 20.1426 89.2082 19.873C89.4543 19.5918 89.6828 19.3223 89.8938 19.0645C90.1047 18.7949 90.2805 18.5547 90.4211 18.3438C90.5734 18.1328 90.6848 17.9805 90.7551 17.8867C90.8137 17.793 90.8898 17.7285 90.9836 17.6934C91.0773 17.6582 91.1594 17.6582 91.2297 17.6934C91.3 17.7285 91.341 17.7988 91.3527 17.9043C91.3762 18.0098 91.3352 18.1504 91.2297 18.3262C91.1594 18.4434 91.0363 18.6309 90.8605 18.8887C90.6965 19.1465 90.4914 19.4336 90.2453 19.75C90.0109 20.0664 89.7473 20.3945 89.4543 20.7344C89.1613 21.0625 88.8508 21.3672 88.5227 21.6484C88.2063 21.918 87.884 22.1406 87.5559 22.3164C87.2395 22.4922 86.9348 22.5801 86.6418 22.5801C86.3371 22.5801 86.0852 22.5215 85.8859 22.4043C85.6867 22.2871 85.5227 22.1465 85.3938 21.9824C85.2766 21.8066 85.1887 21.6191 85.1301 21.4199C85.0832 21.209 85.0656 21.0156 85.0773 20.8398C85.0891 20.6992 85.1242 20.5527 85.1828 20.4004C85.2531 20.2363 85.3293 20.0723 85.4113 19.9082C85.5051 19.7324 85.5988 19.5625 85.6926 19.3984C85.798 19.2227 85.8918 19.0527 85.9738 18.8887C86.173 18.5488 86.3313 18.2617 86.4484 18.0273C86.5773 17.7812 86.6418 17.5762 86.6418 17.4121C86.6418 17.3066 86.6184 17.2129 86.5715 17.1309C86.5246 17.0488 86.4484 17.0078 86.343 17.0078C86.2727 17.0078 86.2199 17.0137 86.1848 17.0254C86.1613 17.0254 86.132 17.0254 86.0969 17.0254C86.0734 17.0254 86.0324 17.0312 85.9738 17.043C85.927 17.043 85.8508 17.043 85.7453 17.043C85.593 17.043 85.4641 17.0195 85.3586 16.9727C85.2531 16.9258 85.1535 16.8906 85.0598 16.8672C85.0129 16.9492 84.9074 17.125 84.7434 17.3945C84.5793 17.6641 84.3859 17.9805 84.1633 18.3438C83.9523 18.707 83.7238 19.0879 83.4777 19.4863C83.2434 19.8848 83.0207 20.2598 82.8098 20.6113C82.5988 20.9512 82.423 21.2441 82.2824 21.4902C82.1301 21.7246 82.0363 21.8652 82.0012 21.9121ZM97.9445 18.3438C97.593 18.8594 97.1945 19.3633 96.7492 19.8555C96.3039 20.3359 95.8293 20.7695 95.3254 21.1562C94.8332 21.5312 94.3234 21.8359 93.7961 22.0703C93.2805 22.3047 92.7766 22.4219 92.2844 22.4219C92.0266 22.4219 91.7453 22.3574 91.4406 22.2285C91.1477 22.1113 90.8781 21.9238 90.632 21.666C90.3859 21.4082 90.1867 21.0742 90.0344 20.6641C89.8938 20.2539 89.8527 19.7559 89.9113 19.1699C89.9582 18.6895 90.1047 18.1855 90.3508 17.6582C90.6086 17.1191 90.9191 16.627 91.2824 16.1816C91.6574 15.7363 92.0734 15.3672 92.5305 15.0742C92.9992 14.7812 93.468 14.6348 93.9367 14.6348C94.382 14.6348 94.7043 14.7461 94.9035 14.9688C95.1027 15.1914 95.1906 15.4668 95.1672 15.7949C95.132 16.1582 95.0266 16.4922 94.8508 16.7969C94.6867 17.1016 94.4875 17.377 94.2531 17.623C94.0188 17.8691 93.7668 18.0918 93.4973 18.291C93.2395 18.4902 92.9934 18.6719 92.759 18.8359C92.5012 19.0117 92.2551 19.1816 92.0207 19.3457C91.7863 19.498 91.5813 19.6387 91.4055 19.7676C91.4172 20.0605 91.4699 20.3066 91.5637 20.5059C91.6574 20.7051 91.7746 20.8691 91.9152 20.998C92.0559 21.1152 92.2141 21.2031 92.3898 21.2617C92.5773 21.3086 92.7648 21.332 92.9523 21.332C93.3508 21.332 93.7668 21.209 94.2004 20.9629C94.634 20.7051 95.0559 20.4004 95.466 20.0488C95.8879 19.6855 96.2746 19.3105 96.6262 18.9238C96.9895 18.5371 97.2883 18.2031 97.5227 17.9219C97.6047 17.8281 97.6867 17.7754 97.7688 17.7637C97.8625 17.7402 97.9328 17.752 97.9797 17.7988C98.0383 17.834 98.0676 17.9043 98.0676 18.0098C98.0676 18.1035 98.0266 18.2148 97.9445 18.3438ZM93.4445 15.6367C93.3039 15.6367 93.134 15.707 92.9348 15.8477C92.7473 15.9883 92.5598 16.1934 92.3723 16.4629C92.1848 16.7207 92.009 17.043 91.8449 17.4297C91.6809 17.8047 91.5578 18.2383 91.4758 18.7305C91.6164 18.625 91.7688 18.5195 91.9328 18.4141C92.0969 18.2969 92.2609 18.1738 92.425 18.0449C92.9289 17.6582 93.2805 17.3184 93.4797 17.0254C93.6789 16.7324 93.7902 16.4805 93.8137 16.2695C93.8371 16.0469 93.8137 15.8887 93.7434 15.7949C93.673 15.6895 93.5734 15.6367 93.4445 15.6367ZM95.4133 29.5059C95.3313 29.4707 95.2492 29.418 95.1672 29.3477C95.0969 29.2891 95.0266 29.2129 94.9563 29.1191C94.8859 29.0371 94.8273 28.9316 94.7805 28.8027C95.1086 27.5488 95.3898 26.459 95.6242 25.5332C95.8469 24.6074 96.0402 23.834 96.2043 23.2129C96.3801 22.4863 96.5324 21.877 96.6613 21.3848C96.7785 20.916 96.8957 20.4473 97.0129 19.9785C97.1066 19.5684 97.2063 19.1289 97.3117 18.6602C97.4289 18.1914 97.5344 17.752 97.6281 17.3418C97.7453 16.8848 97.8156 16.5215 97.8391 16.252C97.8625 15.9707 97.7746 15.7305 97.5754 15.5312C97.716 15.4141 97.8566 15.3262 97.9973 15.2676C98.1496 15.1973 98.2844 15.1504 98.4016 15.127C98.5305 15.0918 98.6594 15.0801 98.7883 15.0918C99.1047 15.1152 99.298 15.2148 99.3684 15.3906C99.4504 15.5664 99.4621 15.8477 99.4035 16.2344C99.3918 16.293 99.3801 16.3457 99.3684 16.3926C99.3684 16.4277 99.3684 16.4688 99.3684 16.5156C99.5324 16.3281 99.7141 16.1465 99.9133 15.9707C100.113 15.7949 100.312 15.6367 100.511 15.4961C100.722 15.3555 100.933 15.2441 101.144 15.1621C101.366 15.0684 101.577 15.0215 101.777 15.0215C102.046 15.0215 102.263 15.0918 102.427 15.2324C102.603 15.3613 102.738 15.5371 102.831 15.7598C102.925 15.9824 102.984 16.2344 103.007 16.5156C103.03 16.7852 103.036 17.0547 103.025 17.3242C103.013 17.6172 102.96 17.9277 102.866 18.2559C102.784 18.584 102.667 18.918 102.515 19.2578C102.363 19.5977 102.187 19.9316 101.988 20.2598C101.788 20.5879 101.577 20.8926 101.355 21.1738C101.402 21.1855 101.431 21.1973 101.443 21.209C101.454 21.209 101.46 21.2148 101.46 21.2266C101.46 21.2266 101.466 21.2324 101.478 21.2441C101.501 21.2441 101.542 21.2441 101.601 21.2441C101.87 21.2441 102.146 21.1738 102.427 21.0332C102.708 20.8926 102.984 20.7168 103.253 20.5059C103.523 20.2832 103.78 20.043 104.027 19.7852C104.284 19.5273 104.513 19.2812 104.712 19.0469C104.923 18.8008 105.099 18.584 105.239 18.3965C105.38 18.1973 105.486 18.0566 105.556 17.9746C105.65 17.8574 105.738 17.7812 105.82 17.7461C105.902 17.6992 105.966 17.6934 106.013 17.7285C106.06 17.7637 106.083 17.834 106.083 17.9395C106.083 18.0332 106.048 18.1562 105.978 18.3086C105.931 18.4141 105.831 18.584 105.679 18.8184C105.527 19.0527 105.339 19.3164 105.116 19.6094C104.894 19.9023 104.636 20.207 104.343 20.5234C104.062 20.8398 103.763 21.127 103.446 21.3848C103.13 21.6426 102.802 21.8535 102.462 22.0176C102.134 22.1934 101.812 22.2812 101.495 22.2812C101.343 22.2812 101.22 22.2754 101.126 22.2637C101.032 22.252 100.95 22.2285 100.88 22.1934C100.821 22.1699 100.763 22.1406 100.704 22.1055C100.646 22.082 100.575 22.0527 100.493 22.0176C100.282 22.1816 100.066 22.3047 99.843 22.3867C99.6203 22.4805 99.4035 22.5273 99.1926 22.5273C98.9934 22.5273 98.8176 22.4922 98.6652 22.4219C98.5246 22.3633 98.4074 22.2754 98.3137 22.1582C98.2199 22.0527 98.1438 21.9355 98.0852 21.8066C98.0266 21.666 97.9797 21.5312 97.9445 21.4023C97.9328 21.4492 97.9211 21.4902 97.9094 21.5254C97.9094 21.5605 97.9035 21.6074 97.8918 21.666C97.7512 22.2285 97.6047 22.8789 97.4523 23.6172C97.3234 24.25 97.1652 25.0176 96.9777 25.9199C96.802 26.834 96.6145 27.8711 96.4152 29.0312C96.3449 29.3477 96.2219 29.5293 96.0461 29.5762C95.8586 29.623 95.6477 29.5996 95.4133 29.5059ZM98.6301 18.6074C98.5715 18.8066 98.507 19.041 98.4367 19.3105C98.3781 19.5684 98.3078 19.8789 98.2258 20.2422C98.3195 20.1719 98.425 20.1191 98.5422 20.084C98.6594 20.0488 98.7766 20.0312 98.8938 20.0312C99.0227 20.0312 99.1867 20.1016 99.3859 20.2422C99.5852 20.3711 99.8254 20.5117 100.107 20.6641C100.282 20.4531 100.464 20.2188 100.652 19.9609C100.851 19.6914 101.027 19.416 101.179 19.1348C101.343 18.8535 101.478 18.5664 101.583 18.2734C101.7 17.9805 101.765 17.6992 101.777 17.4297C101.8 17.0781 101.759 16.8027 101.654 16.6035C101.548 16.4043 101.372 16.3047 101.126 16.3047C100.763 16.3047 100.364 16.5215 99.9309 16.9551C99.509 17.377 99.0754 17.9277 98.6301 18.6074ZM110.003 19.2051C109.886 19.6504 109.728 20.0664 109.529 20.4531C109.329 20.8398 109.089 21.1738 108.808 21.4551C108.538 21.7363 108.228 21.9531 107.876 22.1055C107.536 22.2695 107.161 22.3516 106.751 22.3516C106.271 22.3516 105.89 22.2461 105.609 22.0352C105.339 21.8359 105.134 21.584 104.993 21.2793C104.864 20.9746 104.788 20.6406 104.765 20.2773C104.73 19.9141 104.712 19.5742 104.712 19.2578C104.712 19.0352 104.741 18.7891 104.8 18.5195C104.847 18.25 104.917 17.9746 105.011 17.6934C105.105 17.4121 105.222 17.1309 105.363 16.8496C105.515 16.5684 105.691 16.3105 105.89 16.0762C105.96 15.877 106.066 15.7012 106.206 15.5488C106.359 15.3965 106.529 15.2734 106.716 15.1797C106.915 15.0742 107.126 14.998 107.349 14.9512C107.571 14.8926 107.788 14.8633 107.999 14.8633C108.034 14.8633 108.064 14.8691 108.087 14.8809C108.122 14.8926 108.157 14.9043 108.193 14.916C108.345 14.9277 108.532 14.9863 108.755 15.0918C108.989 15.1973 109.212 15.3555 109.423 15.5664C109.646 15.7773 109.833 16.0469 109.986 16.375C110.138 16.6914 110.214 17.0781 110.214 17.5352C110.214 17.6289 110.208 17.7461 110.196 17.8867C110.185 18.0156 110.173 18.127 110.161 18.2207C110.431 18.1152 110.712 17.9863 111.005 17.834C111.298 17.6816 111.579 17.5234 111.849 17.3594C112.13 17.1836 112.388 17.0078 112.622 16.832C112.857 16.6562 113.044 16.498 113.185 16.3574C113.302 16.252 113.402 16.1934 113.484 16.1816C113.566 16.1699 113.624 16.1934 113.659 16.252C113.695 16.3105 113.7 16.3926 113.677 16.498C113.654 16.6035 113.589 16.7207 113.484 16.8496C113.425 16.9199 113.273 17.0605 113.027 17.2715C112.792 17.4824 112.511 17.7109 112.183 17.957C111.855 18.2031 111.497 18.4434 111.111 18.6777C110.724 18.9121 110.355 19.0879 110.003 19.2051ZM107.032 16.5332C106.997 16.6387 106.98 16.75 106.98 16.8672C106.98 17.0547 106.991 17.2539 107.015 17.4648C107.038 17.6641 107.097 17.8457 107.191 18.0098C107.284 18.1738 107.431 18.3145 107.63 18.4316C107.841 18.5371 108.128 18.5898 108.491 18.5898C108.55 18.5898 108.609 18.5898 108.667 18.5898C108.726 18.5781 108.784 18.5664 108.843 18.5547C108.878 18.4023 108.907 18.2676 108.931 18.1504C108.966 18.0215 108.984 17.9102 108.984 17.8164C109.007 17.5938 109.007 17.3652 108.984 17.1309C108.96 16.8965 108.913 16.6855 108.843 16.498C108.784 16.2988 108.702 16.1406 108.597 16.0234C108.503 15.8945 108.386 15.8301 108.245 15.8301C108.023 15.8301 107.806 15.8945 107.595 16.0234C107.396 16.1406 107.208 16.3105 107.032 16.5332ZM105.907 19.627C105.907 19.8379 105.919 20.0488 105.943 20.2598C105.966 20.459 106.013 20.6406 106.083 20.8047C106.154 20.957 106.247 21.0859 106.364 21.1914C106.482 21.2852 106.634 21.332 106.821 21.332C107.032 21.332 107.226 21.2852 107.402 21.1914C107.577 21.0859 107.736 20.957 107.876 20.8047C108.017 20.6406 108.14 20.459 108.245 20.2598C108.363 20.0488 108.462 19.832 108.544 19.6094C108.462 19.6211 108.38 19.6328 108.298 19.6445C108.228 19.6445 108.146 19.6445 108.052 19.6445C107.607 19.6445 107.22 19.5156 106.892 19.2578C106.575 18.9883 106.329 18.6484 106.154 18.2383C106.083 18.4844 106.025 18.7246 105.978 18.959C105.931 19.1934 105.907 19.416 105.907 19.627ZM114.363 21.4023C114.433 21.4492 114.521 21.4727 114.626 21.4727C114.743 21.4727 114.855 21.4492 114.96 21.4023C115.077 21.3555 115.183 21.291 115.277 21.209C115.382 21.127 115.458 21.0215 115.505 20.8926C115.552 20.7637 115.552 20.582 115.505 20.3477C115.458 20.1016 115.382 19.8438 115.277 19.5742C115.183 19.293 115.077 19.0117 114.96 18.7305C114.843 18.4492 114.743 18.1914 114.661 17.957C114.591 17.7812 114.532 17.6172 114.486 17.4648C114.439 17.3359 114.392 17.2129 114.345 17.0957C114.31 16.9668 114.28 16.8789 114.257 16.832C114.198 16.9258 114.093 17.0781 113.941 17.2891C113.8 17.5 113.642 17.7227 113.466 17.957C113.302 18.1797 113.144 18.3906 112.991 18.5898C112.839 18.7773 112.734 18.9062 112.675 18.9766C112.581 19.082 112.488 19.1465 112.394 19.1699C112.312 19.1816 112.241 19.1641 112.183 19.1172C112.124 19.0586 112.089 18.9824 112.077 18.8887C112.077 18.7832 112.124 18.6602 112.218 18.5195C112.288 18.4258 112.394 18.2793 112.534 18.0801C112.675 17.8691 112.816 17.6582 112.956 17.4473C113.097 17.2246 113.226 17.0312 113.343 16.8672C113.46 16.6914 113.525 16.5859 113.536 16.5508C113.56 16.457 113.525 16.334 113.431 16.1816C113.349 16.0293 113.337 15.8535 113.396 15.6543C113.443 15.4902 113.548 15.3027 113.712 15.0918C113.876 14.8691 114.07 14.6699 114.292 14.4941C114.515 14.3184 114.743 14.1895 114.978 14.1074C115.212 14.0137 115.423 14.0137 115.611 14.1074C115.763 14.2012 115.886 14.3066 115.98 14.4238C116.073 14.5293 116.109 14.6406 116.085 14.7578C116.062 14.8164 116.027 14.8926 115.98 14.9863C115.933 15.0801 115.863 15.1973 115.769 15.3379C115.675 15.4668 115.54 15.6367 115.364 15.8477C115.4 16.1172 115.446 16.3633 115.505 16.5859C115.575 16.8086 115.64 17.002 115.698 17.166C115.769 17.3652 115.845 17.5469 115.927 17.7109C116.032 17.9219 116.144 18.1387 116.261 18.3613C116.378 18.584 116.484 18.8066 116.577 19.0293C116.671 19.2402 116.747 19.4395 116.806 19.627C116.864 19.8145 116.882 19.9727 116.859 20.1016C116.823 20.3008 116.718 20.541 116.542 20.8223C116.378 21.1035 116.167 21.3789 115.909 21.6484C115.663 21.9062 115.376 22.1289 115.048 22.3164C114.732 22.5039 114.398 22.5977 114.046 22.5977C113.8 22.5977 113.56 22.5215 113.325 22.3691C113.103 22.2168 112.909 22.041 112.745 21.8418C112.593 21.6309 112.476 21.4258 112.394 21.2266C112.323 21.0273 112.318 20.875 112.376 20.7695C112.446 20.6289 112.511 20.5176 112.57 20.4355C112.628 20.3535 112.716 20.2598 112.833 20.1543C112.88 20.1191 112.939 20.0781 113.009 20.0312C113.068 19.9961 113.15 19.9609 113.255 19.9258C113.361 19.8906 113.484 19.8496 113.624 19.8027C113.741 20.166 113.847 20.4531 113.941 20.6641C114.034 20.8633 114.111 21.0215 114.169 21.1387C114.239 21.2676 114.304 21.3555 114.363 21.4023ZM122.079 11.6465C122.044 11.7754 121.974 11.9043 121.868 12.0332C121.775 12.1504 121.663 12.25 121.534 12.332C121.417 12.4023 121.294 12.4492 121.165 12.4727C121.036 12.4961 120.931 12.4727 120.849 12.4023C120.603 12.2148 120.474 12.0156 120.462 11.8047C120.45 11.582 120.503 11.377 120.62 11.1895C120.738 10.9902 120.884 10.8262 121.06 10.6973C121.236 10.5566 121.388 10.4746 121.517 10.4512C121.646 10.4277 121.751 10.457 121.833 10.5391C121.927 10.6094 121.997 10.709 122.044 10.8379C122.091 10.9551 122.114 11.0898 122.114 11.2422C122.126 11.3945 122.114 11.5293 122.079 11.6465ZM119.654 15.3906C119.712 15.3203 119.823 15.2617 119.988 15.2148C120.152 15.168 120.321 15.1328 120.497 15.1094C120.673 15.0742 120.831 15.0566 120.972 15.0566C121.124 15.0449 121.212 15.0449 121.236 15.0566C121.247 15.0684 121.218 15.1914 121.148 15.4258C121.077 15.6602 120.989 15.9355 120.884 16.252C120.779 16.5684 120.667 16.8965 120.55 17.2363C120.433 17.5645 120.345 17.834 120.286 18.0449C120.228 18.2559 120.157 18.4961 120.075 18.7656C119.993 19.0234 119.917 19.2812 119.847 19.5391C119.788 19.7852 119.747 20.0195 119.724 20.2422C119.7 20.4648 119.718 20.6348 119.777 20.752C119.835 20.8926 119.9 20.9922 119.97 21.0508C120.04 21.0977 120.116 21.1211 120.198 21.1211C120.433 21.1211 120.726 20.9922 121.077 20.7344C121.441 20.4766 121.804 20.1719 122.167 19.8203C122.542 19.457 122.888 19.0938 123.204 18.7305C123.521 18.3555 123.755 18.0566 123.907 17.834C124.001 17.7168 124.095 17.6406 124.189 17.6055C124.294 17.5703 124.376 17.5762 124.435 17.623C124.505 17.6699 124.54 17.7461 124.54 17.8516C124.552 17.957 124.517 18.0801 124.435 18.2207C124.247 18.5488 123.972 18.9414 123.609 19.3984C123.245 19.8438 122.859 20.2773 122.448 20.6992C122.038 21.1094 121.634 21.4609 121.236 21.7539C120.849 22.0469 120.532 22.1992 120.286 22.2109C120.087 22.2227 119.888 22.1875 119.689 22.1055C119.501 22.0352 119.325 21.9355 119.161 21.8066C119.009 21.666 118.88 21.5078 118.775 21.332C118.669 21.1445 118.611 20.9512 118.599 20.752C118.564 20.459 118.564 20.0605 118.599 19.5566C118.634 19.041 118.698 18.5195 118.792 17.9922C118.886 17.4531 119.003 16.9434 119.144 16.4629C119.296 15.9824 119.466 15.625 119.654 15.3906ZM129.638 17.5527C129.685 17.4824 129.743 17.4414 129.814 17.4297C129.896 17.4062 129.96 17.4121 130.007 17.4473C130.054 17.4824 130.077 17.541 130.077 17.623C130.089 17.7051 130.06 17.8164 129.989 17.957C129.755 18.4023 129.445 18.8828 129.058 19.3984C128.683 19.9141 128.284 20.4004 127.863 20.8574C127.441 21.3027 127.03 21.6719 126.632 21.9648C126.234 22.2578 125.9 22.4043 125.63 22.4043C125.243 22.4043 124.921 22.3281 124.663 22.1758C124.405 22.0234 124.2 21.8359 124.048 21.6133C123.907 21.3906 123.808 21.1504 123.749 20.8926C123.691 20.623 123.673 20.377 123.696 20.1543C123.708 19.9668 123.749 19.6328 123.82 19.1523C123.89 18.6602 123.984 18.0977 124.101 17.4648C124.218 16.8203 124.347 16.1348 124.488 15.4082C124.64 14.6699 124.798 13.9609 124.962 13.2812C124.763 13.3047 124.564 13.3281 124.364 13.3516C124.165 13.375 123.984 13.3867 123.82 13.3867C123.445 13.3867 123.093 13.3457 122.765 13.2637C122.425 13.1699 122.173 13.082 122.009 13C121.915 12.9531 121.874 12.8887 121.886 12.8066C121.898 12.7129 121.933 12.625 121.991 12.543C122.05 12.4492 122.126 12.373 122.22 12.3145C122.302 12.2441 122.378 12.209 122.448 12.209C122.671 12.2324 122.911 12.2559 123.169 12.2793C123.427 12.291 123.708 12.291 124.013 12.2793C124.236 12.2676 124.446 12.25 124.646 12.2266C124.857 12.2031 125.062 12.1738 125.261 12.1387C125.413 11.5762 125.56 11.0898 125.7 10.6797C125.853 10.2578 125.988 9.96484 126.105 9.80078C126.14 9.74219 126.216 9.69531 126.333 9.66016C126.462 9.61328 126.597 9.58398 126.738 9.57227C126.878 9.54883 127.013 9.54883 127.142 9.57227C127.271 9.58398 127.364 9.625 127.423 9.69531C127.482 9.78906 127.505 10.0293 127.493 10.416C127.482 10.8027 127.417 11.2949 127.3 11.8926C127.792 11.8926 128.226 11.9219 128.601 11.9805C128.988 12.0273 129.316 12.0859 129.585 12.1562C129.855 12.2148 130.071 12.2793 130.236 12.3496C130.4 12.4082 130.523 12.4492 130.605 12.4727C130.687 12.4961 130.728 12.5547 130.728 12.6484C130.739 12.7422 130.722 12.8418 130.675 12.9473C130.64 13.041 130.575 13.123 130.482 13.1934C130.388 13.2637 130.282 13.2871 130.165 13.2637C130.048 13.252 129.913 13.2285 129.761 13.1934C129.62 13.1582 129.445 13.1289 129.234 13.1055C129.034 13.082 128.794 13.0586 128.513 13.0352C128.232 13.0117 127.904 13 127.529 13C127.458 13 127.376 13.0059 127.282 13.0176C127.2 13.0176 127.113 13.0176 127.019 13.0176C126.972 13.2051 126.925 13.3926 126.878 13.5801C126.843 13.7559 126.79 13.9434 126.72 14.1426C126.568 14.6113 126.392 15.1211 126.193 15.6719C126.017 16.1523 125.806 16.7031 125.56 17.3242C125.314 17.9453 125.038 18.6074 124.734 19.3105C124.663 19.8145 124.669 20.2012 124.751 20.4707C124.845 20.7285 124.956 20.916 125.085 21.0332C125.238 21.1621 125.425 21.2324 125.648 21.2441C125.823 21.2676 126.034 21.209 126.28 21.0684C126.538 20.916 126.802 20.7168 127.071 20.4707C127.341 20.2246 127.611 19.9551 127.88 19.6621C128.161 19.3691 128.419 19.082 128.654 18.8008C128.888 18.5195 129.093 18.2676 129.269 18.0449C129.445 17.8105 129.568 17.6465 129.638 17.5527ZM133.786 19.2051C133.669 19.6504 133.511 20.0664 133.312 20.4531C133.113 20.8398 132.872 21.1738 132.591 21.4551C132.321 21.7363 132.011 21.9531 131.659 22.1055C131.32 22.2695 130.945 22.3516 130.534 22.3516C130.054 22.3516 129.673 22.2461 129.392 22.0352C129.122 21.8359 128.917 21.584 128.777 21.2793C128.648 20.9746 128.571 20.6406 128.548 20.2773C128.513 19.9141 128.495 19.5742 128.495 19.2578C128.495 19.0352 128.525 18.7891 128.583 18.5195C128.63 18.25 128.7 17.9746 128.794 17.6934C128.888 17.4121 129.005 17.1309 129.146 16.8496C129.298 16.5684 129.474 16.3105 129.673 16.0762C129.743 15.877 129.849 15.7012 129.989 15.5488C130.142 15.3965 130.312 15.2734 130.499 15.1797C130.698 15.0742 130.909 14.998 131.132 14.9512C131.355 14.8926 131.571 14.8633 131.782 14.8633C131.818 14.8633 131.847 14.8691 131.87 14.8809C131.905 14.8926 131.941 14.9043 131.976 14.916C132.128 14.9277 132.316 14.9863 132.538 15.0918C132.773 15.1973 132.995 15.3555 133.206 15.5664C133.429 15.7773 133.616 16.0469 133.769 16.375C133.921 16.6914 133.997 17.0781 133.997 17.5352C133.997 17.6289 133.991 17.7461 133.98 17.8867C133.968 18.0156 133.956 18.127 133.945 18.2207C134.214 18.1152 134.495 17.9863 134.788 17.834C135.081 17.6816 135.363 17.5234 135.632 17.3594C135.913 17.1836 136.171 17.0078 136.405 16.832C136.64 16.6562 136.827 16.498 136.968 16.3574C137.085 16.252 137.185 16.1934 137.267 16.1816C137.349 16.1699 137.407 16.1934 137.443 16.252C137.478 16.3105 137.484 16.3926 137.46 16.498C137.437 16.6035 137.372 16.7207 137.267 16.8496C137.208 16.9199 137.056 17.0605 136.81 17.2715C136.575 17.4824 136.294 17.7109 135.966 17.957C135.638 18.2031 135.28 18.4434 134.894 18.6777C134.507 18.9121 134.138 19.0879 133.786 19.2051ZM130.816 16.5332C130.78 16.6387 130.763 16.75 130.763 16.8672C130.763 17.0547 130.775 17.2539 130.798 17.4648C130.821 17.6641 130.88 17.8457 130.974 18.0098C131.068 18.1738 131.214 18.3145 131.413 18.4316C131.624 18.5371 131.911 18.5898 132.275 18.5898C132.333 18.5898 132.392 18.5898 132.45 18.5898C132.509 18.5781 132.568 18.5664 132.626 18.5547C132.661 18.4023 132.691 18.2676 132.714 18.1504C132.749 18.0215 132.767 17.9102 132.767 17.8164C132.79 17.5938 132.79 17.3652 132.767 17.1309C132.743 16.8965 132.696 16.6855 132.626 16.498C132.568 16.2988 132.486 16.1406 132.38 16.0234C132.286 15.8945 132.169 15.8301 132.029 15.8301C131.806 15.8301 131.589 15.8945 131.378 16.0234C131.179 16.1406 130.991 16.3105 130.816 16.5332ZM129.691 19.627C129.691 19.8379 129.702 20.0488 129.726 20.2598C129.749 20.459 129.796 20.6406 129.866 20.8047C129.937 20.957 130.03 21.0859 130.148 21.1914C130.265 21.2852 130.417 21.332 130.605 21.332C130.816 21.332 131.009 21.2852 131.185 21.1914C131.361 21.0859 131.519 20.957 131.659 20.8047C131.8 20.6406 131.923 20.459 132.029 20.2598C132.146 20.0488 132.245 19.832 132.327 19.6094C132.245 19.6211 132.163 19.6328 132.081 19.6445C132.011 19.6445 131.929 19.6445 131.835 19.6445C131.39 19.6445 131.003 19.5156 130.675 19.2578C130.359 18.9883 130.113 18.6484 129.937 18.2383C129.866 18.4844 129.808 18.7246 129.761 18.959C129.714 19.1934 129.691 19.416 129.691 19.627ZM133.488 11.3652C133.593 11.2832 133.71 11.2891 133.839 11.3828C133.968 11.4766 134.062 11.6172 134.12 11.8047C134.202 12.0508 134.208 12.2383 134.138 12.3672C134.068 12.4844 133.962 12.5898 133.821 12.6836C133.751 12.7422 133.616 12.8242 133.417 12.9297C133.23 13.0352 133.019 13.1465 132.784 13.2637C132.562 13.3691 132.339 13.4688 132.116 13.5625C131.894 13.6445 131.724 13.6914 131.607 13.7031C131.478 13.7148 131.378 13.7031 131.308 13.668C131.238 13.6211 131.179 13.5684 131.132 13.5098C131.097 13.4512 131.073 13.3867 131.062 13.3164C131.05 13.2344 131.044 13.1641 131.044 13.1055C131.958 12.4727 132.597 12.0215 132.96 11.752C133.171 11.5996 133.347 11.4707 133.488 11.3652ZM134.999 21.9121C134.917 22.041 134.829 22.123 134.736 22.1582C134.63 22.2051 134.542 22.2109 134.472 22.1758C134.39 22.1523 134.337 22.0938 134.314 22C134.29 21.9062 134.314 21.7891 134.384 21.6484C134.419 21.5781 134.501 21.4199 134.63 21.1738C134.747 20.9277 134.894 20.6348 135.07 20.2949C135.234 19.9434 135.415 19.5684 135.614 19.1699C135.814 18.7598 136.001 18.373 136.177 18.0098C136.364 17.6465 136.534 17.3242 136.687 17.043C136.839 16.75 136.95 16.5391 137.021 16.4102C136.892 16.293 136.804 16.2109 136.757 16.1641C136.71 16.1055 136.675 15.9883 136.652 15.8125C136.628 15.6602 136.663 15.4609 136.757 15.2148C136.851 14.9688 136.974 14.7344 137.126 14.5117C137.279 14.2773 137.448 14.0781 137.636 13.9141C137.823 13.75 138.005 13.668 138.181 13.668C138.509 13.668 138.738 13.7734 138.866 13.9844C139.007 14.1953 139.089 14.4121 139.113 14.6348C139.136 14.7871 139.124 14.9805 139.077 15.2148C139.03 15.4492 138.943 15.6602 138.814 15.8477C138.849 15.8711 138.896 15.9004 138.954 15.9355C139.013 15.959 139.107 15.9707 139.236 15.9707C139.423 15.9707 139.552 15.959 139.622 15.9355C139.704 15.9121 139.827 15.9004 139.991 15.9004C140.191 15.9004 140.355 15.9531 140.484 16.0586C140.613 16.1523 140.718 16.2754 140.8 16.4277C140.882 16.5684 140.941 16.7266 140.976 16.9023C141.023 17.0664 141.052 17.2188 141.064 17.3594C141.099 17.6523 141.023 17.957 140.835 18.2734C140.648 18.5898 140.419 18.9355 140.15 19.3105C139.986 19.5449 139.821 19.8086 139.657 20.1016C139.493 20.3945 139.423 20.6582 139.446 20.8926C139.47 21.0449 139.511 21.168 139.57 21.2617C139.628 21.3555 139.792 21.4023 140.062 21.4023C140.261 21.4023 140.478 21.332 140.712 21.1914C140.958 21.0391 141.204 20.8516 141.45 20.6289C141.708 20.3945 141.96 20.1426 142.206 19.873C142.452 19.5918 142.681 19.3223 142.892 19.0645C143.103 18.7949 143.279 18.5547 143.419 18.3438C143.571 18.1328 143.683 17.9805 143.753 17.8867C143.812 17.793 143.888 17.7285 143.982 17.6934C144.075 17.6582 144.157 17.6582 144.228 17.6934C144.298 17.7285 144.339 17.7988 144.351 17.9043C144.374 18.0098 144.333 18.1504 144.228 18.3262C144.157 18.4434 144.034 18.6309 143.859 18.8887C143.695 19.1465 143.489 19.4336 143.243 19.75C143.009 20.0664 142.745 20.3945 142.452 20.7344C142.159 21.0625 141.849 21.3672 141.521 21.6484C141.204 21.918 140.882 22.1406 140.554 22.3164C140.238 22.4922 139.933 22.5801 139.64 22.5801C139.335 22.5801 139.083 22.5215 138.884 22.4043C138.685 22.2871 138.521 22.1465 138.392 21.9824C138.275 21.8066 138.187 21.6191 138.128 21.4199C138.081 21.209 138.064 21.0156 138.075 20.8398C138.087 20.6992 138.122 20.5527 138.181 20.4004C138.251 20.2363 138.327 20.0723 138.409 19.9082C138.503 19.7324 138.597 19.5625 138.691 19.3984C138.796 19.2227 138.89 19.0527 138.972 18.8887C139.171 18.5488 139.329 18.2617 139.446 18.0273C139.575 17.7812 139.64 17.5762 139.64 17.4121C139.64 17.3066 139.616 17.2129 139.57 17.1309C139.523 17.0488 139.446 17.0078 139.341 17.0078C139.271 17.0078 139.218 17.0137 139.183 17.0254C139.159 17.0254 139.13 17.0254 139.095 17.0254C139.071 17.0254 139.03 17.0312 138.972 17.043C138.925 17.043 138.849 17.043 138.743 17.043C138.591 17.043 138.462 17.0195 138.357 16.9727C138.251 16.9258 138.152 16.8906 138.058 16.8672C138.011 16.9492 137.905 17.125 137.741 17.3945C137.577 17.6641 137.384 17.9805 137.161 18.3438C136.95 18.707 136.722 19.0879 136.476 19.4863C136.241 19.8848 136.019 20.2598 135.808 20.6113C135.597 20.9512 135.421 21.2441 135.28 21.4902C135.128 21.7246 135.034 21.8652 134.999 21.9121ZM146.847 11.6465C146.812 11.7754 146.741 11.9043 146.636 12.0332C146.542 12.1504 146.431 12.25 146.302 12.332C146.185 12.4023 146.062 12.4492 145.933 12.4727C145.804 12.4961 145.698 12.4727 145.616 12.4023C145.37 12.2148 145.241 12.0156 145.23 11.8047C145.218 11.582 145.271 11.377 145.388 11.1895C145.505 10.9902 145.652 10.8262 145.827 10.6973C146.003 10.5566 146.155 10.4746 146.284 10.4512C146.413 10.4277 146.519 10.457 146.601 10.5391C146.695 10.6094 146.765 10.709 146.812 10.8379C146.859 10.9551 146.882 11.0898 146.882 11.2422C146.894 11.3945 146.882 11.5293 146.847 11.6465ZM144.421 15.3906C144.48 15.3203 144.591 15.2617 144.755 15.2148C144.919 15.168 145.089 15.1328 145.265 15.1094C145.441 15.0742 145.599 15.0566 145.739 15.0566C145.892 15.0449 145.98 15.0449 146.003 15.0566C146.015 15.0684 145.986 15.1914 145.915 15.4258C145.845 15.6602 145.757 15.9355 145.652 16.252C145.546 16.5684 145.435 16.8965 145.318 17.2363C145.2 17.5645 145.113 17.834 145.054 18.0449C144.995 18.2559 144.925 18.4961 144.843 18.7656C144.761 19.0234 144.685 19.2812 144.614 19.5391C144.556 19.7852 144.515 20.0195 144.491 20.2422C144.468 20.4648 144.486 20.6348 144.544 20.752C144.603 20.8926 144.667 20.9922 144.738 21.0508C144.808 21.0977 144.884 21.1211 144.966 21.1211C145.2 21.1211 145.493 20.9922 145.845 20.7344C146.208 20.4766 146.571 20.1719 146.935 19.8203C147.31 19.457 147.655 19.0938 147.972 18.7305C148.288 18.3555 148.523 18.0566 148.675 17.834C148.769 17.7168 148.863 17.6406 148.956 17.6055C149.062 17.5703 149.144 17.5762 149.202 17.623C149.273 17.6699 149.308 17.7461 149.308 17.8516C149.32 17.957 149.284 18.0801 149.202 18.2207C149.015 18.5488 148.739 18.9414 148.376 19.3984C148.013 19.8438 147.626 20.2773 147.216 20.6992C146.806 21.1094 146.402 21.4609 146.003 21.7539C145.616 22.0469 145.3 22.1992 145.054 22.2109C144.855 22.2227 144.655 22.1875 144.456 22.1055C144.269 22.0352 144.093 21.9355 143.929 21.8066C143.777 21.666 143.648 21.5078 143.542 21.332C143.437 21.1445 143.378 20.9512 143.366 20.752C143.331 20.459 143.331 20.0605 143.366 19.5566C143.402 19.041 143.466 18.5195 143.56 17.9922C143.654 17.4531 143.771 16.9434 143.911 16.4629C144.064 15.9824 144.234 15.625 144.421 15.3906ZM153.122 19.2051C153.005 19.6504 152.847 20.0664 152.648 20.4531C152.448 20.8398 152.208 21.1738 151.927 21.4551C151.657 21.7363 151.347 21.9531 150.995 22.1055C150.655 22.2695 150.28 22.3516 149.87 22.3516C149.39 22.3516 149.009 22.2461 148.728 22.0352C148.458 21.8359 148.253 21.584 148.113 21.2793C147.984 20.9746 147.907 20.6406 147.884 20.2773C147.849 19.9141 147.831 19.5742 147.831 19.2578C147.831 19.0352 147.861 18.7891 147.919 18.5195C147.966 18.25 148.036 17.9746 148.13 17.6934C148.224 17.4121 148.341 17.1309 148.482 16.8496C148.634 16.5684 148.81 16.3105 149.009 16.0762C149.079 15.877 149.185 15.7012 149.325 15.5488C149.478 15.3965 149.648 15.2734 149.835 15.1797C150.034 15.0742 150.245 14.998 150.468 14.9512C150.691 14.8926 150.907 14.8633 151.118 14.8633C151.154 14.8633 151.183 14.8691 151.206 14.8809C151.241 14.8926 151.277 14.9043 151.312 14.916C151.464 14.9277 151.652 14.9863 151.874 15.0918C152.109 15.1973 152.331 15.3555 152.542 15.5664C152.765 15.7773 152.952 16.0469 153.105 16.375C153.257 16.6914 153.333 17.0781 153.333 17.5352C153.333 17.6289 153.327 17.7461 153.316 17.8867C153.304 18.0156 153.292 18.127 153.28 18.2207C153.55 18.1152 153.831 17.9863 154.124 17.834C154.417 17.6816 154.698 17.5234 154.968 17.3594C155.249 17.1836 155.507 17.0078 155.741 16.832C155.976 16.6562 156.163 16.498 156.304 16.3574C156.421 16.252 156.521 16.1934 156.603 16.1816C156.685 16.1699 156.743 16.1934 156.779 16.252C156.814 16.3105 156.82 16.3926 156.796 16.498C156.773 16.6035 156.708 16.7207 156.603 16.8496C156.544 16.9199 156.392 17.0605 156.146 17.2715C155.911 17.4824 155.63 17.7109 155.302 17.957C154.974 18.2031 154.616 18.4434 154.23 18.6777C153.843 18.9121 153.474 19.0879 153.122 19.2051ZM150.152 16.5332C150.116 16.6387 150.099 16.75 150.099 16.8672C150.099 17.0547 150.111 17.2539 150.134 17.4648C150.157 17.6641 150.216 17.8457 150.31 18.0098C150.404 18.1738 150.55 18.3145 150.749 18.4316C150.96 18.5371 151.247 18.5898 151.611 18.5898C151.669 18.5898 151.728 18.5898 151.786 18.5898C151.845 18.5781 151.904 18.5664 151.962 18.5547C151.997 18.4023 152.027 18.2676 152.05 18.1504C152.085 18.0215 152.103 17.9102 152.103 17.8164C152.126 17.5938 152.126 17.3652 152.103 17.1309C152.079 16.8965 152.032 16.6855 151.962 16.498C151.904 16.2988 151.821 16.1406 151.716 16.0234C151.622 15.8945 151.505 15.8301 151.364 15.8301C151.142 15.8301 150.925 15.8945 150.714 16.0234C150.515 16.1406 150.327 16.3105 150.152 16.5332ZM149.027 19.627C149.027 19.8379 149.038 20.0488 149.062 20.2598C149.085 20.459 149.132 20.6406 149.202 20.8047C149.273 20.957 149.366 21.0859 149.484 21.1914C149.601 21.2852 149.753 21.332 149.941 21.332C150.152 21.332 150.345 21.2852 150.521 21.1914C150.696 21.0859 150.855 20.957 150.995 20.8047C151.136 20.6406 151.259 20.459 151.364 20.2598C151.482 20.0488 151.581 19.832 151.663 19.6094C151.581 19.6211 151.499 19.6328 151.417 19.6445C151.347 19.6445 151.265 19.6445 151.171 19.6445C150.726 19.6445 150.339 19.5156 150.011 19.2578C149.695 18.9883 149.448 18.6484 149.273 18.2383C149.202 18.4844 149.144 18.7246 149.097 18.959C149.05 19.1934 149.027 19.416 149.027 19.627Z" fill="white"/>
</svg>
