<svg width="37" height="37" viewBox="0 0 37 37" fill="none" xmlns="http://www.w3.org/2000/svg">
<path d="M12.2461 29.2891C12.2461 29.1406 12.0977 28.9922 11.875 28.9922C11.6523 28.9922 11.5039 29.1406 11.5039 29.2891C11.5039 29.4375 11.6523 29.5859 11.875 29.5117C12.0977 29.5117 12.2461 29.4375 12.2461 29.2891ZM9.94531 28.918C9.94531 29.0664 10.0938 29.2891 10.3164 29.2891C10.4648 29.3633 10.6875 29.2891 10.7617 29.1406C10.7617 28.9922 10.6875 28.8438 10.4648 28.7695C10.2422 28.6953 10.0195 28.7695 9.94531 28.918ZM13.2852 28.8438C13.0625 28.8438 12.9141 28.9922 12.9141 29.2148C12.9141 29.3633 13.1367 29.4375 13.3594 29.3633C13.582 29.2891 13.7305 29.2148 13.6562 29.0664C13.6562 28.918 13.4336 28.7695 13.2852 28.8438ZM18.1094 0.34375C7.86719 0.34375 0 8.21094 0 18.4531C0 26.6914 5.12109 33.7422 12.543 36.2656C13.5078 36.4141 13.8047 35.8203 13.8047 35.375C13.8047 34.8555 13.8047 32.332 13.8047 30.7734C13.8047 30.7734 8.60938 31.8867 7.49609 28.5469C7.49609 28.5469 6.67969 26.3945 5.49219 25.875C5.49219 25.875 3.78516 24.6875 5.56641 24.6875C5.56641 24.6875 7.42188 24.8359 8.46094 26.6172C10.0938 29.5117 12.7656 28.6953 13.8789 28.1758C14.0273 26.9883 14.4727 26.1719 15.0664 25.6523C10.9102 25.207 6.67969 24.6133 6.67969 17.4883C6.67969 15.4102 7.27344 14.4453 8.46094 13.1094C8.23828 12.5898 7.64453 10.6602 8.68359 8.0625C10.168 7.61719 13.8047 10.0664 13.8047 10.0664C15.2891 9.62109 16.8477 9.47266 18.4062 9.47266C20.0391 9.47266 21.5977 9.62109 23.082 10.0664C23.082 10.0664 26.6445 7.54297 28.2031 8.0625C29.2422 10.6602 28.5742 12.5898 28.4258 13.1094C29.6133 14.4453 30.3555 15.4102 30.3555 17.4883C30.3555 24.6133 25.9766 25.207 21.8203 25.6523C22.4883 26.2461 23.082 27.3594 23.082 29.1406C23.082 31.5898 23.0078 34.707 23.0078 35.3008C23.0078 35.8203 23.3789 36.4141 24.3438 36.1914C31.7656 33.7422 36.8125 26.6914 36.8125 18.4531C36.8125 8.21094 28.4258 0.34375 18.1094 0.34375ZM7.19922 25.9492C7.05078 26.0234 7.125 26.2461 7.19922 26.3945C7.34766 26.4688 7.49609 26.543 7.64453 26.4688C7.71875 26.3945 7.71875 26.1719 7.57031 26.0234C7.42188 25.9492 7.27344 25.875 7.19922 25.9492ZM6.38281 25.3555C6.30859 25.5039 6.38281 25.5781 6.53125 25.6523C6.67969 25.7266 6.82812 25.7266 6.90234 25.5781C6.90234 25.5039 6.82812 25.4297 6.67969 25.3555C6.53125 25.2812 6.45703 25.2812 6.38281 25.3555ZM8.75781 28.0273C8.68359 28.1016 8.68359 28.3242 8.90625 28.4727C9.05469 28.6211 9.27734 28.6953 9.35156 28.5469C9.42578 28.4727 9.42578 28.25 9.27734 28.1016C9.12891 27.9531 8.90625 27.8789 8.75781 28.0273ZM7.94141 26.9141C7.79297 26.9883 7.79297 27.2109 7.94141 27.3594C8.08984 27.5078 8.23828 27.582 8.38672 27.5078C8.46094 27.4336 8.46094 27.2109 8.38672 27.0625C8.23828 26.9141 8.08984 26.8398 7.94141 26.9141Z" fill="#FFFFFF"/>
</svg>
