<svg width="416" height="416" viewBox="0 0 416 416" fill="none" xmlns="http://www.w3.org/2000/svg">
<path d="M371.094 0.0625H44.5312C19.4824 0.0625 0 20.4727 0 44.5938V371.156C0 396.205 19.4824 415.688 44.5312 415.688H371.094C395.215 415.688 415.625 396.205 415.625 371.156V44.5938C415.625 20.4727 395.215 0.0625 371.094 0.0625ZM256.982 356.312C248.633 358.168 245.85 352.602 245.85 348.891C245.85 344.252 246.777 318.275 246.777 297.865C246.777 283.021 241.211 273.744 235.645 269.105C269.971 265.395 306.152 260.756 306.152 201.381C306.152 184.682 300.586 176.332 290.381 165.199C292.236 161.488 297.803 144.789 288.525 123.451C276.465 119.74 246.777 140.15 246.777 140.15C234.717 136.439 220.801 134.584 207.812 134.584C194.824 134.584 181.836 136.439 169.775 140.15C169.775 140.15 140.088 119.74 127.1 123.451C118.75 144.789 123.389 161.488 125.244 165.199C115.967 176.332 111.328 184.682 111.328 201.381C111.328 260.756 145.654 265.395 179.98 269.105C175.342 272.816 171.631 280.238 169.775 289.516C161.426 294.154 138.232 300.648 125.244 277.455C116.895 262.611 101.123 260.756 101.123 260.756C86.2793 260.756 100.195 270.961 100.195 270.961C110.4 275.6 117.822 293.227 117.822 293.227C126.172 321.059 169.775 311.781 169.775 311.781C169.775 323.842 169.775 345.18 169.775 348.891C169.775 352.602 166.992 358.168 159.57 356.312C98.3398 335.902 54.7363 277.455 54.7363 209.73C54.7363 124.379 120.605 59.4375 205.029 59.4375C290.381 59.4375 359.961 124.379 359.961 209.73C359.961 277.455 318.213 335.902 256.982 356.312ZM166.064 299.721C167.92 299.721 168.848 297.865 168.848 296.938C168.848 296.01 166.992 295.082 165.137 295.082C163.281 296.01 162.354 296.938 162.354 297.865C162.354 299.721 164.209 299.721 166.064 299.721ZM156.787 298.793C156.787 299.721 155.859 301.576 154.004 301.576C152.148 301.576 150.293 300.648 150.293 298.793C150.293 297.865 152.148 296.938 154.004 296.938C154.932 296.938 156.787 297.865 156.787 298.793ZM144.727 297.865C144.727 296.938 143.799 295.082 141.943 295.082C140.088 294.154 138.232 295.082 138.232 296.01C137.305 296.938 139.16 298.793 140.088 298.793C141.943 299.721 143.799 298.793 144.727 297.865ZM132.666 293.227C131.738 294.154 129.883 294.154 128.955 292.299C127.1 291.371 127.1 289.516 128.027 288.588C128.955 287.66 130.811 287.66 131.738 289.516C133.594 290.443 133.594 292.299 132.666 293.227ZM124.316 284.877C123.389 284.877 122.461 284.877 120.605 283.021C119.678 282.094 119.678 280.238 120.605 279.311C122.461 278.383 123.389 279.311 124.316 280.238C125.244 282.094 125.244 283.949 124.316 284.877ZM118.75 275.6C117.822 276.527 115.967 275.6 115.039 274.672C114.111 273.744 114.111 271.889 115.039 271.889C115.967 270.961 116.895 270.961 117.822 271.889C118.75 273.744 119.678 274.672 118.75 275.6ZM112.256 268.178C112.256 269.105 110.4 270.033 109.473 269.105C108.545 268.178 107.617 267.25 108.545 266.322C108.545 266.322 109.473 265.395 110.4 266.322C112.256 267.25 112.256 268.178 112.256 268.178Z" fill="#1F718B"/>
</svg>
