<svg width="175" height="35" viewBox="0 0 175 35" fill="none" xmlns="http://www.w3.org/2000/svg">
<rect width="175" height="35" rx="5" fill="#1F718B"/>
<path d="M16.0235 25.4102C15.7305 25.3984 15.4727 25.2461 15.25 24.9531C15.0274 24.6602 14.834 24.2793 14.67 23.8105C14.5059 23.3418 14.3653 22.8086 14.2481 22.2109C14.1426 21.6133 14.0547 21.0098 13.9844 20.4004C13.9141 19.7793 13.8672 19.1816 13.8438 18.6074C13.8203 18.0215 13.8086 17.5059 13.8086 17.0605C13.8203 16.3574 13.8731 15.6367 13.9668 14.8984C14.0723 14.1484 14.1836 13.4453 14.3008 12.7891C14.4297 12.1328 14.5528 11.5527 14.67 11.0488C14.7989 10.5332 14.8926 10.1699 14.9512 9.95898C15.0332 9.61914 15.1446 9.39062 15.2852 9.27344C15.4258 9.14453 15.6895 9.06836 16.0762 9.04492H16.4981C16.6153 9.05664 16.7325 9.06836 16.8496 9.08008C16.9668 9.0918 17.0723 9.12109 17.166 9.16797C16.7442 10.0117 16.4043 10.8672 16.1465 11.7344C15.8887 12.6016 15.6895 13.4688 15.5489 14.3359C15.4082 15.2031 15.3203 16.0586 15.2852 16.9023C15.25 17.7344 15.2442 18.543 15.2676 19.3281C15.291 19.9492 15.3262 20.5293 15.3731 21.0684C15.42 21.5957 15.4961 22.1348 15.6016 22.6855C15.7071 23.2246 15.8301 23.5352 15.9707 23.6172C16.1114 23.6992 16.2578 23.6406 16.4102 23.4414C16.5625 23.2539 16.709 22.9727 16.8496 22.5977C17.002 22.2344 17.1309 21.8652 17.2364 21.4902C17.3067 21.2441 17.4121 20.8926 17.5528 20.4355C17.6934 19.9668 17.8516 19.4512 18.0274 18.8887C18.2032 18.3262 18.3848 17.7402 18.5723 17.1309C18.7715 16.5215 18.9532 15.959 19.1172 15.4434C19.2813 14.916 19.4219 14.459 19.5391 14.0723C19.668 13.6855 19.7559 13.4277 19.8028 13.2988C19.8731 13.1113 19.9668 12.8535 20.084 12.5254C20.2129 12.1855 20.3477 11.834 20.4883 11.4707C20.6407 11.0957 20.793 10.7266 20.9453 10.3633C21.1094 9.98828 21.2617 9.66016 21.4024 9.37891C21.543 9.10938 21.7012 8.95117 21.877 8.9043C22.0528 8.85742 22.2227 8.88672 22.3867 8.99219C22.5625 9.08594 22.7207 9.23242 22.8614 9.43164C23.0137 9.63086 23.1426 9.83594 23.2481 10.0469C23.0957 10.1055 22.9375 10.252 22.7735 10.4863C22.6211 10.709 22.4805 10.9492 22.3516 11.207C22.1992 11.5117 22.0528 11.8398 21.9121 12.1914C21.8184 12.4492 21.6953 12.7891 21.543 13.2109C21.3907 13.6328 21.2266 14.0957 21.0508 14.5996C20.8867 15.1035 20.711 15.625 20.5235 16.1641C20.3477 16.7031 20.1778 17.2129 20.0137 17.6934C19.8496 18.1738 19.6973 18.6074 19.5567 18.9941C19.4278 19.3691 19.3223 19.6504 19.2403 19.8379C19.1231 20.1191 18.9883 20.4473 18.836 20.8223C18.6836 21.1855 18.5196 21.5605 18.3438 21.9473C18.1797 22.334 18.0098 22.7148 17.834 23.0898C17.6582 23.4766 17.4825 23.8223 17.3067 24.127C17.0606 24.5723 16.8496 24.8945 16.6739 25.0938C16.5098 25.3047 16.293 25.4102 16.0235 25.4102ZM25.9375 11.6465C25.9024 11.7754 25.8321 11.9043 25.7266 12.0332C25.6328 12.1504 25.5215 12.25 25.3926 12.332C25.2754 12.4023 25.1524 12.4492 25.0235 12.4727C24.8946 12.4961 24.7891 12.4727 24.7071 12.4023C24.461 12.2148 24.3321 12.0156 24.3203 11.8047C24.3086 11.582 24.3614 11.377 24.4785 11.1895C24.5957 10.9902 24.7422 10.8262 24.918 10.6973C25.0938 10.5566 25.2461 10.4746 25.375 10.4512C25.5039 10.4277 25.6094 10.457 25.6914 10.5391C25.7852 10.6094 25.8555 10.709 25.9024 10.8379C25.9492 10.9551 25.9727 11.0898 25.9727 11.2422C25.9844 11.3945 25.9727 11.5293 25.9375 11.6465ZM23.5117 15.3906C23.5703 15.3203 23.6817 15.2617 23.8457 15.2148C24.0098 15.168 24.1797 15.1328 24.3555 15.1094C24.5313 15.0742 24.6895 15.0566 24.8301 15.0566C24.9825 15.0449 25.0703 15.0449 25.0938 15.0566C25.1055 15.0684 25.0762 15.1914 25.0059 15.4258C24.9356 15.6602 24.8477 15.9355 24.7422 16.252C24.6367 16.5684 24.5254 16.8965 24.4082 17.2363C24.291 17.5645 24.2032 17.834 24.1446 18.0449C24.086 18.2559 24.0157 18.4961 23.9336 18.7656C23.8516 19.0234 23.7754 19.2812 23.7051 19.5391C23.6465 19.7852 23.6055 20.0195 23.5821 20.2422C23.5586 20.4648 23.5762 20.6348 23.6348 20.752C23.6934 20.8926 23.7578 20.9922 23.8282 21.0508C23.8985 21.0977 23.9746 21.1211 24.0567 21.1211C24.291 21.1211 24.584 20.9922 24.9356 20.7344C25.2989 20.4766 25.6621 20.1719 26.0254 19.8203C26.4004 19.457 26.7461 19.0938 27.0625 18.7305C27.3789 18.3555 27.6133 18.0566 27.7657 17.834C27.8594 17.7168 27.9532 17.6406 28.0469 17.6055C28.1524 17.5703 28.2344 17.5762 28.293 17.623C28.3633 17.6699 28.3985 17.7461 28.3985 17.8516C28.4102 17.957 28.375 18.0801 28.293 18.2207C28.1055 18.5488 27.8301 18.9414 27.4668 19.3984C27.1035 19.8438 26.7168 20.2773 26.3067 20.6992C25.8965 21.1094 25.4922 21.4609 25.0938 21.7539C24.7071 22.0469 24.3907 22.1992 24.1446 22.2109C23.9453 22.2227 23.7461 22.1875 23.5469 22.1055C23.3594 22.0352 23.1836 21.9355 23.0196 21.8066C22.8672 21.666 22.7383 21.5078 22.6328 21.332C22.5274 21.1445 22.4688 20.9512 22.4571 20.752C22.4219 20.459 22.4219 20.0605 22.4571 19.5566C22.4922 19.041 22.5567 18.5195 22.6504 17.9922C22.7442 17.4531 22.8614 16.9434 23.002 16.4629C23.1543 15.9824 23.3242 15.625 23.5117 15.3906ZM29.4883 21.4023C29.5586 21.4492 29.6465 21.4727 29.752 21.4727C29.8692 21.4727 29.9805 21.4492 30.086 21.4023C30.2032 21.3555 30.3086 21.291 30.4024 21.209C30.5078 21.127 30.584 21.0215 30.6309 20.8926C30.6778 20.7637 30.6778 20.582 30.6309 20.3477C30.584 20.1016 30.5078 19.8438 30.4024 19.5742C30.3086 19.293 30.2032 19.0117 30.086 18.7305C29.9688 18.4492 29.8692 18.1914 29.7871 17.957C29.7168 17.7812 29.6582 17.6172 29.6114 17.4648C29.5645 17.3359 29.5176 17.2129 29.4707 17.0957C29.4356 16.9668 29.4063 16.8789 29.3828 16.832C29.3242 16.9258 29.2188 17.0781 29.0664 17.2891C28.9258 17.5 28.7676 17.7227 28.5918 17.957C28.4278 18.1797 28.2696 18.3906 28.1172 18.5898C27.9649 18.7773 27.8594 18.9062 27.8008 18.9766C27.7071 19.082 27.6133 19.1465 27.5196 19.1699C27.4375 19.1816 27.3672 19.1641 27.3086 19.1172C27.25 19.0586 27.2149 18.9824 27.2032 18.8887C27.2032 18.7832 27.25 18.6602 27.3438 18.5195C27.4141 18.4258 27.5196 18.2793 27.6602 18.0801C27.8008 17.8691 27.9414 17.6582 28.0821 17.4473C28.2227 17.2246 28.3516 17.0312 28.4688 16.8672C28.586 16.6914 28.6504 16.5859 28.6621 16.5508C28.6856 16.457 28.6504 16.334 28.5567 16.1816C28.4746 16.0293 28.4629 15.8535 28.5215 15.6543C28.5684 15.4902 28.6739 15.3027 28.8379 15.0918C29.002 14.8691 29.1953 14.6699 29.418 14.4941C29.6407 14.3184 29.8692 14.1895 30.1035 14.1074C30.3379 14.0137 30.5489 14.0137 30.7364 14.1074C30.8887 14.2012 31.0117 14.3066 31.1055 14.4238C31.1992 14.5293 31.2344 14.6406 31.211 14.7578C31.1875 14.8164 31.1524 14.8926 31.1055 14.9863C31.0586 15.0801 30.9883 15.1973 30.8946 15.3379C30.8008 15.4668 30.666 15.6367 30.4903 15.8477C30.5254 16.1172 30.5723 16.3633 30.6309 16.5859C30.7012 16.8086 30.7657 17.002 30.8242 17.166C30.8946 17.3652 30.9707 17.5469 31.0528 17.7109C31.1582 17.9219 31.2696 18.1387 31.3867 18.3613C31.5039 18.584 31.6094 18.8066 31.7032 19.0293C31.7969 19.2402 31.8731 19.4395 31.9317 19.627C31.9903 19.8145 32.0078 19.9727 31.9844 20.1016C31.9492 20.3008 31.8438 20.541 31.668 20.8223C31.5039 21.1035 31.293 21.3789 31.0352 21.6484C30.7891 21.9062 30.502 22.1289 30.1739 22.3164C29.8575 22.5039 29.5235 22.5977 29.1719 22.5977C28.9258 22.5977 28.6856 22.5215 28.4512 22.3691C28.2285 22.2168 28.0352 22.041 27.8711 21.8418C27.7188 21.6309 27.6016 21.4258 27.5196 21.2266C27.4492 21.0273 27.4434 20.875 27.502 20.7695C27.5723 20.6289 27.6367 20.5176 27.6953 20.4355C27.7539 20.3535 27.8418 20.2598 27.959 20.1543C28.0059 20.1191 28.0645 20.0781 28.1348 20.0312C28.1934 19.9961 28.2754 19.9609 28.3809 19.9258C28.4864 19.8906 28.6094 19.8496 28.75 19.8027C28.8672 20.166 28.9727 20.4531 29.0664 20.6641C29.1602 20.8633 29.2364 21.0215 29.295 21.1387C29.3653 21.2676 29.4297 21.3555 29.4883 21.4023ZM35.5176 22.2812C35.0723 22.2812 34.709 22.2109 34.4278 22.0703C34.1465 21.9297 33.9239 21.7598 33.7598 21.5605C33.6075 21.3496 33.4961 21.127 33.4258 20.8926C33.3672 20.6465 33.3379 20.4238 33.3379 20.2246C33.3379 19.873 33.3672 19.5039 33.4258 19.1172C33.4844 18.7188 33.5547 18.3555 33.6367 18.0273C33.7188 17.6875 33.7891 17.4004 33.8477 17.166C33.918 16.9316 33.9649 16.7852 33.9883 16.7266C34.0938 16.3867 34.2285 16.0938 34.3926 15.8477C34.5684 15.5898 34.8086 15.4141 35.1133 15.3203C35.2305 15.2969 35.3535 15.2734 35.4825 15.25C35.5879 15.2383 35.6934 15.2324 35.7989 15.2324C35.916 15.2324 36.0215 15.25 36.1153 15.2852C35.7989 16.0938 35.5469 16.7676 35.3594 17.3066C35.1836 17.8457 35.0489 18.2852 34.9551 18.625C34.8496 19.0117 34.7852 19.3223 34.7617 19.5566C34.7032 20.084 34.75 20.4824 34.9024 20.752C35.0547 21.0215 35.3653 21.1562 35.834 21.1562C36.1387 21.1562 36.4317 21.0449 36.7129 20.8223C36.9942 20.5879 37.252 20.2891 37.4864 19.9258C37.4512 19.7383 37.4336 19.5449 37.4336 19.3457C37.4336 18.9707 37.4629 18.6074 37.5215 18.2559C37.5918 17.8926 37.668 17.5586 37.75 17.2539C37.8438 16.9375 37.9375 16.6562 38.0313 16.4102C38.1367 16.1641 38.2246 15.9707 38.295 15.8301C38.4239 15.5488 38.541 15.3789 38.6465 15.3203C38.752 15.25 38.9219 15.209 39.1563 15.1973C39.25 15.1855 39.3262 15.1855 39.3848 15.1973C39.4551 15.1973 39.5137 15.2031 39.5606 15.2148C39.7012 15.25 39.7715 15.3203 39.7715 15.4258C39.7715 15.6133 39.7598 15.8945 39.7364 16.2695C39.7129 16.6445 39.6426 17.0312 39.5254 17.4297C39.4434 17.7578 39.3614 18.0391 39.2793 18.2734C39.209 18.4961 39.1387 18.6895 39.0684 18.8535C38.9981 19.0059 38.9278 19.1348 38.8575 19.2402C38.7871 19.334 38.7227 19.4219 38.6641 19.5039C38.6875 19.8555 38.7168 20.1367 38.752 20.3477C38.7871 20.5586 38.8282 20.7227 38.875 20.8398C38.9336 20.9453 38.9981 21.0215 39.0684 21.0684C39.1504 21.1035 39.2383 21.1211 39.3321 21.1211C39.4961 21.1211 39.6895 21.0449 39.9121 20.8926C40.1348 20.7285 40.3633 20.5293 40.5977 20.2949C40.8438 20.0488 41.084 19.7852 41.3184 19.5039C41.5645 19.2109 41.7871 18.9355 41.9864 18.6777C42.1856 18.4199 42.3555 18.1973 42.4961 18.0098C42.6367 17.8105 42.7246 17.6875 42.7598 17.6406C42.8418 17.5352 42.918 17.4707 42.9883 17.4473C43.0703 17.4238 43.1348 17.4355 43.1817 17.4824C43.2285 17.5176 43.252 17.582 43.252 17.6758C43.2637 17.7578 43.2403 17.8516 43.1817 17.957C42.9473 18.4023 42.6543 18.877 42.3028 19.3809C41.9629 19.873 41.5938 20.3301 41.1953 20.752C40.8086 21.1738 40.416 21.5254 40.0176 21.8066C39.6192 22.0879 39.2442 22.2285 38.8926 22.2285C38.5762 22.2285 38.3242 22.123 38.1367 21.9121C37.961 21.6895 37.8086 21.373 37.6797 20.9629C37.4102 21.3848 37.0938 21.7129 36.7305 21.9473C36.3672 22.1699 35.9629 22.2812 35.5176 22.2812ZM50.793 18.502C50.6289 18.7363 50.418 19.0293 50.1602 19.3809C49.9024 19.7207 49.6328 20.0664 49.3516 20.418C49.0821 20.7578 48.8125 21.0742 48.543 21.3672C48.2852 21.6484 48.0684 21.8477 47.8926 21.9648C47.7754 22.0352 47.6407 22.0938 47.4883 22.1406C47.336 22.1875 47.1778 22.2168 47.0137 22.2285C46.8614 22.2402 46.7149 22.2285 46.5742 22.1934C46.4336 22.1699 46.3106 22.123 46.2051 22.0527C46.0996 21.9707 46.0117 21.8535 45.9414 21.7012C45.8828 21.5723 45.8242 21.4023 45.7657 21.1914C45.7188 20.9805 45.7012 20.7168 45.7129 20.4004C45.4317 20.8691 45.1211 21.2324 44.7813 21.4902C44.4414 21.7363 44.1192 21.918 43.8145 22.0352C43.4629 22.1641 43.1114 22.2402 42.7598 22.2637C42.5957 22.2637 42.42 22.2051 42.2325 22.0879C42.045 21.9824 41.8867 21.8125 41.7578 21.5781C41.6289 21.332 41.5469 21.0215 41.5117 20.6465C41.4766 20.2598 41.5235 19.8027 41.6524 19.2754C41.8164 18.5605 42.0742 17.9102 42.4258 17.3242C42.7891 16.7383 43.1817 16.2402 43.6035 15.8301C44.0254 15.4082 44.4414 15.0918 44.8516 14.8809C45.2617 14.6699 45.6016 14.5762 45.8711 14.5996C46.1875 14.6582 46.4453 14.752 46.6446 14.8809C46.8086 14.998 46.9141 15.1738 46.961 15.4082C47.0196 15.6309 46.9258 15.9297 46.6797 16.3047C46.8438 16.2695 46.9785 16.2461 47.084 16.2344C47.2012 16.2227 47.2891 16.2168 47.3477 16.2168C47.418 16.2168 47.4649 16.2227 47.4883 16.2344C47.5 16.2578 47.5059 16.3105 47.5059 16.3926C47.5059 16.4629 47.4883 16.5977 47.4532 16.7969C47.418 16.9961 47.3653 17.2656 47.295 17.6055C47.2246 17.9453 47.1309 18.3848 47.0137 18.9238C46.9903 19.0293 46.9668 19.1289 46.9434 19.2227C46.9317 19.3047 46.9141 19.3926 46.8907 19.4863C46.8789 19.5684 46.8614 19.668 46.8379 19.7852C46.8145 19.9023 46.7852 20.0488 46.75 20.2246C46.7383 20.3301 46.7325 20.4473 46.7325 20.5762C46.7442 20.6934 46.7676 20.8047 46.8028 20.9102C46.8379 21.0156 46.8907 21.1035 46.961 21.1738C47.043 21.2324 47.1543 21.2617 47.295 21.2617C47.4121 21.2617 47.5645 21.1914 47.752 21.0508C47.9395 20.8984 48.1387 20.7109 48.3496 20.4883C48.5606 20.2539 48.7774 20.002 49 19.7324C49.2344 19.4512 49.4512 19.1816 49.6504 18.9238C49.8496 18.666 50.0254 18.4375 50.1778 18.2383C50.3418 18.0391 50.459 17.8926 50.5293 17.7988C50.6231 17.6934 50.7168 17.6348 50.8106 17.623C50.9043 17.5996 50.9746 17.623 51.0215 17.6934C51.0684 17.7637 51.0742 17.8691 51.0391 18.0098C51.0157 18.1504 50.9336 18.3145 50.793 18.502ZM45.6426 19.2754C45.7012 19.041 45.7715 18.7656 45.8535 18.4492C45.9356 18.1328 46.0059 17.8281 46.0645 17.5352C46.1231 17.2422 46.1641 17.002 46.1875 16.8145C46.2227 16.6152 46.2168 16.5215 46.17 16.5332C46.1114 16.5449 46.0469 16.5625 45.9766 16.5859C45.918 16.6094 45.8418 16.627 45.7481 16.6387C45.6543 16.6504 45.5606 16.668 45.4668 16.6914C45.5606 16.5039 45.6133 16.3516 45.625 16.2344C45.6485 16.1055 45.6543 16.0059 45.6426 15.9355C45.6309 15.8535 45.6075 15.7891 45.5723 15.7422C45.4434 15.6367 45.2149 15.7246 44.8867 16.0059C44.5703 16.2754 44.2012 16.7793 43.7793 17.5176C43.6035 17.8223 43.4629 18.1504 43.3575 18.502C43.252 18.8418 43.1758 19.1641 43.1289 19.4688C43.0938 19.7734 43.0879 20.043 43.1114 20.2773C43.1348 20.5 43.1817 20.6465 43.252 20.7168C43.3809 20.8457 43.5274 20.9102 43.6914 20.9102C43.8555 20.8984 44.0196 20.8516 44.1836 20.7695C44.3594 20.6758 44.5293 20.5586 44.6934 20.418C44.8692 20.2773 45.0215 20.1309 45.1504 19.9785C45.291 19.8262 45.4024 19.6855 45.4844 19.5566C45.5782 19.4277 45.6309 19.334 45.6426 19.2754ZM49.3516 21.7188C49.8672 19.5508 50.2774 17.8105 50.5821 16.498C50.8985 15.1855 51.1387 14.1836 51.3028 13.4922C51.4903 12.6719 51.6192 12.1035 51.6895 11.7871C51.7246 11.5645 51.7539 11.3477 51.7774 11.1367C51.8008 10.9492 51.8125 10.7559 51.8125 10.5566C51.8125 10.3574 51.795 10.1758 51.7598 10.0117C51.8535 9.95312 51.9532 9.90625 52.0586 9.87109C52.1758 9.83594 52.2871 9.80664 52.3926 9.7832C52.5215 9.74805 52.6504 9.71875 52.7793 9.69531C52.9082 9.67188 53.0254 9.66016 53.1309 9.66016C53.2246 9.66016 53.3125 9.67188 53.3946 9.69531C53.4766 9.70703 53.5293 9.74219 53.5528 9.80078C53.6231 9.85938 53.6524 9.97656 53.6407 10.1523C53.6407 10.3281 53.6289 10.5098 53.6055 10.6973C53.5586 10.9199 53.5059 11.1602 53.4473 11.418C53.3067 11.9219 53.1133 12.6484 52.8672 13.5977C52.6563 14.4062 52.3692 15.5078 52.0059 16.9023C51.6543 18.2969 51.209 20.0547 50.67 22.1758C50.6114 22.2344 50.541 22.2754 50.459 22.2988C50.377 22.3223 50.3008 22.334 50.2305 22.334C50.1485 22.334 50.0606 22.3281 49.9668 22.3164C49.8848 22.293 49.8028 22.2578 49.7207 22.2109C49.6504 22.1641 49.5801 22.0996 49.5098 22.0176C49.4395 21.9473 49.3867 21.8477 49.3516 21.7188ZM57.42 11.6465C57.3848 11.7754 57.3145 11.9043 57.209 12.0332C57.1153 12.1504 57.0039 12.25 56.875 12.332C56.7578 12.4023 56.6348 12.4492 56.5059 12.4727C56.377 12.4961 56.2715 12.4727 56.1895 12.4023C55.9434 12.2148 55.8145 12.0156 55.8028 11.8047C55.791 11.582 55.8438 11.377 55.961 11.1895C56.0782 10.9902 56.2246 10.8262 56.4004 10.6973C56.5762 10.5566 56.7285 10.4746 56.8575 10.4512C56.9864 10.4277 57.0918 10.457 57.1739 10.5391C57.2676 10.6094 57.3379 10.709 57.3848 10.8379C57.4317 10.9551 57.4551 11.0898 57.4551 11.2422C57.4668 11.3945 57.4551 11.5293 57.42 11.6465ZM54.9942 15.3906C55.0528 15.3203 55.1641 15.2617 55.3282 15.2148C55.4922 15.168 55.6621 15.1328 55.8379 15.1094C56.0137 15.0742 56.1719 15.0566 56.3125 15.0566C56.4649 15.0449 56.5528 15.0449 56.5762 15.0566C56.5879 15.0684 56.5586 15.1914 56.4883 15.4258C56.418 15.6602 56.3301 15.9355 56.2246 16.252C56.1192 16.5684 56.0078 16.8965 55.8907 17.2363C55.7735 17.5645 55.6856 17.834 55.627 18.0449C55.5684 18.2559 55.4981 18.4961 55.416 18.7656C55.334 19.0234 55.2578 19.2812 55.1875 19.5391C55.1289 19.7852 55.0879 20.0195 55.0645 20.2422C55.041 20.4648 55.0586 20.6348 55.1172 20.752C55.1758 20.8926 55.2403 20.9922 55.3106 21.0508C55.3809 21.0977 55.4571 21.1211 55.5391 21.1211C55.7735 21.1211 56.0664 20.9922 56.418 20.7344C56.7813 20.4766 57.1446 20.1719 57.5078 19.8203C57.8828 19.457 58.2285 19.0938 58.545 18.7305C58.8614 18.3555 59.0957 18.0566 59.2481 17.834C59.3418 17.7168 59.4356 17.6406 59.5293 17.6055C59.6348 17.5703 59.7168 17.5762 59.7754 17.623C59.8457 17.6699 59.8809 17.7461 59.8809 17.8516C59.8926 17.957 59.8575 18.0801 59.7754 18.2207C59.5879 18.5488 59.3125 18.9414 58.9492 19.3984C58.586 19.8438 58.1992 20.2773 57.7891 20.6992C57.3789 21.1094 56.9746 21.4609 56.5762 21.7539C56.1895 22.0469 55.8731 22.1992 55.627 22.2109C55.4278 22.2227 55.2285 22.1875 55.0293 22.1055C54.8418 22.0352 54.666 21.9355 54.502 21.8066C54.3496 21.666 54.2207 21.5078 54.1153 21.332C54.0098 21.1445 53.9512 20.9512 53.9395 20.752C53.9043 20.459 53.9043 20.0605 53.9395 19.5566C53.9746 19.041 54.0391 18.5195 54.1328 17.9922C54.2266 17.4531 54.3438 16.9434 54.4844 16.4629C54.6367 15.9824 54.8067 15.625 54.9942 15.3906ZM67.6328 19.1699C67.5508 19.2871 67.416 19.457 67.2285 19.6797C67.0528 19.9023 66.836 20.1426 66.5782 20.4004C66.3321 20.6582 66.045 20.9277 65.7168 21.209C65.4004 21.4785 65.0606 21.7246 64.6973 21.9473C64.6504 22.2168 64.5625 22.5977 64.4336 23.0898C64.3047 23.5938 64.1348 24.1387 63.9239 24.7246C63.7129 25.3105 63.4668 25.9023 63.1856 26.5C62.9043 27.1094 62.5879 27.6602 62.2364 28.1523C61.8965 28.6562 61.5215 29.0605 61.1114 29.3652C60.7012 29.6816 60.2676 29.8398 59.8106 29.8398C59.3535 29.8398 58.9961 29.7637 58.7383 29.6113C58.4805 29.459 58.293 29.2598 58.1758 29.0137C58.0469 28.7793 57.9707 28.5156 57.9473 28.2227C57.9239 27.9414 57.918 27.666 57.9297 27.3965C57.9414 27.0449 58.0469 26.6348 58.2461 26.166C58.4453 25.709 58.7207 25.2402 59.0723 24.7598C59.4356 24.291 59.8692 23.8398 60.3731 23.4062C60.877 22.9844 61.4395 22.627 62.0606 22.334C62.3653 22.2051 62.6465 22.082 62.9043 21.9648C63.1621 21.8359 63.4024 21.7129 63.625 21.5957C63.7188 21.209 63.7246 20.9512 63.6426 20.8223C63.5723 20.6934 63.4668 20.6289 63.3262 20.6289C63.1153 20.6289 62.8633 20.7227 62.5703 20.9102C62.2891 21.0977 61.9375 21.3906 61.5157 21.7891C61.3985 21.8008 61.293 21.7891 61.1992 21.7539C61.1172 21.707 61.0469 21.6543 60.9883 21.5957C60.918 21.5371 60.8594 21.4668 60.8125 21.3848C60.6836 21.1855 60.625 20.9863 60.6367 20.7871C60.6602 20.5879 60.7539 20.4297 60.918 20.3125C61.0821 20.1836 61.3223 19.9785 61.6387 19.6973C61.9668 19.4043 62.2832 19.0352 62.5879 18.5898C62.6817 18.4609 62.793 18.3027 62.9219 18.1152C63.0625 17.916 63.1973 17.7051 63.3262 17.4824C63.4668 17.248 63.5957 17.0078 63.7129 16.7617C63.8418 16.5156 63.9414 16.2812 64.0117 16.0586C63.7774 16.0234 63.4375 16.0293 62.9922 16.0762C62.7578 16.123 62.5059 16.1758 62.2364 16.2344C62.002 16.293 61.7325 16.3691 61.4278 16.4629C61.1348 16.5566 60.8242 16.6855 60.4961 16.8496C60.4492 16.8262 60.4141 16.7793 60.3907 16.709C60.3672 16.6387 60.3496 16.5566 60.3379 16.4629C60.3262 16.3574 60.3203 16.2402 60.3203 16.1113C60.3203 15.9473 60.3438 15.8125 60.3907 15.707C60.4492 15.5898 60.5196 15.4961 60.6016 15.4258C60.6836 15.3555 60.7715 15.3027 60.8653 15.2676C60.959 15.2207 61.041 15.1855 61.1114 15.1621C61.1934 15.1387 61.3516 15.1094 61.586 15.0742C61.8321 15.0273 62.1075 14.9863 62.4121 14.9512C62.7168 14.916 63.0332 14.8926 63.3614 14.8809C63.6895 14.8574 63.9883 14.8516 64.2578 14.8633C64.8086 14.8984 65.1543 14.9746 65.295 15.0918C65.4473 15.1973 65.4883 15.3672 65.418 15.6016C65.336 15.8359 65.1778 16.2344 64.9434 16.7969C64.709 17.3477 64.3516 17.9863 63.8711 18.7129C63.6719 18.9824 63.4903 19.2344 63.3262 19.4688C63.1621 19.7031 63.0039 19.9082 62.8516 20.084C63.0508 19.9902 63.25 19.9199 63.4492 19.873C63.6485 19.8145 63.8477 19.7852 64.0469 19.7852C64.3164 19.7852 64.4922 19.9141 64.5742 20.1719C64.668 20.4297 64.7207 20.7109 64.7325 21.0156C65.2012 20.7227 65.6172 20.4121 65.9805 20.084C66.3555 19.7559 66.7539 19.334 67.1758 18.8184C67.2813 18.6895 67.375 18.6133 67.4571 18.5898C67.5508 18.5664 67.6211 18.584 67.668 18.6426C67.7149 18.6895 67.7383 18.7656 67.7383 18.8711C67.7383 18.9648 67.7032 19.0645 67.6328 19.1699ZM63.2383 23.002C63.2617 22.9082 63.2852 22.8203 63.3086 22.7383C63.3438 22.668 63.3731 22.5918 63.3965 22.5098C62.7871 22.8496 62.2305 23.207 61.7266 23.582C61.2227 23.9688 60.7832 24.373 60.4082 24.7949C60.045 25.2168 59.7578 25.6562 59.5469 26.1133C59.336 26.5703 59.2188 27.0332 59.1953 27.502C59.1836 27.7832 59.2246 28.0234 59.3184 28.2227C59.4239 28.4219 59.6055 28.5215 59.8633 28.5215C60.1446 28.5215 60.4434 28.3164 60.7598 27.9062C61.0879 27.5078 61.4043 27.0156 61.709 26.4297C62.0254 25.8555 62.3184 25.252 62.5879 24.6191C62.8575 23.998 63.0742 23.459 63.2383 23.002ZM75.5782 18.502C75.4141 18.7363 75.2032 19.0293 74.9453 19.3809C74.6875 19.7207 74.418 20.0664 74.1367 20.418C73.8672 20.7578 73.5977 21.0742 73.3282 21.3672C73.0703 21.6484 72.8535 21.8477 72.6778 21.9648C72.5606 22.0352 72.4258 22.0938 72.2735 22.1406C72.1211 22.1875 71.9629 22.2168 71.7989 22.2285C71.6465 22.2402 71.5 22.2285 71.3594 22.1934C71.2188 22.1699 71.0957 22.123 70.9903 22.0527C70.8848 21.9707 70.7969 21.8535 70.7266 21.7012C70.668 21.5723 70.6094 21.4023 70.5508 21.1914C70.5039 20.9805 70.4864 20.7168 70.4981 20.4004C70.2168 20.8691 69.9063 21.2324 69.5664 21.4902C69.2266 21.7363 68.9043 21.918 68.5996 22.0352C68.2481 22.1641 67.8965 22.2402 67.545 22.2637C67.3809 22.2637 67.2051 22.2051 67.0176 22.0879C66.8301 21.9824 66.6719 21.8125 66.543 21.5781C66.4141 21.332 66.3321 21.0215 66.2969 20.6465C66.2617 20.2598 66.3086 19.8027 66.4375 19.2754C66.6016 18.5605 66.8594 17.9102 67.211 17.3242C67.5742 16.7383 67.9668 16.2402 68.3887 15.8301C68.8106 15.4082 69.2266 15.0918 69.6367 14.8809C70.0469 14.6699 70.3867 14.5762 70.6563 14.5996C70.9727 14.6582 71.2305 14.752 71.4297 14.8809C71.5938 14.998 71.6992 15.1738 71.7461 15.4082C71.8047 15.6309 71.711 15.9297 71.4649 16.3047C71.6289 16.2695 71.7637 16.2461 71.8692 16.2344C71.9864 16.2227 72.0742 16.2168 72.1328 16.2168C72.2032 16.2168 72.25 16.2227 72.2735 16.2344C72.2852 16.2578 72.291 16.3105 72.291 16.3926C72.291 16.4629 72.2735 16.5977 72.2383 16.7969C72.2032 16.9961 72.1504 17.2656 72.0801 17.6055C72.0098 17.9453 71.916 18.3848 71.7989 18.9238C71.7754 19.0293 71.752 19.1289 71.7285 19.2227C71.7168 19.3047 71.6992 19.3926 71.6758 19.4863C71.6641 19.5684 71.6465 19.668 71.6231 19.7852C71.5996 19.9023 71.5703 20.0488 71.5352 20.2246C71.5235 20.3301 71.5176 20.4473 71.5176 20.5762C71.5293 20.6934 71.5528 20.8047 71.5879 20.9102C71.6231 21.0156 71.6758 21.1035 71.7461 21.1738C71.8282 21.2324 71.9395 21.2617 72.0801 21.2617C72.1973 21.2617 72.3496 21.1914 72.5371 21.0508C72.7246 20.8984 72.9239 20.7109 73.1348 20.4883C73.3457 20.2539 73.5625 20.002 73.7852 19.7324C74.0196 19.4512 74.2364 19.1816 74.4356 18.9238C74.6348 18.666 74.8106 18.4375 74.9629 18.2383C75.127 18.0391 75.2442 17.8926 75.3145 17.7988C75.4082 17.6934 75.502 17.6348 75.5957 17.623C75.6895 17.5996 75.7598 17.623 75.8067 17.6934C75.8535 17.7637 75.8594 17.8691 75.8242 18.0098C75.8008 18.1504 75.7188 18.3145 75.5782 18.502ZM70.4278 19.2754C70.4864 19.041 70.5567 18.7656 70.6387 18.4492C70.7207 18.1328 70.791 17.8281 70.8496 17.5352C70.9082 17.2422 70.9492 17.002 70.9727 16.8145C71.0078 16.6152 71.002 16.5215 70.9551 16.5332C70.8965 16.5449 70.8321 16.5625 70.7617 16.5859C70.7032 16.6094 70.627 16.627 70.5332 16.6387C70.4395 16.6504 70.3457 16.668 70.252 16.6914C70.3457 16.5039 70.3985 16.3516 70.4102 16.2344C70.4336 16.1055 70.4395 16.0059 70.4278 15.9355C70.416 15.8535 70.3926 15.7891 70.3575 15.7422C70.2285 15.6367 70 15.7246 69.6719 16.0059C69.3555 16.2754 68.9864 16.7793 68.5645 17.5176C68.3887 17.8223 68.2481 18.1504 68.1426 18.502C68.0371 18.8418 67.961 19.1641 67.9141 19.4688C67.8789 19.7734 67.8731 20.043 67.8965 20.2773C67.92 20.5 67.9668 20.6465 68.0371 20.7168C68.166 20.8457 68.3125 20.9102 68.4766 20.9102C68.6407 20.8984 68.8047 20.8516 68.9688 20.7695C69.1446 20.6758 69.3145 20.5586 69.4785 20.418C69.6543 20.2773 69.8067 20.1309 69.9356 19.9785C70.0762 19.8262 70.1875 19.6855 70.2696 19.5566C70.3633 19.4277 70.416 19.334 70.4278 19.2754ZM73.7325 21.9121C73.6504 22.041 73.5625 22.123 73.4688 22.1582C73.3633 22.2051 73.2754 22.2109 73.2051 22.1758C73.1231 22.1523 73.0703 22.0938 73.0469 22C73.0235 21.9062 73.0469 21.7891 73.1172 21.6484C73.1524 21.5781 73.2344 21.4199 73.3633 21.1738C73.4805 20.9277 73.627 20.6348 73.8028 20.2949C73.9668 19.9434 74.1485 19.5684 74.3477 19.1699C74.5469 18.7598 74.7344 18.373 74.9102 18.0098C75.0977 17.6465 75.2676 17.3242 75.42 17.043C75.5723 16.75 75.6836 16.5391 75.7539 16.4102C75.625 16.293 75.5371 16.2109 75.4903 16.1641C75.4434 16.1055 75.4082 15.9883 75.3848 15.8125C75.3614 15.6602 75.3965 15.4609 75.4903 15.2148C75.584 14.9688 75.7071 14.7344 75.8594 14.5117C76.0117 14.2773 76.1817 14.0781 76.3692 13.9141C76.5567 13.75 76.7383 13.668 76.9141 13.668C77.2422 13.668 77.4707 13.7734 77.5996 13.9844C77.7403 14.1953 77.8223 14.4121 77.8457 14.6348C77.8692 14.7871 77.8575 14.9805 77.8106 15.2148C77.7637 15.4492 77.6758 15.6602 77.5469 15.8477C77.5821 15.8711 77.6289 15.9004 77.6875 15.9355C77.7461 15.959 77.8399 15.9707 77.9688 15.9707C78.1563 15.9707 78.2852 15.959 78.3555 15.9355C78.4375 15.9121 78.5606 15.9004 78.7246 15.9004C78.9239 15.9004 79.0879 15.9531 79.2168 16.0586C79.3457 16.1523 79.4512 16.2754 79.5332 16.4277C79.6153 16.5684 79.6739 16.7266 79.709 16.9023C79.7559 17.0664 79.7852 17.2188 79.7969 17.3594C79.8321 17.6523 79.7559 17.957 79.5684 18.2734C79.3809 18.5898 79.1524 18.9355 78.8828 19.3105C78.7188 19.5449 78.5547 19.8086 78.3907 20.1016C78.2266 20.3945 78.1563 20.6582 78.1797 20.8926C78.2032 21.0449 78.2442 21.168 78.3028 21.2617C78.3614 21.3555 78.5254 21.4023 78.795 21.4023C78.9942 21.4023 79.211 21.332 79.4453 21.1914C79.6914 21.0391 79.9375 20.8516 80.1836 20.6289C80.4414 20.3945 80.6934 20.1426 80.9395 19.873C81.1856 19.5918 81.4141 19.3223 81.625 19.0645C81.836 18.7949 82.0117 18.5547 82.1524 18.3438C82.3047 18.1328 82.416 17.9805 82.4864 17.8867C82.545 17.793 82.6211 17.7285 82.7149 17.6934C82.8086 17.6582 82.8907 17.6582 82.961 17.6934C83.0313 17.7285 83.0723 17.7988 83.084 17.9043C83.1075 18.0098 83.0664 18.1504 82.961 18.3262C82.8907 18.4434 82.7676 18.6309 82.5918 18.8887C82.4278 19.1465 82.2227 19.4336 81.9766 19.75C81.7422 20.0664 81.4785 20.3945 81.1856 20.7344C80.8926 21.0625 80.5821 21.3672 80.2539 21.6484C79.9375 21.918 79.6153 22.1406 79.2871 22.3164C78.9707 22.4922 78.666 22.5801 78.3731 22.5801C78.0684 22.5801 77.8164 22.5215 77.6172 22.4043C77.418 22.2871 77.2539 22.1465 77.125 21.9824C77.0078 21.8066 76.92 21.6191 76.8614 21.4199C76.8145 21.209 76.7969 21.0156 76.8086 20.8398C76.8203 20.6992 76.8555 20.5527 76.9141 20.4004C76.9844 20.2363 77.0606 20.0723 77.1426 19.9082C77.2364 19.7324 77.3301 19.5625 77.4239 19.3984C77.5293 19.2227 77.6231 19.0527 77.7051 18.8887C77.9043 18.5488 78.0625 18.2617 78.1797 18.0273C78.3086 17.7812 78.3731 17.5762 78.3731 17.4121C78.3731 17.3066 78.3496 17.2129 78.3028 17.1309C78.2559 17.0488 78.1797 17.0078 78.0742 17.0078C78.0039 17.0078 77.9512 17.0137 77.916 17.0254C77.8926 17.0254 77.8633 17.0254 77.8282 17.0254C77.8047 17.0254 77.7637 17.0312 77.7051 17.043C77.6582 17.043 77.5821 17.043 77.4766 17.043C77.3242 17.043 77.1953 17.0195 77.0899 16.9727C76.9844 16.9258 76.8848 16.8906 76.791 16.8672C76.7442 16.9492 76.6387 17.125 76.4746 17.3945C76.3106 17.6641 76.1172 17.9805 75.8946 18.3438C75.6836 18.707 75.4551 19.0879 75.209 19.4863C74.9746 19.8848 74.752 20.2598 74.541 20.6113C74.3301 20.9512 74.1543 21.2441 74.0137 21.4902C73.8614 21.7246 73.7676 21.8652 73.7325 21.9121ZM86.0899 21.9121C86.0078 22.041 85.92 22.123 85.8262 22.1582C85.7207 22.2051 85.6328 22.2109 85.5625 22.1758C85.4805 22.1523 85.4278 22.0938 85.4043 22C85.3809 21.9062 85.4043 21.7891 85.4746 21.6484C85.5098 21.5781 85.5918 21.4199 85.7207 21.1738C85.8379 20.9277 85.9844 20.6348 86.1602 20.2949C86.3242 19.9434 86.5059 19.5684 86.7051 19.1699C86.9043 18.7598 87.0918 18.373 87.2676 18.0098C87.4551 17.6465 87.625 17.3242 87.7774 17.043C87.9297 16.75 88.041 16.5391 88.1114 16.4102C87.9825 16.293 87.8946 16.2109 87.8477 16.1641C87.8008 16.1055 87.7657 15.9883 87.7422 15.8125C87.7188 15.6602 87.7539 15.4609 87.8477 15.2148C87.9414 14.9688 88.0645 14.7344 88.2168 14.5117C88.3692 14.2773 88.5391 14.0781 88.7266 13.9141C88.9141 13.75 89.0957 13.668 89.2715 13.668C89.5996 13.668 89.8282 13.7734 89.9571 13.9844C90.0977 14.1953 90.1797 14.4121 90.2032 14.6348C90.2266 14.7871 90.2149 14.9805 90.168 15.2148C90.1211 15.4492 90.0332 15.6602 89.9043 15.8477C89.9395 15.8711 89.9864 15.9004 90.045 15.9355C90.1035 15.959 90.1973 15.9707 90.3262 15.9707C90.5137 15.9707 90.6426 15.959 90.7129 15.9355C90.795 15.9121 90.918 15.9004 91.0821 15.9004C91.2813 15.9004 91.4453 15.9531 91.5742 16.0586C91.7032 16.1523 91.8086 16.2754 91.8907 16.4277C91.9727 16.5684 92.0313 16.7266 92.0664 16.9023C92.1133 17.0664 92.1426 17.2188 92.1543 17.3594C92.1895 17.6523 92.1133 17.957 91.9258 18.2734C91.7383 18.5898 91.5098 18.9355 91.2403 19.3105C91.0762 19.5449 90.9121 19.8086 90.7481 20.1016C90.584 20.3945 90.5137 20.6582 90.5371 20.8926C90.5606 21.0449 90.6016 21.168 90.6602 21.2617C90.7188 21.3555 90.8828 21.4023 91.1524 21.4023C91.3516 21.4023 91.5684 21.332 91.8028 21.1914C92.0489 21.0391 92.295 20.8516 92.541 20.6289C92.7989 20.3945 93.0508 20.1426 93.2969 19.873C93.543 19.5918 93.7715 19.3223 93.9825 19.0645C94.1934 18.7949 94.3692 18.5547 94.5098 18.3438C94.6621 18.1328 94.7735 17.9805 94.8438 17.8867C94.9024 17.793 94.9785 17.7285 95.0723 17.6934C95.166 17.6582 95.2481 17.6582 95.3184 17.6934C95.3887 17.7285 95.4297 17.7988 95.4414 17.9043C95.4649 18.0098 95.4239 18.1504 95.3184 18.3262C95.2481 18.4434 95.125 18.6309 94.9492 18.8887C94.7852 19.1465 94.5801 19.4336 94.334 19.75C94.0996 20.0664 93.836 20.3945 93.543 20.7344C93.25 21.0625 92.9395 21.3672 92.6114 21.6484C92.295 21.918 91.9727 22.1406 91.6446 22.3164C91.3282 22.4922 91.0235 22.5801 90.7305 22.5801C90.4258 22.5801 90.1739 22.5215 89.9746 22.4043C89.7754 22.2871 89.6114 22.1465 89.4825 21.9824C89.3653 21.8066 89.2774 21.6191 89.2188 21.4199C89.1719 21.209 89.1543 21.0156 89.166 20.8398C89.1778 20.6992 89.2129 20.5527 89.2715 20.4004C89.3418 20.2363 89.418 20.0723 89.5 19.9082C89.5938 19.7324 89.6875 19.5625 89.7813 19.3984C89.8867 19.2227 89.9805 19.0527 90.0625 18.8887C90.2617 18.5488 90.42 18.2617 90.5371 18.0273C90.666 17.7812 90.7305 17.5762 90.7305 17.4121C90.7305 17.3066 90.7071 17.2129 90.6602 17.1309C90.6133 17.0488 90.5371 17.0078 90.4317 17.0078C90.3614 17.0078 90.3086 17.0137 90.2735 17.0254C90.25 17.0254 90.2207 17.0254 90.1856 17.0254C90.1621 17.0254 90.1211 17.0312 90.0625 17.043C90.0157 17.043 89.9395 17.043 89.834 17.043C89.6817 17.043 89.5528 17.0195 89.4473 16.9727C89.3418 16.9258 89.2422 16.8906 89.1485 16.8672C89.1016 16.9492 88.9961 17.125 88.8321 17.3945C88.668 17.6641 88.4746 17.9805 88.252 18.3438C88.041 18.707 87.8125 19.0879 87.5664 19.4863C87.3321 19.8848 87.1094 20.2598 86.8985 20.6113C86.6875 20.9512 86.5117 21.2441 86.3711 21.4902C86.2188 21.7246 86.125 21.8652 86.0899 21.9121ZM102.033 18.3438C101.682 18.8594 101.283 19.3633 100.838 19.8555C100.393 20.3359 99.918 20.7695 99.4141 21.1562C98.9219 21.5312 98.4121 21.8359 97.8848 22.0703C97.3692 22.3047 96.8653 22.4219 96.3731 22.4219C96.1153 22.4219 95.834 22.3574 95.5293 22.2285C95.2364 22.1113 94.9668 21.9238 94.7207 21.666C94.4746 21.4082 94.2754 21.0742 94.1231 20.6641C93.9825 20.2539 93.9414 19.7559 94 19.1699C94.0469 18.6895 94.1934 18.1855 94.4395 17.6582C94.6973 17.1191 95.0078 16.627 95.3711 16.1816C95.7461 15.7363 96.1621 15.3672 96.6192 15.0742C97.0879 14.7812 97.5567 14.6348 98.0254 14.6348C98.4707 14.6348 98.793 14.7461 98.9922 14.9688C99.1914 15.1914 99.2793 15.4668 99.2559 15.7949C99.2207 16.1582 99.1153 16.4922 98.9395 16.7969C98.7754 17.1016 98.5762 17.377 98.3418 17.623C98.1075 17.8691 97.8555 18.0918 97.586 18.291C97.3282 18.4902 97.0821 18.6719 96.8477 18.8359C96.5899 19.0117 96.3438 19.1816 96.1094 19.3457C95.875 19.498 95.67 19.6387 95.4942 19.7676C95.5059 20.0605 95.5586 20.3066 95.6524 20.5059C95.7461 20.7051 95.8633 20.8691 96.0039 20.998C96.1446 21.1152 96.3028 21.2031 96.4785 21.2617C96.666 21.3086 96.8535 21.332 97.041 21.332C97.4395 21.332 97.8555 21.209 98.2891 20.9629C98.7227 20.7051 99.1446 20.4004 99.5547 20.0488C99.9766 19.6855 100.363 19.3105 100.715 18.9238C101.078 18.5371 101.377 18.2031 101.611 17.9219C101.693 17.8281 101.775 17.7754 101.857 17.7637C101.951 17.7402 102.022 17.752 102.068 17.7988C102.127 17.834 102.156 17.9043 102.156 18.0098C102.156 18.1035 102.115 18.2148 102.033 18.3438ZM97.5332 15.6367C97.3926 15.6367 97.2227 15.707 97.0235 15.8477C96.836 15.9883 96.6485 16.1934 96.461 16.4629C96.2735 16.7207 96.0977 17.043 95.9336 17.4297C95.7696 17.8047 95.6465 18.2383 95.5645 18.7305C95.7051 18.625 95.8575 18.5195 96.0215 18.4141C96.1856 18.2969 96.3496 18.1738 96.5137 18.0449C97.0176 17.6582 97.3692 17.3184 97.5684 17.0254C97.7676 16.7324 97.8789 16.4805 97.9024 16.2695C97.9258 16.0469 97.9024 15.8887 97.8321 15.7949C97.7617 15.6895 97.6621 15.6367 97.5332 15.6367ZM99.502 29.5059C99.42 29.4707 99.3379 29.418 99.2559 29.3477C99.1856 29.2891 99.1153 29.2129 99.045 29.1191C98.9746 29.0371 98.916 28.9316 98.8692 28.8027C99.1973 27.5488 99.4785 26.459 99.7129 25.5332C99.9356 24.6074 100.129 23.834 100.293 23.2129C100.469 22.4863 100.621 21.877 100.75 21.3848C100.867 20.916 100.984 20.4473 101.102 19.9785C101.195 19.5684 101.295 19.1289 101.4 18.6602C101.518 18.1914 101.623 17.752 101.717 17.3418C101.834 16.8848 101.904 16.5215 101.928 16.252C101.951 15.9707 101.863 15.7305 101.664 15.5312C101.805 15.4141 101.945 15.3262 102.086 15.2676C102.238 15.1973 102.373 15.1504 102.49 15.127C102.619 15.0918 102.748 15.0801 102.877 15.0918C103.193 15.1152 103.387 15.2148 103.457 15.3906C103.539 15.5664 103.551 15.8477 103.492 16.2344C103.48 16.293 103.469 16.3457 103.457 16.3926C103.457 16.4277 103.457 16.4688 103.457 16.5156C103.621 16.3281 103.803 16.1465 104.002 15.9707C104.201 15.7949 104.4 15.6367 104.6 15.4961C104.811 15.3555 105.022 15.2441 105.232 15.1621C105.455 15.0684 105.666 15.0215 105.865 15.0215C106.135 15.0215 106.352 15.0918 106.516 15.2324C106.691 15.3613 106.826 15.5371 106.92 15.7598C107.014 15.9824 107.072 16.2344 107.096 16.5156C107.119 16.7852 107.125 17.0547 107.113 17.3242C107.102 17.6172 107.049 17.9277 106.955 18.2559C106.873 18.584 106.756 18.918 106.604 19.2578C106.451 19.5977 106.275 19.9316 106.076 20.2598C105.877 20.5879 105.666 20.8926 105.443 21.1738C105.49 21.1855 105.52 21.1973 105.531 21.209C105.543 21.209 105.549 21.2148 105.549 21.2266C105.549 21.2266 105.555 21.2324 105.566 21.2441C105.59 21.2441 105.631 21.2441 105.689 21.2441C105.959 21.2441 106.234 21.1738 106.516 21.0332C106.797 20.8926 107.072 20.7168 107.342 20.5059C107.611 20.2832 107.869 20.043 108.115 19.7852C108.373 19.5273 108.602 19.2812 108.801 19.0469C109.012 18.8008 109.188 18.584 109.328 18.3965C109.469 18.1973 109.574 18.0566 109.645 17.9746C109.738 17.8574 109.826 17.7812 109.908 17.7461C109.99 17.6992 110.055 17.6934 110.102 17.7285C110.148 17.7637 110.172 17.834 110.172 17.9395C110.172 18.0332 110.137 18.1562 110.066 18.3086C110.02 18.4141 109.92 18.584 109.768 18.8184C109.615 19.0527 109.428 19.3164 109.205 19.6094C108.982 19.9023 108.725 20.207 108.432 20.5234C108.15 20.8398 107.852 21.127 107.535 21.3848C107.219 21.6426 106.891 21.8535 106.551 22.0176C106.223 22.1934 105.9 22.2812 105.584 22.2812C105.432 22.2812 105.309 22.2754 105.215 22.2637C105.121 22.252 105.039 22.2285 104.969 22.1934C104.91 22.1699 104.852 22.1406 104.793 22.1055C104.734 22.082 104.664 22.0527 104.582 22.0176C104.371 22.1816 104.154 22.3047 103.932 22.3867C103.709 22.4805 103.492 22.5273 103.281 22.5273C103.082 22.5273 102.906 22.4922 102.754 22.4219C102.613 22.3633 102.496 22.2754 102.402 22.1582C102.309 22.0527 102.232 21.9355 102.174 21.8066C102.115 21.666 102.068 21.5312 102.033 21.4023C102.022 21.4492 102.01 21.4902 101.998 21.5254C101.998 21.5605 101.992 21.6074 101.98 21.666C101.84 22.2285 101.693 22.8789 101.541 23.6172C101.412 24.25 101.254 25.0176 101.066 25.9199C100.891 26.834 100.703 27.8711 100.504 29.0312C100.434 29.3477 100.311 29.5293 100.135 29.5762C99.9473 29.623 99.7364 29.5996 99.502 29.5059ZM102.719 18.6074C102.66 18.8066 102.596 19.041 102.525 19.3105C102.467 19.5684 102.397 19.8789 102.314 20.2422C102.408 20.1719 102.514 20.1191 102.631 20.084C102.748 20.0488 102.865 20.0312 102.982 20.0312C103.111 20.0312 103.275 20.1016 103.475 20.2422C103.674 20.3711 103.914 20.5117 104.195 20.6641C104.371 20.4531 104.553 20.2188 104.74 19.9609C104.939 19.6914 105.115 19.416 105.268 19.1348C105.432 18.8535 105.566 18.5664 105.672 18.2734C105.789 17.9805 105.854 17.6992 105.865 17.4297C105.889 17.0781 105.848 16.8027 105.742 16.6035C105.637 16.4043 105.461 16.3047 105.215 16.3047C104.852 16.3047 104.453 16.5215 104.02 16.9551C103.598 17.377 103.164 17.9277 102.719 18.6074ZM114.092 19.2051C113.975 19.6504 113.816 20.0664 113.617 20.4531C113.418 20.8398 113.178 21.1738 112.897 21.4551C112.627 21.7363 112.316 21.9531 111.965 22.1055C111.625 22.2695 111.25 22.3516 110.84 22.3516C110.359 22.3516 109.979 22.2461 109.697 22.0352C109.428 21.8359 109.223 21.584 109.082 21.2793C108.953 20.9746 108.877 20.6406 108.854 20.2773C108.818 19.9141 108.801 19.5742 108.801 19.2578C108.801 19.0352 108.83 18.7891 108.889 18.5195C108.936 18.25 109.006 17.9746 109.1 17.6934C109.193 17.4121 109.311 17.1309 109.451 16.8496C109.604 16.5684 109.779 16.3105 109.979 16.0762C110.049 15.877 110.154 15.7012 110.295 15.5488C110.447 15.3965 110.617 15.2734 110.805 15.1797C111.004 15.0742 111.215 14.998 111.438 14.9512C111.66 14.8926 111.877 14.8633 112.088 14.8633C112.123 14.8633 112.152 14.8691 112.176 14.8809C112.211 14.8926 112.246 14.9043 112.281 14.916C112.434 14.9277 112.621 14.9863 112.844 15.0918C113.078 15.1973 113.301 15.3555 113.512 15.5664C113.734 15.7773 113.922 16.0469 114.074 16.375C114.227 16.6914 114.303 17.0781 114.303 17.5352C114.303 17.6289 114.297 17.7461 114.285 17.8867C114.273 18.0156 114.262 18.127 114.25 18.2207C114.52 18.1152 114.801 17.9863 115.094 17.834C115.387 17.6816 115.668 17.5234 115.938 17.3594C116.219 17.1836 116.477 17.0078 116.711 16.832C116.945 16.6562 117.133 16.498 117.273 16.3574C117.391 16.252 117.49 16.1934 117.572 16.1816C117.654 16.1699 117.713 16.1934 117.748 16.252C117.783 16.3105 117.789 16.3926 117.766 16.498C117.742 16.6035 117.678 16.7207 117.572 16.8496C117.514 16.9199 117.361 17.0605 117.115 17.2715C116.881 17.4824 116.6 17.7109 116.272 17.957C115.943 18.2031 115.586 18.4434 115.199 18.6777C114.813 18.9121 114.443 19.0879 114.092 19.2051ZM111.121 16.5332C111.086 16.6387 111.068 16.75 111.068 16.8672C111.068 17.0547 111.08 17.2539 111.104 17.4648C111.127 17.6641 111.186 17.8457 111.279 18.0098C111.373 18.1738 111.52 18.3145 111.719 18.4316C111.93 18.5371 112.217 18.5898 112.58 18.5898C112.639 18.5898 112.697 18.5898 112.756 18.5898C112.814 18.5781 112.873 18.5664 112.932 18.5547C112.967 18.4023 112.996 18.2676 113.02 18.1504C113.055 18.0215 113.072 17.9102 113.072 17.8164C113.096 17.5938 113.096 17.3652 113.072 17.1309C113.049 16.8965 113.002 16.6855 112.932 16.498C112.873 16.2988 112.791 16.1406 112.686 16.0234C112.592 15.8945 112.475 15.8301 112.334 15.8301C112.111 15.8301 111.895 15.8945 111.684 16.0234C111.484 16.1406 111.297 16.3105 111.121 16.5332ZM109.996 19.627C109.996 19.8379 110.008 20.0488 110.031 20.2598C110.055 20.459 110.102 20.6406 110.172 20.8047C110.242 20.957 110.336 21.0859 110.453 21.1914C110.57 21.2852 110.723 21.332 110.91 21.332C111.121 21.332 111.314 21.2852 111.49 21.1914C111.666 21.0859 111.824 20.957 111.965 20.8047C112.105 20.6406 112.229 20.459 112.334 20.2598C112.451 20.0488 112.551 19.832 112.633 19.6094C112.551 19.6211 112.469 19.6328 112.387 19.6445C112.316 19.6445 112.234 19.6445 112.141 19.6445C111.695 19.6445 111.309 19.5156 110.98 19.2578C110.664 18.9883 110.418 18.6484 110.242 18.2383C110.172 18.4844 110.113 18.7246 110.066 18.959C110.02 19.1934 109.996 19.416 109.996 19.627ZM118.451 21.4023C118.522 21.4492 118.609 21.4727 118.715 21.4727C118.832 21.4727 118.943 21.4492 119.049 21.4023C119.166 21.3555 119.272 21.291 119.365 21.209C119.471 21.127 119.547 21.0215 119.594 20.8926C119.641 20.7637 119.641 20.582 119.594 20.3477C119.547 20.1016 119.471 19.8438 119.365 19.5742C119.272 19.293 119.166 19.0117 119.049 18.7305C118.932 18.4492 118.832 18.1914 118.75 17.957C118.68 17.7812 118.621 17.6172 118.574 17.4648C118.527 17.3359 118.48 17.2129 118.434 17.0957C118.398 16.9668 118.369 16.8789 118.346 16.832C118.287 16.9258 118.182 17.0781 118.029 17.2891C117.889 17.5 117.73 17.7227 117.555 17.957C117.391 18.1797 117.232 18.3906 117.08 18.5898C116.928 18.7773 116.822 18.9062 116.764 18.9766C116.67 19.082 116.576 19.1465 116.482 19.1699C116.4 19.1816 116.33 19.1641 116.272 19.1172C116.213 19.0586 116.178 18.9824 116.166 18.8887C116.166 18.7832 116.213 18.6602 116.307 18.5195C116.377 18.4258 116.482 18.2793 116.623 18.0801C116.764 17.8691 116.904 17.6582 117.045 17.4473C117.186 17.2246 117.314 17.0312 117.432 16.8672C117.549 16.6914 117.613 16.5859 117.625 16.5508C117.648 16.457 117.613 16.334 117.52 16.1816C117.438 16.0293 117.426 15.8535 117.484 15.6543C117.531 15.4902 117.637 15.3027 117.801 15.0918C117.965 14.8691 118.158 14.6699 118.381 14.4941C118.604 14.3184 118.832 14.1895 119.066 14.1074C119.301 14.0137 119.512 14.0137 119.699 14.1074C119.852 14.2012 119.975 14.3066 120.068 14.4238C120.162 14.5293 120.197 14.6406 120.174 14.7578C120.15 14.8164 120.115 14.8926 120.068 14.9863C120.022 15.0801 119.951 15.1973 119.857 15.3379C119.764 15.4668 119.629 15.6367 119.453 15.8477C119.488 16.1172 119.535 16.3633 119.594 16.5859C119.664 16.8086 119.729 17.002 119.787 17.166C119.857 17.3652 119.934 17.5469 120.016 17.7109C120.121 17.9219 120.232 18.1387 120.35 18.3613C120.467 18.584 120.572 18.8066 120.666 19.0293C120.76 19.2402 120.836 19.4395 120.895 19.627C120.953 19.8145 120.971 19.9727 120.947 20.1016C120.912 20.3008 120.807 20.541 120.631 20.8223C120.467 21.1035 120.256 21.3789 119.998 21.6484C119.752 21.9062 119.465 22.1289 119.137 22.3164C118.82 22.5039 118.486 22.5977 118.135 22.5977C117.889 22.5977 117.648 22.5215 117.414 22.3691C117.191 22.2168 116.998 22.041 116.834 21.8418C116.682 21.6309 116.564 21.4258 116.482 21.2266C116.412 21.0273 116.406 20.875 116.465 20.7695C116.535 20.6289 116.6 20.5176 116.658 20.4355C116.717 20.3535 116.805 20.2598 116.922 20.1543C116.969 20.1191 117.027 20.0781 117.098 20.0312C117.156 19.9961 117.238 19.9609 117.344 19.9258C117.449 19.8906 117.572 19.8496 117.713 19.8027C117.83 20.166 117.936 20.4531 118.029 20.6641C118.123 20.8633 118.199 21.0215 118.258 21.1387C118.328 21.2676 118.393 21.3555 118.451 21.4023ZM126.168 11.6465C126.133 11.7754 126.063 11.9043 125.957 12.0332C125.863 12.1504 125.752 12.25 125.623 12.332C125.506 12.4023 125.383 12.4492 125.254 12.4727C125.125 12.4961 125.02 12.4727 124.938 12.4023C124.691 12.2148 124.563 12.0156 124.551 11.8047C124.539 11.582 124.592 11.377 124.709 11.1895C124.826 10.9902 124.973 10.8262 125.148 10.6973C125.324 10.5566 125.477 10.4746 125.605 10.4512C125.734 10.4277 125.84 10.457 125.922 10.5391C126.016 10.6094 126.086 10.709 126.133 10.8379C126.18 10.9551 126.203 11.0898 126.203 11.2422C126.215 11.3945 126.203 11.5293 126.168 11.6465ZM123.742 15.3906C123.801 15.3203 123.912 15.2617 124.076 15.2148C124.24 15.168 124.41 15.1328 124.586 15.1094C124.762 15.0742 124.92 15.0566 125.061 15.0566C125.213 15.0449 125.301 15.0449 125.324 15.0566C125.336 15.0684 125.307 15.1914 125.236 15.4258C125.166 15.6602 125.078 15.9355 124.973 16.252C124.867 16.5684 124.756 16.8965 124.639 17.2363C124.522 17.5645 124.434 17.834 124.375 18.0449C124.316 18.2559 124.246 18.4961 124.164 18.7656C124.082 19.0234 124.006 19.2812 123.936 19.5391C123.877 19.7852 123.836 20.0195 123.813 20.2422C123.789 20.4648 123.807 20.6348 123.865 20.752C123.924 20.8926 123.988 20.9922 124.059 21.0508C124.129 21.0977 124.205 21.1211 124.287 21.1211C124.522 21.1211 124.814 20.9922 125.166 20.7344C125.529 20.4766 125.893 20.1719 126.256 19.8203C126.631 19.457 126.977 19.0938 127.293 18.7305C127.609 18.3555 127.844 18.0566 127.996 17.834C128.09 17.7168 128.184 17.6406 128.277 17.6055C128.383 17.5703 128.465 17.5762 128.523 17.623C128.594 17.6699 128.629 17.7461 128.629 17.8516C128.641 17.957 128.605 18.0801 128.523 18.2207C128.336 18.5488 128.061 18.9414 127.697 19.3984C127.334 19.8438 126.947 20.2773 126.537 20.6992C126.127 21.1094 125.723 21.4609 125.324 21.7539C124.938 22.0469 124.621 22.1992 124.375 22.2109C124.176 22.2227 123.977 22.1875 123.777 22.1055C123.59 22.0352 123.414 21.9355 123.25 21.8066C123.098 21.666 122.969 21.5078 122.863 21.332C122.758 21.1445 122.699 20.9512 122.688 20.752C122.652 20.459 122.652 20.0605 122.688 19.5566C122.723 19.041 122.787 18.5195 122.881 17.9922C122.975 17.4531 123.092 16.9434 123.232 16.4629C123.385 15.9824 123.555 15.625 123.742 15.3906ZM133.727 17.5527C133.773 17.4824 133.832 17.4414 133.902 17.4297C133.984 17.4062 134.049 17.4121 134.096 17.4473C134.143 17.4824 134.166 17.541 134.166 17.623C134.178 17.7051 134.148 17.8164 134.078 17.957C133.844 18.4023 133.533 18.8828 133.147 19.3984C132.772 19.9141 132.373 20.4004 131.951 20.8574C131.529 21.3027 131.119 21.6719 130.721 21.9648C130.322 22.2578 129.988 22.4043 129.719 22.4043C129.332 22.4043 129.01 22.3281 128.752 22.1758C128.494 22.0234 128.289 21.8359 128.137 21.6133C127.996 21.3906 127.897 21.1504 127.838 20.8926C127.779 20.623 127.762 20.377 127.785 20.1543C127.797 19.9668 127.838 19.6328 127.908 19.1523C127.979 18.6602 128.072 18.0977 128.189 17.4648C128.307 16.8203 128.436 16.1348 128.576 15.4082C128.729 14.6699 128.887 13.9609 129.051 13.2812C128.852 13.3047 128.652 13.3281 128.453 13.3516C128.254 13.375 128.072 13.3867 127.908 13.3867C127.533 13.3867 127.182 13.3457 126.854 13.2637C126.514 13.1699 126.262 13.082 126.098 13C126.004 12.9531 125.963 12.8887 125.975 12.8066C125.986 12.7129 126.022 12.625 126.08 12.543C126.139 12.4492 126.215 12.373 126.309 12.3145C126.391 12.2441 126.467 12.209 126.537 12.209C126.76 12.2324 127 12.2559 127.258 12.2793C127.516 12.291 127.797 12.291 128.102 12.2793C128.324 12.2676 128.535 12.25 128.734 12.2266C128.945 12.2031 129.15 12.1738 129.35 12.1387C129.502 11.5762 129.648 11.0898 129.789 10.6797C129.941 10.2578 130.076 9.96484 130.193 9.80078C130.229 9.74219 130.305 9.69531 130.422 9.66016C130.551 9.61328 130.686 9.58398 130.826 9.57227C130.967 9.54883 131.102 9.54883 131.23 9.57227C131.359 9.58398 131.453 9.625 131.512 9.69531C131.57 9.78906 131.594 10.0293 131.582 10.416C131.57 10.8027 131.506 11.2949 131.389 11.8926C131.881 11.8926 132.314 11.9219 132.689 11.9805C133.076 12.0273 133.404 12.0859 133.674 12.1562C133.943 12.2148 134.16 12.2793 134.324 12.3496C134.488 12.4082 134.611 12.4492 134.693 12.4727C134.775 12.4961 134.816 12.5547 134.816 12.6484C134.828 12.7422 134.811 12.8418 134.764 12.9473C134.729 13.041 134.664 13.123 134.57 13.1934C134.477 13.2637 134.371 13.2871 134.254 13.2637C134.137 13.252 134.002 13.2285 133.85 13.1934C133.709 13.1582 133.533 13.1289 133.322 13.1055C133.123 13.082 132.883 13.0586 132.602 13.0352C132.32 13.0117 131.992 13 131.617 13C131.547 13 131.465 13.0059 131.371 13.0176C131.289 13.0176 131.201 13.0176 131.107 13.0176C131.061 13.2051 131.014 13.3926 130.967 13.5801C130.932 13.7559 130.879 13.9434 130.809 14.1426C130.656 14.6113 130.48 15.1211 130.281 15.6719C130.105 16.1523 129.895 16.7031 129.648 17.3242C129.402 17.9453 129.127 18.6074 128.822 19.3105C128.752 19.8145 128.758 20.2012 128.84 20.4707C128.934 20.7285 129.045 20.916 129.174 21.0332C129.326 21.1621 129.514 21.2324 129.736 21.2441C129.912 21.2676 130.123 21.209 130.369 21.0684C130.627 20.916 130.891 20.7168 131.16 20.4707C131.43 20.2246 131.699 19.9551 131.969 19.6621C132.25 19.3691 132.508 19.082 132.742 18.8008C132.977 18.5195 133.182 18.2676 133.357 18.0449C133.533 17.8105 133.656 17.6465 133.727 17.5527ZM137.875 19.2051C137.758 19.6504 137.6 20.0664 137.4 20.4531C137.201 20.8398 136.961 21.1738 136.68 21.4551C136.41 21.7363 136.1 21.9531 135.748 22.1055C135.408 22.2695 135.033 22.3516 134.623 22.3516C134.143 22.3516 133.762 22.2461 133.48 22.0352C133.211 21.8359 133.006 21.584 132.865 21.2793C132.736 20.9746 132.66 20.6406 132.637 20.2773C132.602 19.9141 132.584 19.5742 132.584 19.2578C132.584 19.0352 132.613 18.7891 132.672 18.5195C132.719 18.25 132.789 17.9746 132.883 17.6934C132.977 17.4121 133.094 17.1309 133.234 16.8496C133.387 16.5684 133.563 16.3105 133.762 16.0762C133.832 15.877 133.938 15.7012 134.078 15.5488C134.23 15.3965 134.4 15.2734 134.588 15.1797C134.787 15.0742 134.998 14.998 135.221 14.9512C135.443 14.8926 135.66 14.8633 135.871 14.8633C135.906 14.8633 135.936 14.8691 135.959 14.8809C135.994 14.8926 136.029 14.9043 136.064 14.916C136.217 14.9277 136.404 14.9863 136.627 15.0918C136.861 15.1973 137.084 15.3555 137.295 15.5664C137.518 15.7773 137.705 16.0469 137.857 16.375C138.01 16.6914 138.086 17.0781 138.086 17.5352C138.086 17.6289 138.08 17.7461 138.068 17.8867C138.057 18.0156 138.045 18.127 138.033 18.2207C138.303 18.1152 138.584 17.9863 138.877 17.834C139.17 17.6816 139.451 17.5234 139.721 17.3594C140.002 17.1836 140.26 17.0078 140.494 16.832C140.729 16.6562 140.916 16.498 141.057 16.3574C141.174 16.252 141.273 16.1934 141.355 16.1816C141.438 16.1699 141.496 16.1934 141.531 16.252C141.566 16.3105 141.572 16.3926 141.549 16.498C141.525 16.6035 141.461 16.7207 141.355 16.8496C141.297 16.9199 141.145 17.0605 140.898 17.2715C140.664 17.4824 140.383 17.7109 140.055 17.957C139.727 18.2031 139.369 18.4434 138.982 18.6777C138.596 18.9121 138.227 19.0879 137.875 19.2051ZM134.904 16.5332C134.869 16.6387 134.852 16.75 134.852 16.8672C134.852 17.0547 134.863 17.2539 134.887 17.4648C134.91 17.6641 134.969 17.8457 135.063 18.0098C135.156 18.1738 135.303 18.3145 135.502 18.4316C135.713 18.5371 136 18.5898 136.363 18.5898C136.422 18.5898 136.48 18.5898 136.539 18.5898C136.598 18.5781 136.656 18.5664 136.715 18.5547C136.75 18.4023 136.779 18.2676 136.803 18.1504C136.838 18.0215 136.855 17.9102 136.855 17.8164C136.879 17.5938 136.879 17.3652 136.855 17.1309C136.832 16.8965 136.785 16.6855 136.715 16.498C136.656 16.2988 136.574 16.1406 136.469 16.0234C136.375 15.8945 136.258 15.8301 136.117 15.8301C135.895 15.8301 135.678 15.8945 135.467 16.0234C135.268 16.1406 135.08 16.3105 134.904 16.5332ZM133.779 19.627C133.779 19.8379 133.791 20.0488 133.814 20.2598C133.838 20.459 133.885 20.6406 133.955 20.8047C134.025 20.957 134.119 21.0859 134.236 21.1914C134.354 21.2852 134.506 21.332 134.693 21.332C134.904 21.332 135.098 21.2852 135.273 21.1914C135.449 21.0859 135.607 20.957 135.748 20.8047C135.889 20.6406 136.012 20.459 136.117 20.2598C136.234 20.0488 136.334 19.832 136.416 19.6094C136.334 19.6211 136.252 19.6328 136.17 19.6445C136.1 19.6445 136.018 19.6445 135.924 19.6445C135.479 19.6445 135.092 19.5156 134.764 19.2578C134.447 18.9883 134.201 18.6484 134.025 18.2383C133.955 18.4844 133.897 18.7246 133.85 18.959C133.803 19.1934 133.779 19.416 133.779 19.627ZM137.576 11.3652C137.682 11.2832 137.799 11.2891 137.928 11.3828C138.057 11.4766 138.15 11.6172 138.209 11.8047C138.291 12.0508 138.297 12.2383 138.227 12.3672C138.156 12.4844 138.051 12.5898 137.91 12.6836C137.84 12.7422 137.705 12.8242 137.506 12.9297C137.318 13.0352 137.107 13.1465 136.873 13.2637C136.65 13.3691 136.428 13.4688 136.205 13.5625C135.982 13.6445 135.813 13.6914 135.695 13.7031C135.566 13.7148 135.467 13.7031 135.397 13.668C135.326 13.6211 135.268 13.5684 135.221 13.5098C135.186 13.4512 135.162 13.3867 135.15 13.3164C135.139 13.2344 135.133 13.1641 135.133 13.1055C136.047 12.4727 136.686 12.0215 137.049 11.752C137.26 11.5996 137.436 11.4707 137.576 11.3652ZM139.088 21.9121C139.006 22.041 138.918 22.123 138.824 22.1582C138.719 22.2051 138.631 22.2109 138.561 22.1758C138.479 22.1523 138.426 22.0938 138.402 22C138.379 21.9062 138.402 21.7891 138.473 21.6484C138.508 21.5781 138.59 21.4199 138.719 21.1738C138.836 20.9277 138.982 20.6348 139.158 20.2949C139.322 19.9434 139.504 19.5684 139.703 19.1699C139.902 18.7598 140.09 18.373 140.266 18.0098C140.453 17.6465 140.623 17.3242 140.775 17.043C140.928 16.75 141.039 16.5391 141.109 16.4102C140.98 16.293 140.893 16.2109 140.846 16.1641C140.799 16.1055 140.764 15.9883 140.74 15.8125C140.717 15.6602 140.752 15.4609 140.846 15.2148C140.939 14.9688 141.063 14.7344 141.215 14.5117C141.367 14.2773 141.537 14.0781 141.725 13.9141C141.912 13.75 142.094 13.668 142.27 13.668C142.598 13.668 142.826 13.7734 142.955 13.9844C143.096 14.1953 143.178 14.4121 143.201 14.6348C143.225 14.7871 143.213 14.9805 143.166 15.2148C143.119 15.4492 143.031 15.6602 142.902 15.8477C142.938 15.8711 142.984 15.9004 143.043 15.9355C143.102 15.959 143.195 15.9707 143.324 15.9707C143.512 15.9707 143.641 15.959 143.711 15.9355C143.793 15.9121 143.916 15.9004 144.08 15.9004C144.279 15.9004 144.443 15.9531 144.572 16.0586C144.701 16.1523 144.807 16.2754 144.889 16.4277C144.971 16.5684 145.029 16.7266 145.064 16.9023C145.111 17.0664 145.141 17.2188 145.152 17.3594C145.188 17.6523 145.111 17.957 144.924 18.2734C144.736 18.5898 144.508 18.9355 144.238 19.3105C144.074 19.5449 143.91 19.8086 143.746 20.1016C143.582 20.3945 143.512 20.6582 143.535 20.8926C143.559 21.0449 143.6 21.168 143.658 21.2617C143.717 21.3555 143.881 21.4023 144.15 21.4023C144.35 21.4023 144.566 21.332 144.801 21.1914C145.047 21.0391 145.293 20.8516 145.539 20.6289C145.797 20.3945 146.049 20.1426 146.295 19.873C146.541 19.5918 146.77 19.3223 146.98 19.0645C147.191 18.7949 147.367 18.5547 147.508 18.3438C147.66 18.1328 147.772 17.9805 147.842 17.8867C147.9 17.793 147.977 17.7285 148.07 17.6934C148.164 17.6582 148.246 17.6582 148.316 17.6934C148.387 17.7285 148.428 17.7988 148.439 17.9043C148.463 18.0098 148.422 18.1504 148.316 18.3262C148.246 18.4434 148.123 18.6309 147.947 18.8887C147.783 19.1465 147.578 19.4336 147.332 19.75C147.098 20.0664 146.834 20.3945 146.541 20.7344C146.248 21.0625 145.938 21.3672 145.609 21.6484C145.293 21.918 144.971 22.1406 144.643 22.3164C144.326 22.4922 144.022 22.5801 143.729 22.5801C143.424 22.5801 143.172 22.5215 142.973 22.4043C142.773 22.2871 142.609 22.1465 142.48 21.9824C142.363 21.8066 142.275 21.6191 142.217 21.4199C142.17 21.209 142.152 21.0156 142.164 20.8398C142.176 20.6992 142.211 20.5527 142.27 20.4004C142.34 20.2363 142.416 20.0723 142.498 19.9082C142.592 19.7324 142.686 19.5625 142.779 19.3984C142.885 19.2227 142.979 19.0527 143.061 18.8887C143.26 18.5488 143.418 18.2617 143.535 18.0273C143.664 17.7812 143.729 17.5762 143.729 17.4121C143.729 17.3066 143.705 17.2129 143.658 17.1309C143.611 17.0488 143.535 17.0078 143.43 17.0078C143.359 17.0078 143.307 17.0137 143.272 17.0254C143.248 17.0254 143.219 17.0254 143.184 17.0254C143.16 17.0254 143.119 17.0312 143.061 17.043C143.014 17.043 142.938 17.043 142.832 17.043C142.68 17.043 142.551 17.0195 142.445 16.9727C142.34 16.9258 142.24 16.8906 142.147 16.8672C142.1 16.9492 141.994 17.125 141.83 17.3945C141.666 17.6641 141.473 17.9805 141.25 18.3438C141.039 18.707 140.811 19.0879 140.564 19.4863C140.33 19.8848 140.107 20.2598 139.897 20.6113C139.686 20.9512 139.51 21.2441 139.369 21.4902C139.217 21.7246 139.123 21.8652 139.088 21.9121ZM150.936 11.6465C150.9 11.7754 150.83 11.9043 150.725 12.0332C150.631 12.1504 150.52 12.25 150.391 12.332C150.273 12.4023 150.15 12.4492 150.022 12.4727C149.893 12.4961 149.787 12.4727 149.705 12.4023C149.459 12.2148 149.33 12.0156 149.318 11.8047C149.307 11.582 149.359 11.377 149.477 11.1895C149.594 10.9902 149.74 10.8262 149.916 10.6973C150.092 10.5566 150.244 10.4746 150.373 10.4512C150.502 10.4277 150.607 10.457 150.689 10.5391C150.783 10.6094 150.854 10.709 150.9 10.8379C150.947 10.9551 150.971 11.0898 150.971 11.2422C150.982 11.3945 150.971 11.5293 150.936 11.6465ZM148.51 15.3906C148.568 15.3203 148.68 15.2617 148.844 15.2148C149.008 15.168 149.178 15.1328 149.354 15.1094C149.529 15.0742 149.688 15.0566 149.828 15.0566C149.98 15.0449 150.068 15.0449 150.092 15.0566C150.104 15.0684 150.074 15.1914 150.004 15.4258C149.934 15.6602 149.846 15.9355 149.74 16.252C149.635 16.5684 149.523 16.8965 149.406 17.2363C149.289 17.5645 149.201 17.834 149.143 18.0449C149.084 18.2559 149.014 18.4961 148.932 18.7656C148.85 19.0234 148.773 19.2812 148.703 19.5391C148.645 19.7852 148.604 20.0195 148.58 20.2422C148.557 20.4648 148.574 20.6348 148.633 20.752C148.691 20.8926 148.756 20.9922 148.826 21.0508C148.897 21.0977 148.973 21.1211 149.055 21.1211C149.289 21.1211 149.582 20.9922 149.934 20.7344C150.297 20.4766 150.66 20.1719 151.023 19.8203C151.398 19.457 151.744 19.0938 152.061 18.7305C152.377 18.3555 152.611 18.0566 152.764 17.834C152.857 17.7168 152.951 17.6406 153.045 17.6055C153.15 17.5703 153.232 17.5762 153.291 17.623C153.361 17.6699 153.397 17.7461 153.397 17.8516C153.408 17.957 153.373 18.0801 153.291 18.2207C153.104 18.5488 152.828 18.9414 152.465 19.3984C152.102 19.8438 151.715 20.2773 151.305 20.6992C150.895 21.1094 150.49 21.4609 150.092 21.7539C149.705 22.0469 149.389 22.1992 149.143 22.2109C148.943 22.2227 148.744 22.1875 148.545 22.1055C148.357 22.0352 148.182 21.9355 148.018 21.8066C147.865 21.666 147.736 21.5078 147.631 21.332C147.525 21.1445 147.467 20.9512 147.455 20.752C147.42 20.459 147.42 20.0605 147.455 19.5566C147.49 19.041 147.555 18.5195 147.648 17.9922C147.742 17.4531 147.859 16.9434 148 16.4629C148.152 15.9824 148.322 15.625 148.51 15.3906ZM157.211 19.2051C157.094 19.6504 156.936 20.0664 156.736 20.4531C156.537 20.8398 156.297 21.1738 156.016 21.4551C155.746 21.7363 155.436 21.9531 155.084 22.1055C154.744 22.2695 154.369 22.3516 153.959 22.3516C153.479 22.3516 153.098 22.2461 152.816 22.0352C152.547 21.8359 152.342 21.584 152.201 21.2793C152.072 20.9746 151.996 20.6406 151.973 20.2773C151.938 19.9141 151.92 19.5742 151.92 19.2578C151.92 19.0352 151.949 18.7891 152.008 18.5195C152.055 18.25 152.125 17.9746 152.219 17.6934C152.313 17.4121 152.43 17.1309 152.57 16.8496C152.723 16.5684 152.898 16.3105 153.098 16.0762C153.168 15.877 153.273 15.7012 153.414 15.5488C153.566 15.3965 153.736 15.2734 153.924 15.1797C154.123 15.0742 154.334 14.998 154.557 14.9512C154.779 14.8926 154.996 14.8633 155.207 14.8633C155.242 14.8633 155.272 14.8691 155.295 14.8809C155.33 14.8926 155.365 14.9043 155.4 14.916C155.553 14.9277 155.74 14.9863 155.963 15.0918C156.197 15.1973 156.42 15.3555 156.631 15.5664C156.854 15.7773 157.041 16.0469 157.193 16.375C157.346 16.6914 157.422 17.0781 157.422 17.5352C157.422 17.6289 157.416 17.7461 157.404 17.8867C157.393 18.0156 157.381 18.127 157.369 18.2207C157.639 18.1152 157.92 17.9863 158.213 17.834C158.506 17.6816 158.787 17.5234 159.057 17.3594C159.338 17.1836 159.596 17.0078 159.83 16.832C160.064 16.6562 160.252 16.498 160.393 16.3574C160.51 16.252 160.609 16.1934 160.691 16.1816C160.773 16.1699 160.832 16.1934 160.867 16.252C160.902 16.3105 160.908 16.3926 160.885 16.498C160.861 16.6035 160.797 16.7207 160.691 16.8496C160.633 16.9199 160.48 17.0605 160.234 17.2715C160 17.4824 159.719 17.7109 159.391 17.957C159.063 18.2031 158.705 18.4434 158.318 18.6777C157.932 18.9121 157.563 19.0879 157.211 19.2051ZM154.24 16.5332C154.205 16.6387 154.188 16.75 154.188 16.8672C154.188 17.0547 154.199 17.2539 154.223 17.4648C154.246 17.6641 154.305 17.8457 154.398 18.0098C154.492 18.1738 154.639 18.3145 154.838 18.4316C155.049 18.5371 155.336 18.5898 155.699 18.5898C155.758 18.5898 155.816 18.5898 155.875 18.5898C155.934 18.5781 155.992 18.5664 156.051 18.5547C156.086 18.4023 156.115 18.2676 156.139 18.1504C156.174 18.0215 156.191 17.9102 156.191 17.8164C156.215 17.5938 156.215 17.3652 156.191 17.1309C156.168 16.8965 156.121 16.6855 156.051 16.498C155.992 16.2988 155.91 16.1406 155.805 16.0234C155.711 15.8945 155.594 15.8301 155.453 15.8301C155.23 15.8301 155.014 15.8945 154.803 16.0234C154.604 16.1406 154.416 16.3105 154.24 16.5332ZM153.115 19.627C153.115 19.8379 153.127 20.0488 153.15 20.2598C153.174 20.459 153.221 20.6406 153.291 20.8047C153.361 20.957 153.455 21.0859 153.572 21.1914C153.689 21.2852 153.842 21.332 154.029 21.332C154.24 21.332 154.434 21.2852 154.609 21.1914C154.785 21.0859 154.943 20.957 155.084 20.8047C155.225 20.6406 155.348 20.459 155.453 20.2598C155.57 20.0488 155.67 19.832 155.752 19.6094C155.67 19.6211 155.588 19.6328 155.506 19.6445C155.436 19.6445 155.354 19.6445 155.26 19.6445C154.814 19.6445 154.428 19.5156 154.1 19.2578C153.783 18.9883 153.537 18.6484 153.361 18.2383C153.291 18.4844 153.232 18.7246 153.186 18.959C153.139 19.1934 153.115 19.416 153.115 19.627ZM161.57 21.4023C161.641 21.4492 161.729 21.4727 161.834 21.4727C161.951 21.4727 162.063 21.4492 162.168 21.4023C162.285 21.3555 162.391 21.291 162.484 21.209C162.59 21.127 162.666 21.0215 162.713 20.8926C162.76 20.7637 162.76 20.582 162.713 20.3477C162.666 20.1016 162.59 19.8438 162.484 19.5742C162.391 19.293 162.285 19.0117 162.168 18.7305C162.051 18.4492 161.951 18.1914 161.869 17.957C161.799 17.7812 161.74 17.6172 161.693 17.4648C161.647 17.3359 161.6 17.2129 161.553 17.0957C161.518 16.9668 161.488 16.8789 161.465 16.832C161.406 16.9258 161.301 17.0781 161.148 17.2891C161.008 17.5 160.85 17.7227 160.674 17.957C160.51 18.1797 160.352 18.3906 160.199 18.5898C160.047 18.7773 159.941 18.9062 159.883 18.9766C159.789 19.082 159.695 19.1465 159.602 19.1699C159.52 19.1816 159.449 19.1641 159.391 19.1172C159.332 19.0586 159.297 18.9824 159.285 18.8887C159.285 18.7832 159.332 18.6602 159.426 18.5195C159.496 18.4258 159.602 18.2793 159.742 18.0801C159.883 17.8691 160.023 17.6582 160.164 17.4473C160.305 17.2246 160.434 17.0312 160.551 16.8672C160.668 16.6914 160.732 16.5859 160.744 16.5508C160.768 16.457 160.732 16.334 160.639 16.1816C160.557 16.0293 160.545 15.8535 160.604 15.6543C160.65 15.4902 160.756 15.3027 160.92 15.0918C161.084 14.8691 161.277 14.6699 161.5 14.4941C161.723 14.3184 161.951 14.1895 162.186 14.1074C162.42 14.0137 162.631 14.0137 162.818 14.1074C162.971 14.2012 163.094 14.3066 163.188 14.4238C163.281 14.5293 163.316 14.6406 163.293 14.7578C163.27 14.8164 163.234 14.8926 163.188 14.9863C163.141 15.0801 163.07 15.1973 162.977 15.3379C162.883 15.4668 162.748 15.6367 162.572 15.8477C162.607 16.1172 162.654 16.3633 162.713 16.5859C162.783 16.8086 162.848 17.002 162.906 17.166C162.977 17.3652 163.053 17.5469 163.135 17.7109C163.24 17.9219 163.352 18.1387 163.469 18.3613C163.586 18.584 163.691 18.8066 163.785 19.0293C163.879 19.2402 163.955 19.4395 164.014 19.627C164.072 19.8145 164.09 19.9727 164.066 20.1016C164.031 20.3008 163.926 20.541 163.75 20.8223C163.586 21.1035 163.375 21.3789 163.117 21.6484C162.871 21.9062 162.584 22.1289 162.256 22.3164C161.939 22.5039 161.605 22.5977 161.254 22.5977C161.008 22.5977 160.768 22.5215 160.533 22.3691C160.311 22.2168 160.117 22.041 159.953 21.8418C159.801 21.6309 159.684 21.4258 159.602 21.2266C159.531 21.0273 159.525 20.875 159.584 20.7695C159.654 20.6289 159.719 20.5176 159.777 20.4355C159.836 20.3535 159.924 20.2598 160.041 20.1543C160.088 20.1191 160.147 20.0781 160.217 20.0312C160.275 19.9961 160.357 19.9609 160.463 19.9258C160.568 19.8906 160.691 19.8496 160.832 19.8027C160.949 20.166 161.055 20.4531 161.148 20.6641C161.242 20.8633 161.318 21.0215 161.377 21.1387C161.447 21.2676 161.512 21.3555 161.57 21.4023Z" fill="white"/>
</svg>
