<svg width="55" height="35" viewBox="0 0 55 35" fill="none" xmlns="http://www.w3.org/2000/svg">
<rect width="55" height="35" rx="5" fill="#1F718B"/>
<path d="M19.8438 13.9316C19.8321 13.8965 19.8672 13.8086 19.9492 13.668C20.0313 13.5156 20.1192 13.334 20.2129 13.123C20.3184 12.9004 20.418 12.6543 20.5117 12.3848C20.6172 12.1035 20.6875 11.8164 20.7227 11.5234C20.7696 11.2305 20.7696 10.9375 20.7227 10.6445C20.6758 10.3516 20.5528 10.0703 20.3535 9.80078C20.2364 9.66016 20.0606 9.58398 19.8262 9.57227C19.6035 9.54883 19.3457 9.58398 19.0528 9.67773C18.7715 9.75977 18.4727 9.89453 18.1563 10.082C17.8516 10.2578 17.5703 10.4688 17.3125 10.7148C17.0547 10.9492 16.8321 11.2129 16.6446 11.5059C16.4688 11.7988 16.3692 12.0977 16.3457 12.4023C16.3223 12.6484 16.3282 12.877 16.3633 13.0879C16.4102 13.2988 16.4688 13.4922 16.5391 13.668C16.6094 13.8438 16.6856 14.0078 16.7676 14.1602C16.8496 14.3125 16.9258 14.4473 16.9961 14.5645C17.0899 14.7285 17.2364 14.9102 17.4356 15.1094C17.6348 15.3086 17.8516 15.5371 18.086 15.7949C18.3203 16.041 18.5547 16.3223 18.7891 16.6387C19.0235 16.9551 19.2285 17.3125 19.4043 17.7109C19.5801 18.1094 19.7032 18.5547 19.7735 19.0469C19.8438 19.5391 19.8379 20.084 19.7559 20.6816C19.627 21.5488 19.4219 22.2695 19.1407 22.8438C18.8594 23.4297 18.5489 23.8984 18.209 24.25C17.8809 24.6016 17.5469 24.8535 17.2071 25.0059C16.8672 25.1699 16.586 25.2754 16.3633 25.3223C16.1875 25.3574 15.9766 25.3867 15.7305 25.4102C15.4961 25.4453 15.2442 25.4395 14.9746 25.3926C14.7168 25.3574 14.4532 25.2754 14.1836 25.1465C13.9141 25.0293 13.6739 24.8418 13.4629 24.584C13.2168 24.291 13.0235 23.9746 12.8828 23.6348C12.7539 23.3418 12.6602 23.002 12.6016 22.6152C12.5313 22.2402 12.5606 21.8477 12.6895 21.4375C12.7832 21.332 12.8828 21.2383 12.9883 21.1562C13.0938 21.0742 13.1992 21.0039 13.3047 20.9453C13.4219 20.875 13.545 20.8105 13.6739 20.752C13.8262 20.7051 13.9785 20.6641 14.1309 20.6289C14.2598 20.6055 14.3946 20.5938 14.5352 20.5938C14.6875 20.582 14.8282 20.5996 14.9571 20.6465C14.7813 20.8457 14.6582 21.0332 14.5879 21.209C14.541 21.3027 14.5059 21.3848 14.4825 21.4551C14.4356 21.6777 14.418 21.9414 14.4297 22.2461C14.4532 22.5625 14.5176 22.8613 14.6231 23.1426C14.7403 23.4355 14.9043 23.6816 15.1153 23.8809C15.3262 24.0918 15.6075 24.2031 15.959 24.2148C16.8145 24.2383 17.541 23.5703 18.1387 22.2109C18.3379 21.7891 18.4375 21.3613 18.4375 20.9277C18.4492 20.4941 18.3965 20.0781 18.2793 19.6797C18.1739 19.2812 18.0274 18.9121 17.8399 18.5723C17.6641 18.2207 17.4825 17.9219 17.295 17.6758C17.1075 17.4297 16.8789 17.166 16.6094 16.8848C16.3516 16.5918 16.0938 16.2754 15.836 15.9355C15.5782 15.5957 15.3438 15.2266 15.1328 14.8281C14.9336 14.4297 14.7989 13.9961 14.7285 13.5273C14.6348 12.8711 14.6934 12.2734 14.9043 11.7344C15.127 11.1836 15.42 10.7031 15.7832 10.293C16.1582 9.88281 16.5625 9.54883 16.9961 9.29102C17.4414 9.0332 17.834 8.86914 18.1739 8.79883C20.0606 8.42383 21.2969 8.74023 21.8828 9.74805C22.1289 10.1348 22.2637 10.5449 22.2871 10.9785C22.3106 11.4121 22.2813 11.8164 22.1992 12.1914C22.1289 12.5547 22.0352 12.8652 21.918 13.123C21.8125 13.3691 21.7422 13.5039 21.7071 13.5273C21.6367 13.5977 21.5254 13.6738 21.3731 13.7559C21.2207 13.8379 20.9746 13.9141 20.6348 13.9844C20.541 14.0078 20.4473 14.0195 20.3535 14.0195C20.2715 14.0195 20.1836 14.0137 20.0899 14.002C19.9961 13.9902 19.9141 13.9668 19.8438 13.9316ZM30.9532 18.502C30.7891 18.7363 30.5782 19.0293 30.3203 19.3809C30.0625 19.7207 29.793 20.0664 29.5117 20.418C29.2422 20.7578 28.9727 21.0742 28.7032 21.3672C28.4453 21.6484 28.2285 21.8477 28.0528 21.9648C27.9356 22.0352 27.8008 22.0938 27.6485 22.1406C27.4961 22.1875 27.3379 22.2168 27.1739 22.2285C27.0215 22.2402 26.875 22.2285 26.7344 22.1934C26.5938 22.1699 26.4707 22.123 26.3653 22.0527C26.2598 21.9707 26.1719 21.8535 26.1016 21.7012C26.043 21.5723 25.9844 21.4023 25.9258 21.1914C25.8789 20.9805 25.8614 20.7168 25.8731 20.4004C25.5918 20.8691 25.2813 21.2324 24.9414 21.4902C24.6016 21.7363 24.2793 21.918 23.9746 22.0352C23.6231 22.1641 23.2715 22.2402 22.92 22.2637C22.7559 22.2637 22.5801 22.2051 22.3926 22.0879C22.2051 21.9824 22.0469 21.8125 21.918 21.5781C21.7891 21.332 21.7071 21.0215 21.6719 20.6465C21.6367 20.2598 21.6836 19.8027 21.8125 19.2754C21.9766 18.5605 22.2344 17.9102 22.586 17.3242C22.9492 16.7383 23.3418 16.2402 23.7637 15.8301C24.1856 15.4082 24.6016 15.0918 25.0117 14.8809C25.4219 14.6699 25.7617 14.5762 26.0313 14.5996C26.3477 14.6582 26.6055 14.752 26.8047 14.8809C26.9688 14.998 27.0742 15.1738 27.1211 15.4082C27.1797 15.6309 27.086 15.9297 26.8399 16.3047C27.0039 16.2695 27.1387 16.2461 27.2442 16.2344C27.3614 16.2227 27.4492 16.2168 27.5078 16.2168C27.5782 16.2168 27.625 16.2227 27.6485 16.2344C27.6602 16.2578 27.666 16.3105 27.666 16.3926C27.666 16.4629 27.6485 16.5977 27.6133 16.7969C27.5782 16.9961 27.5254 17.2656 27.4551 17.6055C27.3848 17.9453 27.291 18.3848 27.1739 18.9238C27.1504 19.0293 27.127 19.1289 27.1035 19.2227C27.0918 19.3047 27.0742 19.3926 27.0508 19.4863C27.0391 19.5684 27.0215 19.668 26.9981 19.7852C26.9746 19.9023 26.9453 20.0488 26.9102 20.2246C26.8985 20.3301 26.8926 20.4473 26.8926 20.5762C26.9043 20.6934 26.9278 20.8047 26.9629 20.9102C26.9981 21.0156 27.0508 21.1035 27.1211 21.1738C27.2032 21.2324 27.3145 21.2617 27.4551 21.2617C27.5723 21.2617 27.7246 21.1914 27.9121 21.0508C28.0996 20.8984 28.2989 20.7109 28.5098 20.4883C28.7207 20.2539 28.9375 20.002 29.1602 19.7324C29.3946 19.4512 29.6114 19.1816 29.8106 18.9238C30.0098 18.666 30.1856 18.4375 30.3379 18.2383C30.502 18.0391 30.6192 17.8926 30.6895 17.7988C30.7832 17.6934 30.877 17.6348 30.9707 17.623C31.0645 17.5996 31.1348 17.623 31.1817 17.6934C31.2285 17.7637 31.2344 17.8691 31.1992 18.0098C31.1758 18.1504 31.0938 18.3145 30.9532 18.502ZM25.8028 19.2754C25.8614 19.041 25.9317 18.7656 26.0137 18.4492C26.0957 18.1328 26.166 17.8281 26.2246 17.5352C26.2832 17.2422 26.3242 17.002 26.3477 16.8145C26.3828 16.6152 26.377 16.5215 26.3301 16.5332C26.2715 16.5449 26.2071 16.5625 26.1367 16.5859C26.0782 16.6094 26.002 16.627 25.9082 16.6387C25.8145 16.6504 25.7207 16.668 25.627 16.6914C25.7207 16.5039 25.7735 16.3516 25.7852 16.2344C25.8086 16.1055 25.8145 16.0059 25.8028 15.9355C25.791 15.8535 25.7676 15.7891 25.7325 15.7422C25.6035 15.6367 25.375 15.7246 25.0469 16.0059C24.7305 16.2754 24.3614 16.7793 23.9395 17.5176C23.7637 17.8223 23.6231 18.1504 23.5176 18.502C23.4121 18.8418 23.336 19.1641 23.2891 19.4688C23.2539 19.7734 23.2481 20.043 23.2715 20.2773C23.295 20.5 23.3418 20.6465 23.4121 20.7168C23.541 20.8457 23.6875 20.9102 23.8516 20.9102C24.0157 20.8984 24.1797 20.8516 24.3438 20.7695C24.5196 20.6758 24.6895 20.5586 24.8535 20.418C25.0293 20.2773 25.1817 20.1309 25.3106 19.9785C25.4512 19.8262 25.5625 19.6855 25.6446 19.5566C25.7383 19.4277 25.791 19.334 25.8028 19.2754ZM33.6426 11.6465C33.6075 11.7754 33.5371 11.9043 33.4317 12.0332C33.3379 12.1504 33.2266 12.25 33.0977 12.332C32.9805 12.4023 32.8575 12.4492 32.7285 12.4727C32.5996 12.4961 32.4942 12.4727 32.4121 12.4023C32.166 12.2148 32.0371 12.0156 32.0254 11.8047C32.0137 11.582 32.0664 11.377 32.1836 11.1895C32.3008 10.9902 32.4473 10.8262 32.6231 10.6973C32.7989 10.5566 32.9512 10.4746 33.0801 10.4512C33.209 10.4277 33.3145 10.457 33.3965 10.5391C33.4903 10.6094 33.5606 10.709 33.6075 10.8379C33.6543 10.9551 33.6778 11.0898 33.6778 11.2422C33.6895 11.3945 33.6778 11.5293 33.6426 11.6465ZM31.2168 15.3906C31.2754 15.3203 31.3867 15.2617 31.5508 15.2148C31.7149 15.168 31.8848 15.1328 32.0606 15.1094C32.2364 15.0742 32.3946 15.0566 32.5352 15.0566C32.6875 15.0449 32.7754 15.0449 32.7989 15.0566C32.8106 15.0684 32.7813 15.1914 32.711 15.4258C32.6407 15.6602 32.5528 15.9355 32.4473 16.252C32.3418 16.5684 32.2305 16.8965 32.1133 17.2363C31.9961 17.5645 31.9082 17.834 31.8496 18.0449C31.791 18.2559 31.7207 18.4961 31.6387 18.7656C31.5567 19.0234 31.4805 19.2812 31.4102 19.5391C31.3516 19.7852 31.3106 20.0195 31.2871 20.2422C31.2637 20.4648 31.2813 20.6348 31.3399 20.752C31.3985 20.8926 31.4629 20.9922 31.5332 21.0508C31.6035 21.0977 31.6797 21.1211 31.7617 21.1211C31.9961 21.1211 32.2891 20.9922 32.6407 20.7344C33.0039 20.4766 33.3672 20.1719 33.7305 19.8203C34.1055 19.457 34.4512 19.0938 34.7676 18.7305C35.084 18.3555 35.3184 18.0566 35.4707 17.834C35.5645 17.7168 35.6582 17.6406 35.752 17.6055C35.8575 17.5703 35.9395 17.5762 35.9981 17.623C36.0684 17.6699 36.1035 17.7461 36.1035 17.8516C36.1153 17.957 36.0801 18.0801 35.9981 18.2207C35.8106 18.5488 35.5352 18.9414 35.1719 19.3984C34.8086 19.8438 34.4219 20.2773 34.0117 20.6992C33.6016 21.1094 33.1973 21.4609 32.7989 21.7539C32.4121 22.0469 32.0957 22.1992 31.8496 22.2109C31.6504 22.2227 31.4512 22.1875 31.252 22.1055C31.0645 22.0352 30.8887 21.9355 30.7246 21.8066C30.5723 21.666 30.4434 21.5078 30.3379 21.332C30.2325 21.1445 30.1739 20.9512 30.1621 20.752C30.127 20.459 30.127 20.0605 30.1621 19.5566C30.1973 19.041 30.2617 18.5195 30.3555 17.9922C30.4492 17.4531 30.5664 16.9434 30.7071 16.4629C30.8594 15.9824 31.0293 15.625 31.2168 15.3906ZM34.0469 21.9121C33.9649 22.041 33.877 22.123 33.7832 22.1582C33.6778 22.2051 33.5899 22.2109 33.5196 22.1758C33.4375 22.1523 33.3848 22.0938 33.3614 22C33.3379 21.9062 33.3614 21.7891 33.4317 21.6484C33.4668 21.5781 33.5489 21.4199 33.6778 21.1738C33.795 20.9277 33.9414 20.6348 34.1172 20.2949C34.2813 19.9434 34.4629 19.5684 34.6621 19.1699C34.8614 18.7598 35.0489 18.373 35.2246 18.0098C35.4121 17.6465 35.5821 17.3242 35.7344 17.043C35.8867 16.75 35.9981 16.5391 36.0684 16.4102C35.9395 16.293 35.8516 16.2109 35.8047 16.1641C35.7578 16.1055 35.7227 15.9883 35.6992 15.8125C35.6758 15.6602 35.711 15.4609 35.8047 15.2148C35.8985 14.9688 36.0215 14.7344 36.1739 14.5117C36.3262 14.2773 36.4961 14.0781 36.6836 13.9141C36.8711 13.75 37.0528 13.668 37.2285 13.668C37.5567 13.668 37.7852 13.7734 37.9141 13.9844C38.0547 14.1953 38.1367 14.4121 38.1602 14.6348C38.1836 14.7871 38.1719 14.9805 38.125 15.2148C38.0782 15.4492 37.9903 15.6602 37.8614 15.8477C37.8965 15.8711 37.9434 15.9004 38.002 15.9355C38.0606 15.959 38.1543 15.9707 38.2832 15.9707C38.4707 15.9707 38.5996 15.959 38.67 15.9355C38.752 15.9121 38.875 15.9004 39.0391 15.9004C39.2383 15.9004 39.4024 15.9531 39.5313 16.0586C39.6602 16.1523 39.7657 16.2754 39.8477 16.4277C39.9297 16.5684 39.9883 16.7266 40.0235 16.9023C40.0703 17.0664 40.0996 17.2188 40.1114 17.3594C40.1465 17.6523 40.0703 17.957 39.8828 18.2734C39.6953 18.5898 39.4668 18.9355 39.1973 19.3105C39.0332 19.5449 38.8692 19.8086 38.7051 20.1016C38.541 20.3945 38.4707 20.6582 38.4942 20.8926C38.5176 21.0449 38.5586 21.168 38.6172 21.2617C38.6758 21.3555 38.8399 21.4023 39.1094 21.4023C39.3086 21.4023 39.5254 21.332 39.7598 21.1914C40.0059 21.0391 40.252 20.8516 40.4981 20.6289C40.7559 20.3945 41.0078 20.1426 41.2539 19.873C41.5 19.5918 41.7285 19.3223 41.9395 19.0645C42.1504 18.7949 42.3262 18.5547 42.4668 18.3438C42.6192 18.1328 42.7305 17.9805 42.8008 17.8867C42.8594 17.793 42.9356 17.7285 43.0293 17.6934C43.1231 17.6582 43.2051 17.6582 43.2754 17.6934C43.3457 17.7285 43.3867 17.7988 43.3985 17.9043C43.4219 18.0098 43.3809 18.1504 43.2754 18.3262C43.2051 18.4434 43.0821 18.6309 42.9063 18.8887C42.7422 19.1465 42.5371 19.4336 42.291 19.75C42.0567 20.0664 41.793 20.3945 41.5 20.7344C41.2071 21.0625 40.8965 21.3672 40.5684 21.6484C40.252 21.918 39.9297 22.1406 39.6016 22.3164C39.2852 22.4922 38.9805 22.5801 38.6875 22.5801C38.3828 22.5801 38.1309 22.5215 37.9317 22.4043C37.7325 22.2871 37.5684 22.1465 37.4395 21.9824C37.3223 21.8066 37.2344 21.6191 37.1758 21.4199C37.1289 21.209 37.1114 21.0156 37.1231 20.8398C37.1348 20.6992 37.17 20.5527 37.2285 20.4004C37.2989 20.2363 37.375 20.0723 37.4571 19.9082C37.5508 19.7324 37.6446 19.5625 37.7383 19.3984C37.8438 19.2227 37.9375 19.0527 38.0196 18.8887C38.2188 18.5488 38.377 18.2617 38.4942 18.0273C38.6231 17.7812 38.6875 17.5762 38.6875 17.4121C38.6875 17.3066 38.6641 17.2129 38.6172 17.1309C38.5703 17.0488 38.4942 17.0078 38.3887 17.0078C38.3184 17.0078 38.2657 17.0137 38.2305 17.0254C38.2071 17.0254 38.1778 17.0254 38.1426 17.0254C38.1192 17.0254 38.0782 17.0312 38.0196 17.043C37.9727 17.043 37.8965 17.043 37.791 17.043C37.6387 17.043 37.5098 17.0195 37.4043 16.9727C37.2989 16.9258 37.1992 16.8906 37.1055 16.8672C37.0586 16.9492 36.9532 17.125 36.7891 17.3945C36.625 17.6641 36.4317 17.9805 36.209 18.3438C35.9981 18.707 35.7696 19.0879 35.5235 19.4863C35.2891 19.8848 35.0664 20.2598 34.8555 20.6113C34.6446 20.9512 34.4688 21.2441 34.3282 21.4902C34.1758 21.7246 34.0821 21.8652 34.0469 21.9121Z" fill="white"/>
</svg>
