<svg width="22" height="26" viewBox="0 0 22 26" fill="none" xmlns="http://www.w3.org/2000/svg">
<path d="M13.0859 20.4375H14.2578C14.5508 20.4375 14.8438 20.1934 14.8438 19.8516V9.30469C14.8438 9.01172 14.5508 8.71875 14.2578 8.71875H13.0859C12.7441 8.71875 12.5 9.01172 12.5 9.30469V19.8516C12.5 20.1934 12.7441 20.4375 13.0859 20.4375ZM21.0938 4.03125H17.041L15.3809 1.29688C14.9902 0.613281 14.209 0.125 13.3789 0.125H8.44727C7.61719 0.125 6.83594 0.613281 6.44531 1.29688L4.78516 4.03125H0.78125C0.341797 4.03125 0 4.42188 0 4.8125V5.59375C0 6.0332 0.341797 6.375 0.78125 6.375H1.5625V22.7812C1.5625 24.0996 2.58789 25.125 3.90625 25.125H17.9688C19.2383 25.125 20.3125 24.0996 20.3125 22.7812V6.375H21.0938C21.4844 6.375 21.875 6.0332 21.875 5.59375V4.8125C21.875 4.42188 21.4844 4.03125 21.0938 4.03125ZM8.34961 2.61523C8.39844 2.56641 8.49609 2.46875 8.59375 2.46875C8.59375 2.46875 8.59375 2.46875 8.64258 2.46875H13.2324C13.3301 2.46875 13.4277 2.56641 13.4766 2.61523L14.3066 4.03125H7.51953L8.34961 2.61523ZM17.9688 22.7812H3.90625V6.375H17.9688V22.7812ZM7.61719 20.4375H8.78906C9.08203 20.4375 9.375 20.1934 9.375 19.8516V9.30469C9.375 9.01172 9.08203 8.71875 8.78906 8.71875H7.61719C7.27539 8.71875 7.03125 9.01172 7.03125 9.30469V19.8516C7.03125 20.1934 7.27539 20.4375 7.61719 20.4375Z" fill="#FFFFFF"/>
</svg>
